# Converted from resources/robots/b2z1_pcl/meshes/arm_plat_link.dae
# DAE scene node transforms intentionally not baked; URDF link frames already define mesh placement.
o geom_0_prim_0
v 0.0269000009 0.0943000019 0.00300000003
v 0.0269000009 0.0943000019 0
v 0.0273153204 0.0958499983 0.00300000003
v 0.0273153204 0.0958499983 0
v 0.0284499992 0.096984677 0.00300000003
v 0.0284499992 0.096984677 0
v 0.0299999993 0.0974000022 0.00300000003
v 0.0299999993 0.0974000022 0
v 0.0315500014 0.096984677 0.00300000003
v 0.0315500014 0.096984677 0
v 0.0326846801 0.0958499983 0.00300000003
v 0.0326846801 0.0958499983 0
v 0.0331000015 0.0943000019 0.00300000003
v 0.0331000015 0.0943000019 0
v 0.0326846801 0.092749998 0.00300000003
v 0.0326846801 0.092749998 0
v 0.0315500014 0.0916153193 0.00300000003
v 0.0315500014 0.0916153193 0
v 0.0299999993 0.0912000015 0.00300000003
v 0.0299999993 0.0912000015 0
v 0.0284499992 0.0916153193 0.00300000003
v 0.0284499992 0.0916153193 0
v 0.0273153204 0.092749998 0.00300000003
v 0.0273153204 0.092749998 0
v -0.00310000009 -0.0943000019 0.00300000003
v -0.00310000009 -0.0943000019 0
v -0.00268468005 -0.092749998 0.00300000003
v -0.00268468005 -0.092749998 0
v -0.00155000004 -0.0916153193 0.00300000003
v -0.00155000004 -0.0916153193 0
v 0 -0.0912000015 0.00300000003
v 0 -0.0912000015 0
v 0.00155000004 -0.0916153193 0.00300000003
v 0.00155000004 -0.0916153193 0
v 0.00268468005 -0.092749998 0.00300000003
v 0.00268468005 -0.092749998 0
v 0.00310000009 -0.0943000019 0.00300000003
v 0.00310000009 -0.0943000019 0
v 0.00268468005 -0.0958499983 0.00300000003
v 0.00268468005 -0.0958499983 0
v 0.00155000004 -0.096984677 0.00300000003
v 0.00155000004 -0.096984677 0
v 0 -0.0974000022 0.00300000003
v 0 -0.0974000022 0
v -0.00155000004 -0.096984677 0.00300000003
v -0.00155000004 -0.096984677 0
v -0.00268468005 -0.0958499983 0.00300000003
v -0.00268468005 -0.0958499983 0
v -0.0331000015 -0.0943000019 0.00300000003
v -0.0331000015 -0.0943000019 0
v -0.0326846801 -0.092749998 0.00300000003
v -0.0326846801 -0.092749998 0
v -0.0315500014 -0.0916153193 0.00300000003
v -0.0315500014 -0.0916153193 0
v -0.0299999993 -0.0912000015 0.00300000003
v -0.0299999993 -0.0912000015 0
v -0.0284499992 -0.0916153193 0.00300000003
v -0.0284499992 -0.0916153193 0
v -0.0273153204 -0.092749998 0.00300000003
v -0.0273153204 -0.092749998 0
v -0.0269000009 -0.0943000019 0.00300000003
v -0.0269000009 -0.0943000019 0
v -0.0273153204 -0.0958499983 0.00300000003
v -0.0273153204 -0.0958499983 0
v -0.0284499992 -0.096984677 0.00300000003
v -0.0284499992 -0.096984677 0
v -0.0299999993 -0.0974000022 0.00300000003
v -0.0299999993 -0.0974000022 0
v -0.0315500014 -0.096984677 0.00300000003
v -0.0315500014 -0.096984677 0
v -0.0326846801 -0.0958499983 0.00300000003
v -0.0326846801 -0.0958499983 0
v 0.00528276013 0.0973500013 0.00499999989
v 0.00609999988 0.0943000019 0.00499999989
v 0.0149999997 0.102499999 0.00499999989
v 0.0350000001 -0.100500003 0.00499999989
v 0.0377999991 -0.100500003 0.00499999989
v 0.0361000001 -0.0943000019 0.00499999989
v -0.0480000004 0.0874999985 0.00499999989
v -0.0500000007 0.0874999985 0.00499999989
v -0.0500000007 0.0853499994 0.00499999989
v -0.0500000007 -0.0874999985 0.00499999989
v -0.0480000004 -0.0874999985 0.00499999989
v -0.0477499999 -0.0853499994 0.00499999989
v -0.0477499999 0.100500003 0.00499999989
v -0.0480000004 0.100500003 0.00499999989
v -0.0247172508 0.0912500024 0.00499999989
v -0.0149999997 0.0853499994 0.00499999989
v -0.0239000004 0.0943000019 0.00499999989
v -0.0149999997 0.102499999 0.00499999989
v -0.0247172508 0.0973500013 0.00499999989
v -0.0350000001 0.100500003 0.00499999989
v -0.0377999991 0.100500003 0.00499999989
v -0.0361000001 0.0943000019 0.00499999989
v -0.0377999991 0.0853499994 0.00499999989
v -0.0352827497 0.0912500024 0.00499999989
v -0.0352827497 0.0973500013 0.00499999989
v -0.0330500007 0.0995827466 0.00499999989
v -0.0350000001 0.102499999 0.00499999989
v -0.0299999993 0.100400001 0.00499999989
v -0.0269499999 0.0995827466 0.00499999989
v -0.0269499999 0.0890172422 0.00499999989
v -0.0299999993 0.0882000029 0.00499999989
v -0.0330500007 0.0890172422 0.00499999989
v 0.0352827497 0.0973500013 0.00499999989
v 0.0361000001 0.0943000019 0.00499999989
v 0.0377999991 0.100500003 0.00499999989
v 0.0352827497 0.0912500024 0.00499999989
v 0.0377999991 0.0853499994 0.00499999989
v 0.0247172508 0.0973500013 0.00499999989
v 0.0269499999 0.0995827466 0.00499999989
v 0.0299999993 0.100400001 0.00499999989
v 0.0330500007 0.0890172422 0.00499999989
v 0.0299999993 0.0882000029 0.00499999989
v 0.0149999997 0.0853499994 0.00499999989
v 0.0269499999 0.0890172422 0.00499999989
v 0.0247172508 0.0912500024 0.00499999989
v 0.0239000004 0.0943000019 0.00499999989
v 0.0330500007 0.0995827466 0.00499999989
v 0.0350000001 0.100500003 0.00499999989
v 0.0350000001 0.102499999 0.00499999989
v 0.0480000004 0.0874999985 0.00499999989
v 0.0480000004 0.100500003 0.00499999989
v 0.0500000007 -0.0874999985 0.00499999989
v 0.0500000007 -0.0853499994 0.00499999989
v 0.0480000004 -0.0874999985 0.00499999989
v 0.0377999991 -0.0853499994 0.00499999989
v 0.0480000004 -0.100500003 0.00499999989
v 0.0352827497 -0.0912500024 0.00499999989
v 0.0269499999 -0.0995827466 0.00499999989
v 0.0149999997 -0.101450004 0.00499999989
v 0.0299999993 -0.100400001 0.00499999989
v 0.0350000001 -0.101450004 0.00499999989
v 0.0330500007 -0.0995827466 0.00499999989
v 0.0352827497 -0.0973500013 0.00499999989
v 0.0247172508 -0.0912500024 0.00499999989
v 0.0149999997 -0.0853499994 0.00499999989
v 0.0239000004 -0.0943000019 0.00499999989
v 0.0247172508 -0.0973500013 0.00499999989
v 0.0269499999 -0.0890172422 0.00499999989
v 0.0299999993 -0.0882000029 0.00499999989
v 0.0330500007 -0.0890172422 0.00499999989
v -0.0350000001 -0.101450004 0.00499999989
v -0.0350000001 -0.102499999 0.00499999989
v -0.0149999997 -0.102499999 0.00499999989
v -0.0361000001 -0.0943000019 0.00499999989
v -0.0352827497 -0.0912500024 0.00499999989
v -0.0377999991 -0.0853499994 0.00499999989
v -0.0149999997 -0.0853499994 0.00499999989
v -0.0247172508 -0.0912500024 0.00499999989
v -0.0149999997 -0.101450004 0.00499999989
v -0.0239000004 -0.0943000019 0.00499999989
v -0.0247172508 -0.0973500013 0.00499999989
v -0.0330500007 -0.0890172422 0.00499999989
v -0.0299999993 -0.0882000029 0.00499999989
v -0.0269499999 -0.0890172422 0.00499999989
v -0.0269499999 -0.0995827466 0.00499999989
v -0.0299999993 -0.100400001 0.00499999989
v -0.0330500007 -0.0995827466 0.00499999989
v -0.0350000001 -0.100500003 0.00499999989
v -0.0352827497 -0.0973500013 0.00499999989
v -0.0377999991 -0.100500003 0.00499999989
v -0.0477499999 -0.100500003 0.00499999989
v -0.0480000004 -0.100500003 0.00499999989
v 0.0149999997 0.0825000033 0.00499999989
v 0.0350000001 0.0825000033 0.00499999989
v 0.0377999991 0.0702499971 0.00499999989
v 0.0350000001 0.0702499971 0.00499999989
v 0.0377999991 0 0.00499999989
v 0.0350000001 0 0.00499999989
v 0.0350000001 -0.0825000033 0.00499999989
v 0.0149999997 -0.0825000033 0.00499999989
v -0.0149999997 -0.0825000033 0.00499999989
v 0.00528276013 0.0912500024 0.00499999989
v 0.00304999994 0.0890172422 0.00499999989
v 0 0.0882000029 0.00499999989
v -0.00304999994 0.0890172422 0.00499999989
v -0.00528276013 0.0912500024 0.00499999989
v -0.00609999988 0.0943000019 0.00499999989
v -0.00528276013 0.0973500013 0.00499999989
v -0.00304999994 0.0995827466 0.00499999989
v 0 0.100400001 0.00499999989
v 0.00304999994 0.0995827466 0.00499999989
v 0.0500000007 0.0874999985 0.00499999989
v 0.0500000007 0.0853499994 0.00499999989
v 0.0500000007 0.0702499971 0.00499999989
v 0.0450980812 0.0535000004 0.00499999989
v 0.0439999998 0.0524019189 0.00499999989
v 0.0500000007 0 0.00499999989
v 0.0454999991 0.0549999997 0.00499999989
v 0.0450980812 0.056499999 0.00499999989
v 0.0425000004 0.0520000011 0.00499999989
v 0.0410000011 0.0524019189 0.00499999989
v 0.0399019197 0.0535000004 0.00499999989
v 0.0395000018 0.0549999997 0.00499999989
v 0.0399019197 0.056499999 0.00499999989
v 0.0410000011 0.0575980805 0.00499999989
v 0.0425000004 0.0579999983 0.00499999989
v 0.0439999998 0.0575980805 0.00499999989
v -0.0439999998 0.0575980805 0.00499999989
v -0.0425000004 0.0579999983 0.00499999989
v -0.0377999991 0.0702499971 0.00499999989
v -0.0410000011 0.0575980805 0.00499999989
v -0.0439999998 0.0524019189 0.00499999989
v -0.0477499999 0 0.00499999989
v -0.0425000004 0.0520000011 0.00499999989
v -0.0377999991 0 0.00499999989
v -0.0410000011 0.0524019189 0.00499999989
v -0.0450980812 0.0535000004 0.00499999989
v -0.0454999991 0.0549999997 0.00499999989
v -0.0477499999 0.0702499971 0.00499999989
v -0.0450980812 0.056499999 0.00499999989
v -0.0399019197 0.056499999 0.00499999989
v -0.0395000018 0.0549999997 0.00499999989
v -0.0399019197 0.0535000004 0.00499999989
v -0.0477499999 0.0853499994 0.00499999989
v 0.0410000011 -0.0524019189 0.00499999989
v 0.0425000004 -0.0520000011 0.00499999989
v 0.0439999998 -0.0575980805 0.00499999989
v 0.0425000004 -0.0579999983 0.00499999989
v 0.0410000011 -0.0575980805 0.00499999989
v 0.0439999998 -0.0524019189 0.00499999989
v 0.0399019197 -0.056499999 0.00499999989
v 0.0395000018 -0.0549999997 0.00499999989
v 0.0399019197 -0.0535000004 0.00499999989
v 0.0450980812 -0.0535000004 0.00499999989
v 0.0454999991 -0.0549999997 0.00499999989
v 0.0450980812 -0.056499999 0.00499999989
v -0.0410000011 -0.0575980805 0.00499999989
v -0.0425000004 -0.0579999983 0.00499999989
v -0.0439999998 -0.0575980805 0.00499999989
v -0.0450980812 -0.056499999 0.00499999989
v -0.0454999991 -0.0549999997 0.00499999989
v -0.0410000011 -0.0524019189 0.00499999989
v -0.0399019197 -0.0535000004 0.00499999989
v -0.0395000018 -0.0549999997 0.00499999989
v -0.0399019197 -0.056499999 0.00499999989
v -0.0450980812 -0.0535000004 0.00499999989
v -0.0439999998 -0.0524019189 0.00499999989
v -0.0425000004 -0.0520000011 0.00499999989
v -0.0500000007 0.0702499971 0.00499999989
v -0.0500000007 0 0.00499999989
v -0.0500000007 -0.0853499994 0.00499999989
v -0.00304999994 -0.0890172422 0.00499999989
v 0 -0.0882000029 0.00499999989
v 0.00528276013 -0.0973500013 0.00499999989
v 0.00304999994 -0.0995827466 0.00499999989
v 0 -0.100400001 0.00499999989
v -0.00304999994 -0.0995827466 0.00499999989
v -0.00528276013 -0.0973500013 0.00499999989
v -0.00609999988 -0.0943000019 0.00499999989
v -0.00528276013 -0.0912500024 0.00499999989
v -0.0350000001 -0.0825000033 0.00499999989
v -0.0350000001 0 0.00499999989
v -0.0350000001 0.0702499971 0.00499999989
v -0.0350000001 0.0825000033 0.00499999989
v -0.0149999997 0.0825000033 0.00499999989
v 0.00304999994 -0.0890172422 0.00499999989
v 0.00528276013 -0.0912500024 0.00499999989
v 0.00609999988 -0.0943000019 0.00499999989
v 0.0149999997 -0.102499999 0.00499999989
v 0.0350000001 -0.102499999 0.00499999989
v 0.0500000007 -0.0874999985 0.172999993
v 0.0500000007 -0.0874999985 0.170000002
v 0.0500000007 -0.056499999 0.170000002
v 0.0500000007 -0.102499999 0.172999993
v 0.0500000007 -0.102499999 0
v 0.0500000007 -0.0988000035 0.172999993
v 0.0500000007 -0.0999500006 0
v 0.0500000007 -0.0868500024 0
v 0.0500000007 0 0
v 0.0500000007 0.0874999985 0.170000002
v 0.0500000007 0.0874999985 0.172999993
v 0.0500000007 0.056499999 0.170000002
v 0.0500000007 0.056499999 0.172999993
v 0.0500000007 0 0.170000002
v 0.0500000007 0 0.172999993
v 0.0500000007 -0.056499999 0.172999993
v 0.0500000007 0.0702499971 0
v 0.0500000007 0.0868500024 0
v 0.0500000007 0.102499999 0
v 0.0500000007 0.102499999 0.172999993
v -0.0350000001 0.102499999 0.170000002
v -0.0415499993 0.102499999 0.172999993
v -0.0212500002 0.102499999 0.170000002
v -0.0212500002 0.102499999 0.172999993
v 0 0.102499999 0.170000002
v 0 0.102499999 0.172999993
v 0.0212500002 0.102499999 0.170000002
v 0.0212500002 0.102499999 0.172999993
v 0.0350000001 0.102499999 0.170000002
v -0.0477499999 0.102499999 0
v -0.0500000007 0.102499999 0.172999993
v -0.0500000007 0.102499999 0
v 0.037250001 0.102499999 0
v 0.0149999997 0.102499999 0
v -0.0149999997 0.102499999 0
v -0.037250001 0.102499999 0
v -0.0500000007 -0.0999500006 0
v -0.0500000007 -0.102499999 0
v -0.0500000007 -0.0988000035 0.172999993
v -0.0500000007 -0.102499999 0.172999993
v -0.0500000007 0.056499999 0.170000002
v -0.0500000007 0.0874999985 0.172999993
v -0.0500000007 0.0874999985 0.170000002
v -0.0500000007 0.0868500024 0
v -0.0500000007 0.0702499971 0
v -0.0500000007 -0.0874999985 0.170000002
v -0.0500000007 -0.0874999985 0.172999993
v -0.0500000007 -0.056499999 0.170000002
v -0.0500000007 -0.056499999 0.172999993
v -0.0500000007 0 0.170000002
v -0.0500000007 0 0.172999993
v -0.0500000007 0.056499999 0.172999993
v -0.0500000007 0 0
v -0.0500000007 -0.0868500024 0
v 0.0350000001 0.0825000033 0
v 0.0149999997 0.0825000033 0
v -0.0149999997 0.0825000033 0
v -0.0350000001 0.0825000033 0
v 0.0350000001 -0.0825000033 0
v 0.0350000001 0 0
v 0.0350000001 0.0702499971 0
v -0.0350000001 -0.0825000033 0
v -0.0149999997 -0.0825000033 0
v 0.0149999997 -0.0825000033 0
v -0.0331000015 0.0943000019 0.00300000003
v -0.0331000015 0.0943000019 0
v -0.0326846801 0.0958499983 0.00300000003
v -0.0326846801 0.0958499983 0
v -0.0315500014 0.096984677 0.00300000003
v -0.0315500014 0.096984677 0
v -0.0299999993 0.0974000022 0.00300000003
v -0.0299999993 0.0974000022 0
v -0.0284499992 0.096984677 0.00300000003
v -0.0284499992 0.096984677 0
v -0.0273153204 0.0958499983 0.00300000003
v -0.0273153204 0.0958499983 0
v -0.0269000009 0.0943000019 0.00300000003
v -0.0269000009 0.0943000019 0
v -0.0273153204 0.092749998 0.00300000003
v -0.0273153204 0.092749998 0
v -0.0284499992 0.0916153193 0.00300000003
v -0.0284499992 0.0916153193 0
v -0.0299999993 0.0912000015 0.00300000003
v -0.0299999993 0.0912000015 0
v -0.0315500014 0.0916153193 0.00300000003
v -0.0315500014 0.0916153193 0
v -0.0326846801 0.092749998 0.00300000003
v -0.0326846801 0.092749998 0
v 0.0269000009 -0.0943000019 0.00300000003
v 0.0269000009 -0.0943000019 0
v 0.0273153204 -0.092749998 0.00300000003
v 0.0273153204 -0.092749998 0
v 0.0284499992 -0.0916153193 0.00300000003
v 0.0284499992 -0.0916153193 0
v 0.0299999993 -0.0912000015 0.00300000003
v 0.0299999993 -0.0912000015 0
v 0.0315500014 -0.0916153193 0.00300000003
v 0.0315500014 -0.0916153193 0
v 0.0326846801 -0.092749998 0.00300000003
v 0.0326846801 -0.092749998 0
v 0.0331000015 -0.0943000019 0.00300000003
v 0.0331000015 -0.0943000019 0
v 0.0326846801 -0.0958499983 0.00300000003
v 0.0326846801 -0.0958499983 0
v 0.0315500014 -0.096984677 0.00300000003
v 0.0315500014 -0.096984677 0
v 0.0299999993 -0.0974000022 0.00300000003
v 0.0299999993 -0.0974000022 0
v 0.0284499992 -0.096984677 0.00300000003
v 0.0284499992 -0.096984677 0
v 0.0273153204 -0.0958499983 0.00300000003
v 0.0273153204 -0.0958499983 0
v 0.037250001 -0.102499999 0
v 0.0350000001 -0.102499999 0.170000002
v 0.0212500002 -0.102499999 0.172999993
v -0.0415499993 -0.102499999 0.172999993
v -0.0477499999 -0.102499999 0
v 0.0149999997 -0.102499999 0
v -0.0149999997 -0.102499999 0
v -0.037250001 -0.102499999 0
v -0.0350000001 -0.102499999 0.170000002
v -0.0212500002 -0.102499999 0.172999993
v -0.0212500002 -0.102499999 0.170000002
v 0 -0.102499999 0.172999993
v 0 -0.102499999 0.170000002
v 0.0212500002 -0.102499999 0.170000002
v -0.0350000001 0.0702499971 0
v -0.0350000001 0 0
v -0.00310000009 0.0943000019 0.00300000003
v -0.00310000009 0.0943000019 0
v -0.00268468005 0.0958499983 0.00300000003
v -0.00268468005 0.0958499983 0
v -0.00155000004 0.096984677 0.00300000003
v -0.00155000004 0.096984677 0
v 0 0.0974000022 0.00300000003
v 0 0.0974000022 0
v 0.00155000004 0.096984677 0.00300000003
v 0.00155000004 0.096984677 0
v 0.00268468005 0.0958499983 0.00300000003
v 0.00268468005 0.0958499983 0
v 0.00310000009 0.0943000019 0.00300000003
v 0.00310000009 0.0943000019 0
v 0.00268468005 0.092749998 0.00300000003
v 0.00268468005 0.092749998 0
v 0.00155000004 0.0916153193 0.00300000003
v 0.00155000004 0.0916153193 0
v 0 0.0912000015 0.00300000003
v 0 0.0912000015 0
v -0.00155000004 0.0916153193 0.00300000003
v -0.00155000004 0.0916153193 0
v -0.00268468005 0.092749998 0.00300000003
v -0.00268468005 0.092749998 0
v -0.0477499999 -0.0999500006 0
v 0.037250001 0 0
v 0.037250001 -0.0868500024 0
v 0.0149999997 -0.0868500024 0
v -0.0149999997 -0.0868500024 0
v -0.037250001 -0.0868500024 0
v -0.037250001 0 0
v -0.037250001 0.0702499971 0
v -0.037250001 0.0868500024 0
v -0.0149999997 0.0868500024 0
v 0.0149999997 0.0868500024 0
v 0.037250001 0.0868500024 0
v 0.037250001 0.0702499971 0
v -0.037250001 -0.0999500006 0
v -0.0149999997 -0.0999500006 0
v 0.0149999997 -0.0999500006 0
v 0.037250001 -0.0999500006 0
v 0.0410000011 -0.0575980805 0
v 0.0425000004 -0.0579999983 0
v 0.0439999998 -0.0575980805 0
v 0.0439999998 -0.0524019189 0
v 0.0425000004 -0.0520000011 0
v 0.0410000011 -0.0524019189 0
v 0.0450980812 -0.056499999 0
v 0.0454999991 -0.0549999997 0
v 0.0450980812 -0.0535000004 0
v 0.0399019197 -0.0535000004 0
v 0.0395000018 -0.0549999997 0
v 0.0399019197 -0.056499999 0
v -0.0439999998 -0.0575980805 0
v -0.0425000004 -0.0579999983 0
v -0.0477499999 -0.0868500024 0
v -0.0410000011 -0.0575980805 0
v -0.0410000011 -0.0524019189 0
v -0.0425000004 -0.0520000011 0
v -0.0477499999 0 0
v -0.0439999998 -0.0524019189 0
v -0.0399019197 -0.056499999 0
v -0.0395000018 -0.0549999997 0
v -0.0399019197 -0.0535000004 0
v -0.0450980812 -0.0535000004 0
v -0.0454999991 -0.0549999997 0
v -0.0450980812 -0.056499999 0
v 0.0410000011 0.0524019189 0
v 0.0425000004 0.0520000011 0
v 0.0439999998 0.0524019189 0
v 0.0439999998 0.0575980805 0
v 0.0425000004 0.0579999983 0
v 0.0410000011 0.0575980805 0
v 0.0450980812 0.0535000004 0
v 0.0454999991 0.0549999997 0
v 0.0450980812 0.056499999 0
v 0.0399019197 0.056499999 0
v 0.0395000018 0.0549999997 0
v 0.0399019197 0.0535000004 0
v -0.0439999998 0.0524019189 0
v -0.0425000004 0.0520000011 0
v -0.0410000011 0.0524019189 0
v -0.0410000011 0.0575980805 0
v -0.0425000004 0.0579999983 0
v -0.0399019197 0.0535000004 0
v -0.0395000018 0.0549999997 0
v -0.0399019197 0.056499999 0
v -0.0439999998 0.0575980805 0
v -0.0477499999 0.0702499971 0
v -0.0450980812 0.056499999 0
v -0.0454999991 0.0549999997 0
v -0.0450980812 0.0535000004 0
v -0.0477499999 0.0868500024 0
v 0.0350000001 -0.100500003 0.170000002
v 0.0480000004 -0.100500003 0.170000002
v 0.0480000004 -0.0874999985 0.170000002
v 0.0480000004 -0.0988000035 0.170000002
v 0.0350000001 0.100500003 0.170000002
v 0.0480000004 0.100500003 0.170000002
v 0.0480000004 0.0874999985 0.170000002
v -0.0480000004 0.0874999985 0.170000002
v -0.0480000004 0.100500003 0.170000002
v -0.0350000001 0.100500003 0.170000002
v -0.0415499993 0.100500003 0.170000002
v -0.0480000004 -0.100500003 0.170000002
v -0.0415499993 -0.100500003 0.170000002
v -0.0350000001 -0.100500003 0.170000002
v -0.0480000004 -0.0874999985 0.170000002
v -0.0480000004 -0.0988000035 0.170000002
v -0.01525167 0.0838000029 0.170000002
v -0.0155999996 0.0825000033 0.170000002
v -0.0212500002 0.0874999985 0.170000002
v -0.0212500002 -0.0988000035 0.170000002
v 0.0212500002 0.0874999985 0.170000002
v -0.0415499993 -0.0988000035 0.170000002
v 0.01525167 -0.0912000015 0.170000002
v 0.0142999999 -0.0902483314 0.170000002
v 0.0212500002 -0.0874999985 0.170000002
v 0.0130000003 -0.0899000019 0.170000002
v 0.0116999997 -0.0902483314 0.170000002
v 0 -0.0874999985 0.170000002
v 0.0107483296 -0.0912000015 0.170000002
v 0.0104 -0.0925000012 0.170000002
v 0 -0.0988000035 0.170000002
v 0.0107483296 -0.0938000008 0.170000002
v 0.0116999997 -0.0947516635 0.170000002
v 0.0130000003 -0.0951000005 0.170000002
v 0.0212500002 -0.0988000035 0.170000002
v 0.0142999999 -0.0947516635 0.170000002
v 0.01525167 -0.0938000008 0.170000002
v 0.0155999996 -0.0925000012 0.170000002
v -0.01525167 -0.0938000008 0.170000002
v -0.0142999999 -0.0947516635 0.170000002
v -0.0155999996 -0.0925000012 0.170000002
v -0.0107483296 -0.0912000015 0.170000002
v -0.0116999997 -0.0902483314 0.170000002
v -0.0130000003 -0.0899000019 0.170000002
v -0.0212500002 -0.0874999985 0.170000002
v -0.0142999999 -0.0902483314 0.170000002
v -0.01525167 -0.0912000015 0.170000002
v -0.0130000003 -0.0951000005 0.170000002
v -0.0116999997 -0.0947516635 0.170000002
v -0.0107483296 -0.0938000008 0.170000002
v -0.0104 -0.0925000012 0.170000002
v -0.0415499993 -0.0874999985 0.170000002
v 0.0107483296 -0.0838000029 0.170000002
v 0.0116999997 -0.084751673 0.170000002
v 0.0212500002 -0.056499999 0.170000002
v 0.0142999999 -0.0802483335 0.170000002
v 0.0130000003 -0.0798999965 0.170000002
v 0.0130000003 -0.0851000026 0.170000002
v 0.0142999999 -0.084751673 0.170000002
v 0.0116999997 -0.0802483335 0.170000002
v 0 -0.056499999 0.170000002
v 0.0107483296 -0.0812000036 0.170000002
v 0.0104 -0.0825000033 0.170000002
v 0.01525167 -0.0838000029 0.170000002
v 0.0155999996 -0.0825000033 0.170000002
v 0.01525167 -0.0812000036 0.170000002
v -0.0130000003 -0.0798999965 0.170000002
v -0.0142999999 -0.0802483335 0.170000002
v -0.0212500002 -0.056499999 0.170000002
v -0.01525167 -0.0812000036 0.170000002
v -0.0155999996 -0.0825000033 0.170000002
v -0.01525167 -0.0838000029 0.170000002
v -0.0116999997 -0.0802483335 0.170000002
v -0.0116999997 -0.084751673 0.170000002
v -0.0130000003 -0.0851000026 0.170000002
v -0.0142999999 -0.084751673 0.170000002
v -0.0107483296 -0.0838000029 0.170000002
v -0.0104 -0.0825000033 0.170000002
v -0.0107483296 -0.0812000036 0.170000002
v -0.0415499993 -0.056499999 0.170000002
v 0.0284499992 -0.0326846801 0.170000002
v 0.0299999993 -0.0331000015 0.170000002
v 0.0315500014 -0.0326846801 0.170000002
v 0.0326846801 -0.0315500014 0.170000002
v 0.0331000015 -0.0299999993 0.170000002
v 0.0326846801 -0.0284499992 0.170000002
v 0.0315500014 -0.0273153204 0.170000002
v 0.0212500002 0 0.170000002
v 0.0299999993 -0.0269000009 0.170000002
v 0.0284499992 -0.0273153204 0.170000002
v 0.0273153204 -0.0284499992 0.170000002
v 0.0269000009 -0.0299999993 0.170000002
v 0.0273153204 -0.0315500014 0.170000002
v -0.0415499993 0 0.170000002
v -0.0331000015 -0.0299999993 0.170000002
v -0.0326846801 -0.0284499992 0.170000002
v -0.0326846801 -0.0315500014 0.170000002
v -0.0315500014 -0.0326846801 0.170000002
v -0.0299999993 -0.0331000015 0.170000002
v -0.0284499992 -0.0326846801 0.170000002
v -0.0273153204 -0.0284499992 0.170000002
v -0.0212500002 0 0.170000002
v -0.0269000009 -0.0299999993 0.170000002
v -0.0273153204 -0.0315500014 0.170000002
v -0.0284499992 -0.0273153204 0.170000002
v -0.0299999993 -0.0269000009 0.170000002
v -0.0315500014 -0.0273153204 0.170000002
v 0.0315500014 0.0326846801 0.170000002
v 0.0299999993 0.0331000015 0.170000002
v 0.0212500002 0.056499999 0.170000002
v 0.0273153204 0.0284499992 0.170000002
v 0.0269000009 0.0299999993 0.170000002
v 0.0326846801 0.0315500014 0.170000002
v 0.0331000015 0.0299999993 0.170000002
v 0.0326846801 0.0284499992 0.170000002
v 0.0284499992 0.0326846801 0.170000002
v 0.0273153204 0.0315500014 0.170000002
v 0.0284499992 0.0273153204 0.170000002
v 0.0299999993 0.0269000009 0.170000002
v 0.0315500014 0.0273153204 0.170000002
v -0.0284499992 0.0326846801 0.170000002
v -0.0299999993 0.0331000015 0.170000002
v -0.0212500002 0.056499999 0.170000002
v -0.0315500014 0.0326846801 0.170000002
v -0.0326846801 0.0315500014 0.170000002
v -0.0415499993 0.056499999 0.170000002
v -0.0331000015 0.0299999993 0.170000002
v -0.0326846801 0.0284499992 0.170000002
v -0.0315500014 0.0273153204 0.170000002
v -0.0299999993 0.0269000009 0.170000002
v -0.0284499992 0.0273153204 0.170000002
v -0.0273153204 0.0284499992 0.170000002
v -0.0269000009 0.0299999993 0.170000002
v -0.0273153204 0.0315500014 0.170000002
v 0.01525167 0.0838000029 0.170000002
v 0.0142999999 0.084751673 0.170000002
v 0.0130000003 0.0851000026 0.170000002
v 0.0116999997 0.084751673 0.170000002
v 0 0.0874999985 0.170000002
v 0.0107483296 0.0838000029 0.170000002
v 0.0104 0.0825000033 0.170000002
v 0 0.056499999 0.170000002
v 0.0107483296 0.0812000036 0.170000002
v 0.0116999997 0.0802483335 0.170000002
v 0.0130000003 0.0798999965 0.170000002
v 0.0142999999 0.0802483335 0.170000002
v 0.01525167 0.0812000036 0.170000002
v 0.0155999996 0.0825000033 0.170000002
v 0 0 0.170000002
v -0.0116999997 0.0802483335 0.170000002
v -0.0107483296 0.0812000036 0.170000002
v -0.0107483296 0.0838000029 0.170000002
v -0.0116999997 0.084751673 0.170000002
v -0.0130000003 0.0851000026 0.170000002
v -0.0142999999 0.084751673 0.170000002
v -0.01525167 0.0812000036 0.170000002
v -0.0142999999 0.0802483335 0.170000002
v -0.0130000003 0.0798999965 0.170000002
v -0.0104 0.0825000033 0.170000002
v -0.0415499993 0.0874999985 0.170000002
v 0.0107483296 0.0912000015 0.170000002
v 0.0116999997 0.0902483314 0.170000002
v 0.0142999999 0.0947516635 0.170000002
v 0.0130000003 0.0951000005 0.170000002
v 0.0130000003 0.0899000019 0.170000002
v 0.0142999999 0.0902483314 0.170000002
v 0.0116999997 0.0947516635 0.170000002
v 0.0107483296 0.0938000008 0.170000002
v 0.0104 0.0925000012 0.170000002
v 0.01525167 0.0912000015 0.170000002
v 0.0155999996 0.0925000012 0.170000002
v 0.01525167 0.0938000008 0.170000002
v -0.0116999997 0.0947516635 0.170000002
v -0.0130000003 0.0951000005 0.170000002
v -0.0142999999 0.0947516635 0.170000002
v -0.01525167 0.0938000008 0.170000002
v -0.0155999996 0.0925000012 0.170000002
v -0.01525167 0.0912000015 0.170000002
v -0.0116999997 0.0902483314 0.170000002
v -0.0130000003 0.0899000019 0.170000002
v -0.0142999999 0.0902483314 0.170000002
v -0.0107483296 0.0912000015 0.170000002
v -0.0104 0.0925000012 0.170000002
v -0.0107483296 0.0938000008 0.170000002
v 0.0212500002 -0.0988000035 0.172999993
v -0.0107483296 -0.0912000015 0.172999993
v -0.0104 -0.0925000012 0.172999993
v 0 -0.0874999985 0.172999993
v 0.01525167 -0.0912000015 0.172999993
v 0.0155999996 -0.0925000012 0.172999993
v 0.0212500002 -0.0874999985 0.172999993
v -0.0107483296 0.0838000029 0.172999993
v -0.0104 0.0825000033 0.172999993
v 0 0.0874999985 0.172999993
v 0.0212500002 0.0874999985 0.172999993
v 0.0155999996 0.0925000012 0.172999993
v 0.01525167 0.0912000015 0.172999993
v 0.01525167 0.0938000008 0.172999993
v 0.0142999999 0.0947516635 0.172999993
v 0.0116999997 0.0947516635 0.172999993
v 0.0130000003 0.0951000005 0.172999993
v 0.0116999997 0.0902483314 0.172999993
v 0.0130000003 0.0899000019 0.172999993
v 0.0142999999 0.0902483314 0.172999993
v 0.0107483296 0.0912000015 0.172999993
v 0.0104 0.0925000012 0.172999993
v 0.0107483296 0.0938000008 0.172999993
v -0.0104 0.0925000012 0.172999993
v -0.0107483296 0.0912000015 0.172999993
v -0.0107483296 0.0938000008 0.172999993
v -0.0116999997 0.0947516635 0.172999993
v -0.0130000003 0.0951000005 0.172999993
v -0.0142999999 0.0947516635 0.172999993
v -0.0116999997 0.0902483314 0.172999993
v -0.0130000003 0.0899000019 0.172999993
v -0.0212500002 0.0874999985 0.172999993
v -0.0142999999 0.0902483314 0.172999993
v -0.01525167 0.0912000015 0.172999993
v -0.0155999996 0.0925000012 0.172999993
v -0.01525167 0.0938000008 0.172999993
v 0.0155999996 0.0825000033 0.172999993
v 0.01525167 0.0812000036 0.172999993
v 0.0212500002 0.056499999 0.172999993
v 0.0142999999 0.0802483335 0.172999993
v 0.0104 0.0825000033 0.172999993
v 0.0107483296 0.0838000029 0.172999993
v 0.0107483296 0.0812000036 0.172999993
v 0.0116999997 0.084751673 0.172999993
v 0.0130000003 0.0851000026 0.172999993
v 0.0142999999 0.084751673 0.172999993
v 0.01525167 0.0838000029 0.172999993
v 0.0130000003 0.0798999965 0.172999993
v 0.0116999997 0.0802483335 0.172999993
v 0 0.056499999 0.172999993
v -0.0107483296 0.0812000036 0.172999993
v -0.01525167 0.0838000029 0.172999993
v -0.0142999999 0.084751673 0.172999993
v -0.0130000003 0.0851000026 0.172999993
v -0.0116999997 0.084751673 0.172999993
v -0.0116999997 0.0802483335 0.172999993
v -0.0130000003 0.0798999965 0.172999993
v -0.0212500002 0.056499999 0.172999993
v -0.0142999999 0.0802483335 0.172999993
v -0.01525167 0.0812000036 0.172999993
v -0.0155999996 0.0825000033 0.172999993
v 0.0284499992 0.0326846801 0.172999993
v 0.0299999993 0.0331000015 0.172999993
v 0.0315500014 0.0326846801 0.172999993
v 0.0326846801 0.0315500014 0.172999993
v 0.0331000015 0.0299999993 0.172999993
v 0.0326846801 0.0284499992 0.172999993
v 0.0315500014 0.0273153204 0.172999993
v 0.0299999993 0.0269000009 0.172999993
v 0.0212500002 0 0.172999993
v 0.0284499992 0.0273153204 0.172999993
v 0.0273153204 0.0284499992 0.172999993
v 0.0269000009 0.0299999993 0.172999993
v 0.0273153204 0.0315500014 0.172999993
v -0.0315500014 0.0326846801 0.172999993
v -0.0299999993 0.0331000015 0.172999993
v -0.0284499992 0.0326846801 0.172999993
v -0.0273153204 0.0315500014 0.172999993
v -0.0269000009 0.0299999993 0.172999993
v -0.0212500002 0 0.172999993
v -0.0273153204 0.0284499992 0.172999993
v -0.0284499992 0.0273153204 0.172999993
v -0.0299999993 0.0269000009 0.172999993
v -0.0415499993 0 0.172999993
v -0.0331000015 0.0299999993 0.172999993
v -0.0415499993 0.056499999 0.172999993
v -0.0326846801 0.0315500014 0.172999993
v -0.0315500014 0.0273153204 0.172999993
v -0.0326846801 0.0284499992 0.172999993
v -0.0415499993 0.0874999985 0.172999993
v 0.0315500014 -0.0326846801 0.172999993
v 0.0299999993 -0.0331000015 0.172999993
v 0.0212500002 -0.056499999 0.172999993
v 0.0284499992 -0.0326846801 0.172999993
v 0.0284499992 -0.0273153204 0.172999993
v 0.0299999993 -0.0269000009 0.172999993
v 0.0315500014 -0.0273153204 0.172999993
v 0.0326846801 -0.0284499992 0.172999993
v 0.0331000015 -0.0299999993 0.172999993
v 0.0326846801 -0.0315500014 0.172999993
v 0.0273153204 -0.0315500014 0.172999993
v 0.0269000009 -0.0299999993 0.172999993
v 0.0273153204 -0.0284499992 0.172999993
v 0 0 0.172999993
v 0 -0.056499999 0.172999993
v -0.0299999993 -0.0269000009 0.172999993
v -0.0284499992 -0.0273153204 0.172999993
v -0.0315500014 -0.0273153204 0.172999993
v -0.0273153204 -0.0284499992 0.172999993
v -0.0269000009 -0.0299999993 0.172999993
v -0.0212500002 -0.056499999 0.172999993
v -0.0273153204 -0.0315500014 0.172999993
v -0.0284499992 -0.0326846801 0.172999993
v -0.0299999993 -0.0331000015 0.172999993
v -0.0315500014 -0.0326846801 0.172999993
v -0.0415499993 -0.056499999 0.172999993
v -0.0326846801 -0.0315500014 0.172999993
v -0.0331000015 -0.0299999993 0.172999993
v -0.0326846801 -0.0284499992 0.172999993
v 0.0155999996 -0.0825000033 0.172999993
v 0.01525167 -0.0838000029 0.172999993
v 0.01525167 -0.0812000036 0.172999993
v 0.0142999999 -0.0802483335 0.172999993
v 0.0116999997 -0.0802483335 0.172999993
v 0.0130000003 -0.0798999965 0.172999993
v 0.0116999997 -0.084751673 0.172999993
v 0.0130000003 -0.0851000026 0.172999993
v 0.0142999999 -0.084751673 0.172999993
v 0.0107483296 -0.0838000029 0.172999993
v 0.0104 -0.0825000033 0.172999993
v 0.0107483296 -0.0812000036 0.172999993
v -0.0130000003 -0.0798999965 0.172999993
v -0.0116999997 -0.0802483335 0.172999993
v -0.0107483296 -0.0812000036 0.172999993
v -0.0104 -0.0825000033 0.172999993
v -0.0107483296 -0.0838000029 0.172999993
v -0.0142999999 -0.0802483335 0.172999993
v -0.0116999997 -0.084751673 0.172999993
v -0.0130000003 -0.0851000026 0.172999993
v -0.0212500002 -0.0874999985 0.172999993
v -0.0142999999 -0.084751673 0.172999993
v -0.01525167 -0.0838000029 0.172999993
v -0.0155999996 -0.0825000033 0.172999993
v -0.01525167 -0.0812000036 0.172999993
v 0.0104 -0.0925000012 0.172999993
v 0.0107483296 -0.0912000015 0.172999993
v 0.01525167 -0.0938000008 0.172999993
v 0.0107483296 -0.0938000008 0.172999993
v 0.0116999997 -0.0902483314 0.172999993
v 0.0130000003 -0.0899000019 0.172999993
v 0.0142999999 -0.0902483314 0.172999993
v 0.0142999999 -0.0947516635 0.172999993
v 0.0130000003 -0.0951000005 0.172999993
v 0 -0.0988000035 0.172999993
v 0.0116999997 -0.0947516635 0.172999993
v -0.0107483296 -0.0938000008 0.172999993
v -0.0116999997 -0.0947516635 0.172999993
v -0.0130000003 -0.0951000005 0.172999993
v -0.0212500002 -0.0988000035 0.172999993
v -0.01525167 -0.0912000015 0.172999993
v -0.0142999999 -0.0902483314 0.172999993
v -0.0130000003 -0.0899000019 0.172999993
v -0.0116999997 -0.0902483314 0.172999993
v -0.0142999999 -0.0947516635 0.172999993
v -0.01525167 -0.0938000008 0.172999993
v -0.0155999996 -0.0925000012 0.172999993
v -0.0415499993 -0.0874999985 0.172999993
v -0.0415499993 -0.0988000035 0.172999993
v -0.00304999994 0.0995827466 0.00300000003
v -0.00528276013 0.0973500013 0.00300000003
v -0.00609999988 0.0943000019 0.00300000003
v -0.00528276013 0.0912500024 0.00300000003
v -0.00304999994 0.0890172422 0.00300000003
v 0 0.0882000029 0.00300000003
v 0.00304999994 0.0890172422 0.00300000003
v 0.00528276013 0.0912500024 0.00300000003
v 0.00609999988 0.0943000019 0.00300000003
v 0.00528276013 0.0973500013 0.00300000003
v 0.00304999994 0.0995827466 0.00300000003
v 0 0.100400001 0.00300000003
v -0.0239000004 -0.0943000019 0.00300000003
v -0.0247172508 -0.0912500024 0.00300000003
v -0.0269499999 -0.0890172422 0.00300000003
v -0.0299999993 -0.0882000029 0.00300000003
v -0.0330500007 -0.0890172422 0.00300000003
v -0.0352827497 -0.0912500024 0.00300000003
v -0.0361000001 -0.0943000019 0.00300000003
v -0.0352827497 -0.0973500013 0.00300000003
v -0.0330500007 -0.0995827466 0.00300000003
v -0.0299999993 -0.100400001 0.00300000003
v -0.0269499999 -0.0995827466 0.00300000003
v -0.0247172508 -0.0973500013 0.00300000003
v 0.00609999988 -0.0943000019 0.00300000003
v 0.00528276013 -0.0912500024 0.00300000003
v 0.00304999994 -0.0890172422 0.00300000003
v 0 -0.0882000029 0.00300000003
v -0.00304999994 -0.0890172422 0.00300000003
v -0.00528276013 -0.0912500024 0.00300000003
v -0.00609999988 -0.0943000019 0.00300000003
v -0.00528276013 -0.0973500013 0.00300000003
v -0.00304999994 -0.0995827466 0.00300000003
v 0 -0.100400001 0.00300000003
v 0.00304999994 -0.0995827466 0.00300000003
v 0.00528276013 -0.0973500013 0.00300000003
v 0.0247172508 -0.0973500013 0.00300000003
v 0.0269499999 -0.0995827466 0.00300000003
v 0.0299999993 -0.100400001 0.00300000003
v 0.0330500007 -0.0995827466 0.00300000003
v 0.0352827497 -0.0973500013 0.00300000003
v 0.0361000001 -0.0943000019 0.00300000003
v 0.0352827497 -0.0912500024 0.00300000003
v 0.0330500007 -0.0890172422 0.00300000003
v 0.0299999993 -0.0882000029 0.00300000003
v 0.0269499999 -0.0890172422 0.00300000003
v 0.0247172508 -0.0912500024 0.00300000003
v 0.0239000004 -0.0943000019 0.00300000003
v 0.0361000001 0.0943000019 0.00300000003
v 0.0352827497 0.0973500013 0.00300000003
v 0.0330500007 0.0995827466 0.00300000003
v 0.0299999993 0.100400001 0.00300000003
v 0.0269499999 0.0995827466 0.00300000003
v 0.0247172508 0.0973500013 0.00300000003
v 0.0239000004 0.0943000019 0.00300000003
v 0.0247172508 0.0912500024 0.00300000003
v 0.0269499999 0.0890172422 0.00300000003
v 0.0299999993 0.0882000029 0.00300000003
v 0.0330500007 0.0890172422 0.00300000003
v 0.0352827497 0.0912500024 0.00300000003
v -0.0361000001 0.0943000019 0.00300000003
v -0.0352827497 0.0912500024 0.00300000003
v -0.0330500007 0.0890172422 0.00300000003
v -0.0299999993 0.0882000029 0.00300000003
v -0.0269499999 0.0890172422 0.00300000003
v -0.0247172508 0.0912500024 0.00300000003
v -0.0239000004 0.0943000019 0.00300000003
v -0.0247172508 0.0973500013 0.00300000003
v -0.0269499999 0.0995827466 0.00300000003
v -0.0299999993 0.100400001 0.00300000003
v -0.0330500007 0.0995827466 0.00300000003
v -0.0352827497 0.0973500013 0.00300000003
v -0.0256481692 0.0276327096 0.00700000022
v -0.0268402193 0.0288380999 0.00700000022
v -0.0496728793 0.0273027103 0.00700000022
v -0.0272698607 0.0304780193 0.00700000022
v -0.0496266708 0.0356025808 0.00700000022
v -0.0268219803 0.0321130492 0.00700000022
v -0.0256165899 0.0333050899 0.00700000022
v -0.0239766706 0.0337347314 0.00700000022
v 0.0505217686 0.0350449607 0.00700000022
v -0.0223416407 0.0332868584 0.00700000022
v -0.0211495999 0.0320814699 0.00700000022
v 0.0276796408 0.0318095908 0.00700000022
v 0.0504755601 0.0267450791 0.00700000022
v 0.0281092804 0.0301696695 0.00700000022
v 0.0276613999 0.0285346396 0.00700000022
v 0.0248160996 0.0269129593 0.00700000022
v 0.0231810696 0.0273608305 0.00700000022
v -0.0240131393 0.0271848291 0.00700000022
v 0.0220072605 0.03184117 0.00700000022
v 0.02155938 0.0302061401 0.00700000022
v -0.0207199603 0.0304415505 0.00700000022
v 0.0219890308 0.0285662208 0.00700000022
v -0.0211678408 0.0288065206 0.00700000022
v -0.0223732293 0.0276144799 0.00700000022
v 0.0264560208 0.0273426007 0.00700000022
v 0.0232126508 0.0330332108 0.00700000022
v 0.0248525701 0.0334628485 0.00700000022
v 0.0264876001 0.0330149792 0.00700000022
v -0.0243973304 -0.0418141 0.00700000022
v -0.0260323603 -0.0413662195 0.00700000022
v -0.0500665307 -0.043396201 0.00700000022
v -0.0272243991 -0.0401608311 0.00700000022
v -0.0500203185 -0.0350963213 0.00700000022
v -0.0276540406 -0.0385209098 0.00700000022
v -0.0272061601 -0.0368858799 0.00700000022
v -0.0243608598 -0.0352642015 0.00700000022
v -0.0227258299 -0.0357120708 0.00700000022
v 0.0244683791 -0.0355360806 0.00700000022
v -0.0215337891 -0.0369174592 0.00700000022
v 0.0228284709 -0.0359657183 0.00700000022
v -0.0260007791 -0.0356938392 0.00700000022
v 0.0501281209 -0.0356539488 0.00700000022
v 0.0261034109 -0.0359839499 0.00700000022
v 0.0272954609 -0.0371893384 0.00700000022
v 0.0277251005 -0.0388292596 0.00700000022
v 0.0500819087 -0.0439538211 0.00700000022
v 0.02727722 -0.0404642895 0.00700000022
v 0.0260718297 -0.0416563302 0.00700000022
v 0.0244319104 -0.0420859791 0.00700000022
v 0.0227968805 -0.0416380987 0.00700000022
v -0.0227574091 -0.0413844511 0.00700000022
v -0.0215520207 -0.0401924103 0.00700000022
v 0.0216048397 -0.0404327102 0.00700000022
v -0.0211041402 -0.0385573804 0.00700000022
v 0.0211752001 -0.038792789 0.00700000022
v 0.0216230806 -0.0371577591 0.00700000022
v 0.0219890308 0.0285662208 0.00499999989
v 0.0231810696 0.0273608305 0.00499999989
v -0.0211678408 0.0288065206 0.00499999989
v 0.0500819087 -0.0439538211 0.00499999989
v -0.0500665307 -0.043396201 0.00499999989
v 0.0244319104 -0.0420859791 0.00499999989
v 0.0227968805 -0.0416380987 0.00499999989
v 0.0216230806 -0.0371577591 0.00499999989
v 0.0211752001 -0.038792789 0.00499999989
v -0.0215520207 -0.0401924103 0.00499999989
v 0.0281092804 0.0301696695 0.00499999989
v 0.0276796408 0.0318095908 0.00499999989
v 0.0505217686 0.0350449607 0.00499999989
v 0.0264876001 0.0330149792 0.00499999989
v 0.0248525701 0.0334628485 0.00499999989
v -0.0276540406 -0.0385209098 0.00499999989
v -0.0272243991 -0.0401608311 0.00499999989
v -0.0227574091 -0.0413844511 0.00499999989
v 0.0260718297 -0.0416563302 0.00499999989
v 0.02727722 -0.0404642895 0.00499999989
v 0.0277251005 -0.0388292596 0.00499999989
v 0.0228284709 -0.0359657183 0.00499999989
v 0.0244683791 -0.0355360806 0.00499999989
v 0.0248160996 0.0269129593 0.00499999989
v 0.0261034109 -0.0359839499 0.00499999989
v -0.0260323603 -0.0413662195 0.00499999989
v -0.0243973304 -0.0418141 0.00499999989
v 0.0216048397 -0.0404327102 0.00499999989
v 0.0276613999 0.0285346396 0.00499999989
v 0.0264560208 0.0273426007 0.00499999989
v 0.0272954609 -0.0371893384 0.00499999989
v 0.0232126508 0.0330332108 0.00499999989
v 0.0220072605 0.03184117 0.00499999989
v -0.0223416407 0.0332868584 0.00499999989
v -0.0215337891 -0.0369174592 0.00499999989
v -0.0240131393 0.0271848291 0.00499999989
v -0.0211041402 -0.0385573804 0.00499999989
v -0.0223732293 0.0276144799 0.00499999989
v -0.0227258299 -0.0357120708 0.00499999989
v -0.0243608598 -0.0352642015 0.00499999989
v -0.0256481692 0.0276327096 0.00499999989
v -0.0260007791 -0.0356938392 0.00499999989
v -0.0272061601 -0.0368858799 0.00499999989
v 0.02155938 0.0302061401 0.00499999989
v -0.0207199603 0.0304415505 0.00499999989
v -0.0211495999 0.0320814699 0.00499999989
v -0.0256165899 0.0333050899 0.00499999989
v -0.0496266708 0.0356025808 0.00499999989
v -0.0239766706 0.0337347314 0.00499999989
v -0.0268219803 0.0321130492 0.00499999989
v -0.0272698607 0.0304780193 0.00499999989
v -0.0268402193 0.0288380999 0.00499999989
v -0.0496728793 0.0273027103 0.0458500013
v -0.0500203185 -0.0350963213 0.0458500013
v 0.0501281209 -0.0356539488 0.0458500013
v 0.0504755601 0.0267450791 0.0458500013
f 1 2 3
f 3 2 4
f 3 4 5
f 5 4 6
f 5 6 7
f 7 6 8
f 7 8 9
f 9 8 10
f 9 10 11
f 11 10 12
f 11 12 13
f 13 12 14
f 13 14 15
f 15 14 16
f 15 16 17
f 17 16 18
f 17 18 19
f 19 18 20
f 19 20 21
f 21 20 22
f 21 22 23
f 23 22 24
f 23 24 1
f 1 24 2
f 25 26 27
f 27 26 28
f 27 28 29
f 29 28 30
f 29 30 31
f 31 30 32
f 31 32 33
f 33 32 34
f 33 34 35
f 35 34 36
f 35 36 37
f 37 36 38
f 37 38 39
f 39 38 40
f 39 40 41
f 41 40 42
f 41 42 43
f 43 42 44
f 43 44 45
f 45 44 46
f 45 46 47
f 47 46 48
f 47 48 25
f 25 48 26
f 49 50 51
f 51 50 52
f 51 52 53
f 53 52 54
f 53 54 55
f 55 54 56
f 55 56 57
f 57 56 58
f 57 58 59
f 59 58 60
f 59 60 61
f 61 60 62
f 61 62 63
f 63 62 64
f 63 64 65
f 65 64 66
f 65 66 67
f 67 66 68
f 67 68 69
f 69 68 70
f 69 70 71
f 71 70 72
f 71 72 49
f 49 72 50
f 73 74 75
f 76 77 78
f 79 80 81
f 82 83 84
f 85 86 79
f 87 88 89
f 89 88 90
f 89 90 91
f 92 93 94
f 94 93 95
f 94 95 96
f 94 97 92
f 92 97 98
f 92 98 99
f 99 98 100
f 99 100 90
f 90 100 101
f 90 101 91
f 87 102 88
f 88 102 103
f 88 103 95
f 95 103 104
f 95 104 96
f 105 106 107
f 106 108 109
f 110 111 75
f 75 111 112
f 108 113 109
f 109 113 114
f 109 114 115
f 114 116 115
f 115 116 117
f 115 117 75
f 75 117 118
f 75 118 110
f 105 107 119
f 119 107 120
f 119 120 112
f 112 120 121
f 112 121 75
f 106 109 107
f 107 109 122
f 107 122 123
f 124 125 126
f 126 125 127
f 126 127 128
f 129 78 127
f 127 78 77
f 127 77 128
f 130 131 132
f 132 131 133
f 132 133 134
f 134 133 76
f 134 76 135
f 135 76 78
f 136 137 138
f 138 137 131
f 138 131 139
f 139 131 130
f 136 140 137
f 137 140 141
f 137 141 127
f 127 141 142
f 127 142 129
f 143 144 145
f 146 147 148
f 149 150 151
f 151 150 152
f 151 152 153
f 147 154 148
f 148 154 155
f 148 155 149
f 149 155 156
f 149 156 150
f 153 157 151
f 151 157 158
f 151 158 143
f 143 158 159
f 143 159 160
f 160 159 161
f 160 161 162
f 162 84 163
f 163 84 83
f 163 83 164
f 115 165 109
f 109 165 166
f 109 166 167
f 167 166 168
f 167 168 169
f 169 168 170
f 169 170 127
f 127 170 171
f 127 171 137
f 137 171 172
f 137 172 173
f 75 74 115
f 115 74 174
f 115 174 175
f 175 176 115
f 115 176 88
f 115 88 165
f 176 177 88
f 88 177 178
f 88 178 90
f 90 178 179
f 90 179 180
f 180 181 90
f 90 181 182
f 90 182 75
f 75 182 183
f 75 183 73
f 184 122 185
f 185 122 109
f 185 109 186
f 186 109 167
f 187 188 189
f 187 189 190
f 190 189 186
f 190 186 191
f 188 192 169
f 169 192 193
f 193 194 169
f 169 194 195
f 169 195 167
f 167 195 196
f 196 197 167
f 167 197 198
f 167 198 186
f 186 198 199
f 186 199 191
f 200 201 202
f 202 201 203
f 204 205 206
f 206 205 207
f 206 207 208
f 204 209 205
f 205 209 210
f 205 210 211
f 211 210 212
f 203 213 202
f 202 213 214
f 202 214 207
f 207 214 215
f 207 215 208
f 212 200 211
f 211 200 202
f 211 202 216
f 216 202 95
f 216 95 85
f 85 95 93
f 217 218 169
f 125 219 127
f 127 219 220
f 127 220 221
f 188 169 189
f 189 169 218
f 189 218 222
f 221 223 127
f 127 223 224
f 127 224 169
f 169 224 225
f 169 225 217
f 222 226 189
f 189 226 227
f 189 227 125
f 125 227 228
f 125 228 219
f 148 229 230
f 161 146 162
f 162 146 148
f 162 148 84
f 84 148 230
f 84 230 231
f 231 232 84
f 84 232 233
f 84 233 205
f 234 235 207
f 207 235 236
f 207 236 148
f 148 236 237
f 148 237 229
f 233 238 205
f 205 238 239
f 205 239 207
f 207 239 240
f 207 240 234
f 85 79 216
f 216 79 81
f 216 81 211
f 211 81 241
f 211 241 205
f 205 241 242
f 205 242 84
f 84 242 243
f 84 243 82
f 244 245 149
f 246 247 131
f 131 247 248
f 131 248 151
f 151 248 249
f 249 250 151
f 151 250 251
f 151 251 149
f 149 251 252
f 149 252 244
f 245 137 149
f 149 137 173
f 149 173 148
f 148 173 253
f 148 253 207
f 207 253 254
f 207 254 202
f 202 254 255
f 202 255 95
f 95 255 256
f 95 256 88
f 88 256 257
f 88 257 165
f 245 258 137
f 137 258 259
f 137 259 131
f 131 259 260
f 131 260 246
f 143 145 151
f 151 145 261
f 151 261 131
f 131 261 262
f 131 262 133
f 263 264 265
f 266 267 268
f 268 267 269
f 263 268 264
f 264 268 269
f 264 269 124
f 124 269 270
f 124 270 125
f 125 270 271
f 125 271 189
f 272 273 274
f 274 273 275
f 274 275 276
f 276 275 277
f 276 277 265
f 265 277 278
f 265 278 263
f 189 271 186
f 186 271 279
f 186 279 185
f 185 279 280
f 185 280 184
f 184 280 281
f 184 281 272
f 272 281 282
f 272 282 273
f 283 284 285
f 285 284 286
f 285 286 287
f 287 286 288
f 287 288 289
f 289 288 290
f 289 290 291
f 291 290 282
f 291 282 121
f 283 99 284
f 284 99 292
f 284 292 293
f 293 292 294
f 282 281 121
f 121 281 295
f 121 295 75
f 75 295 296
f 75 296 90
f 90 296 297
f 90 297 99
f 99 297 298
f 99 298 292
f 299 300 301
f 301 300 302
f 303 304 305
f 305 304 293
f 305 293 80
f 293 294 80
f 80 294 306
f 80 306 81
f 81 306 307
f 81 307 241
f 308 309 310
f 310 309 311
f 310 311 312
f 312 311 313
f 312 313 303
f 303 313 314
f 303 314 304
f 241 307 242
f 242 307 315
f 242 315 243
f 243 315 316
f 243 316 82
f 82 316 299
f 82 299 308
f 308 299 301
f 308 301 309
f 317 166 318
f 318 166 165
f 318 165 319
f 319 165 257
f 319 257 320
f 320 257 256
f 321 171 322
f 322 171 170
f 322 170 323
f 323 170 168
f 323 168 317
f 317 168 166
f 324 253 325
f 325 253 173
f 325 173 326
f 326 173 172
f 326 172 321
f 321 172 171
f 327 328 329
f 329 328 330
f 329 330 331
f 331 330 332
f 331 332 333
f 333 332 334
f 333 334 335
f 335 334 336
f 335 336 337
f 337 336 338
f 337 338 339
f 339 338 340
f 339 340 341
f 341 340 342
f 341 342 343
f 343 342 344
f 343 344 345
f 345 344 346
f 345 346 347
f 347 346 348
f 347 348 349
f 349 348 350
f 349 350 327
f 327 350 328
f 351 352 353
f 353 352 354
f 353 354 355
f 355 354 356
f 355 356 357
f 357 356 358
f 357 358 359
f 359 358 360
f 359 360 361
f 361 360 362
f 361 362 363
f 363 362 364
f 363 364 365
f 365 364 366
f 365 366 367
f 367 366 368
f 367 368 369
f 369 368 370
f 369 370 371
f 371 370 372
f 371 372 373
f 373 372 374
f 373 374 351
f 351 374 352
f 375 267 262
f 262 267 266
f 262 266 376
f 376 266 377
f 378 302 379
f 379 302 300
f 375 262 380
f 380 262 261
f 380 261 381
f 381 261 145
f 381 145 382
f 382 145 144
f 382 144 379
f 379 144 378
f 378 144 383
f 378 383 384
f 384 383 385
f 384 385 386
f 386 385 387
f 386 387 377
f 377 387 388
f 377 388 376
f 320 256 389
f 389 256 255
f 389 255 390
f 390 255 254
f 390 254 324
f 324 254 253
f 391 392 393
f 393 392 394
f 393 394 395
f 395 394 396
f 395 396 397
f 397 396 398
f 397 398 399
f 399 398 400
f 399 400 401
f 401 400 402
f 401 402 403
f 403 402 404
f 403 404 405
f 405 404 406
f 405 406 407
f 407 406 408
f 407 408 409
f 409 408 410
f 409 410 411
f 411 410 412
f 411 412 413
f 413 412 414
f 413 414 391
f 391 414 392
f 379 300 299
f 382 379 415
f 416 322 323
f 322 416 321
f 321 416 417
f 321 417 326
f 326 417 418
f 326 418 325
f 325 418 419
f 325 419 324
f 324 419 420
f 324 420 390
f 420 421 390
f 390 421 422
f 390 422 389
f 389 422 320
f 320 422 423
f 320 423 319
f 319 423 424
f 319 424 318
f 318 424 425
f 318 425 317
f 317 425 426
f 317 426 323
f 323 426 427
f 323 427 416
f 382 428 381
f 381 428 429
f 381 429 380
f 380 429 430
f 380 430 375
f 375 430 431
f 375 431 267
f 356 354 418
f 418 354 430
f 430 354 352
f 430 352 374
f 356 418 358
f 358 418 417
f 358 417 360
f 374 372 430
f 430 372 370
f 430 370 431
f 431 370 368
f 368 366 431
f 431 366 364
f 431 364 417
f 417 364 362
f 417 362 360
f 30 28 419
f 419 28 429
f 429 28 26
f 429 26 48
f 48 46 429
f 429 46 44
f 429 44 430
f 430 44 42
f 30 419 32
f 32 419 418
f 32 418 34
f 42 40 430
f 430 40 38
f 430 38 418
f 418 38 36
f 418 36 34
f 420 52 428
f 428 52 50
f 428 50 72
f 66 429 68
f 68 429 428
f 68 428 70
f 70 428 72
f 60 419 62
f 62 419 429
f 62 429 64
f 64 429 66
f 60 58 419
f 419 58 56
f 419 56 420
f 420 56 54
f 420 54 52
f 432 433 417
f 267 431 269
f 269 431 417
f 269 417 270
f 270 417 433
f 270 433 434
f 435 436 416
f 416 436 437
f 434 438 270
f 270 438 439
f 270 439 271
f 271 439 440
f 271 440 435
f 437 441 416
f 416 441 442
f 416 442 417
f 417 442 443
f 417 443 432
f 444 445 446
f 382 415 428
f 428 415 446
f 428 446 420
f 420 446 445
f 420 445 447
f 448 449 450
f 450 449 451
f 447 452 420
f 420 452 453
f 420 453 421
f 421 453 454
f 421 454 448
f 451 455 450
f 450 455 456
f 450 456 446
f 446 456 457
f 446 457 444
f 458 459 416
f 435 416 271
f 271 416 459
f 271 459 460
f 461 462 427
f 427 462 463
f 460 464 271
f 271 464 465
f 271 465 279
f 279 465 466
f 279 466 461
f 463 467 427
f 427 467 468
f 427 468 416
f 416 468 469
f 416 469 458
f 470 471 450
f 448 450 421
f 421 450 471
f 421 471 472
f 473 474 422
f 472 475 421
f 421 475 476
f 421 476 422
f 422 476 477
f 422 477 473
f 474 478 479
f 478 480 479
f 479 480 481
f 479 481 450
f 450 481 482
f 450 482 470
f 461 427 279
f 279 427 426
f 279 426 280
f 280 426 295
f 280 295 281
f 10 8 295
f 295 8 296
f 8 6 296
f 296 6 4
f 296 4 425
f 425 4 2
f 425 2 24
f 24 22 425
f 425 22 20
f 425 20 426
f 426 20 18
f 18 16 426
f 426 16 14
f 426 14 295
f 295 14 12
f 295 12 10
f 394 392 424
f 424 392 414
f 414 412 424
f 424 412 410
f 424 410 425
f 425 410 408
f 402 296 404
f 404 296 425
f 404 425 406
f 406 425 408
f 402 400 296
f 296 400 398
f 296 398 297
f 297 398 396
f 332 330 298
f 298 330 328
f 298 328 423
f 423 328 350
f 350 348 423
f 423 348 346
f 423 346 424
f 424 346 344
f 424 344 342
f 342 340 424
f 424 340 297
f 424 297 394
f 394 297 396
f 340 338 297
f 297 338 336
f 297 336 298
f 298 336 334
f 298 334 332
f 474 479 422
f 422 479 483
f 422 483 423
f 423 483 292
f 423 292 298
f 379 299 415
f 415 299 316
f 415 316 446
f 446 316 315
f 446 315 450
f 450 315 307
f 450 307 479
f 479 307 306
f 479 306 483
f 483 306 294
f 483 294 292
f 262 376 133
f 133 376 484
f 133 484 76
f 76 484 77
f 77 484 485
f 77 485 128
f 486 264 126
f 126 264 124
f 486 126 487
f 487 126 128
f 487 128 485
f 488 291 120
f 120 291 121
f 123 489 107
f 107 489 488
f 107 488 120
f 122 490 123
f 123 490 489
f 272 490 184
f 184 490 122
f 491 305 79
f 79 305 80
f 492 491 86
f 86 491 79
f 283 493 99
f 99 493 92
f 494 492 86
f 92 493 93
f 93 493 494
f 93 494 85
f 85 494 86
f 164 495 163
f 163 495 496
f 163 496 162
f 162 496 497
f 162 497 160
f 160 497 143
f 143 497 383
f 143 383 144
f 308 498 82
f 82 498 83
f 495 164 499
f 499 164 83
f 499 83 498
f 500 501 502
f 490 272 274
f 498 308 310
f 387 385 503
f 488 489 490
f 487 485 484
f 504 289 291
f 283 285 493
f 493 285 502
f 493 502 494
f 496 505 497
f 497 505 503
f 497 503 383
f 383 503 385
f 506 507 508
f 509 510 511
f 510 512 511
f 511 512 513
f 511 513 514
f 514 513 515
f 514 515 516
f 516 517 514
f 514 517 518
f 514 518 388
f 517 519 518
f 518 519 520
f 518 520 508
f 508 520 521
f 508 521 506
f 522 523 503
f 522 503 524
f 525 526 511
f 511 526 527
f 511 527 528
f 528 527 529
f 528 529 530
f 523 531 503
f 503 531 514
f 503 514 387
f 387 514 388
f 531 532 514
f 514 532 533
f 514 533 511
f 511 533 534
f 511 534 525
f 505 535 503
f 503 535 528
f 503 528 524
f 524 528 530
f 265 264 486
f 536 537 511
f 538 539 540
f 541 542 508
f 540 543 544
f 544 543 545
f 544 545 511
f 511 545 546
f 511 546 536
f 507 509 508
f 508 509 511
f 508 511 541
f 541 511 537
f 542 547 508
f 508 547 548
f 508 548 538
f 538 548 549
f 538 549 539
f 550 551 552
f 553 554 528
f 528 554 555
f 550 552 556
f 557 511 558
f 558 511 528
f 558 528 559
f 559 528 555
f 557 560 511
f 511 560 561
f 511 561 544
f 544 561 562
f 544 562 556
f 551 553 552
f 552 553 528
f 552 528 563
f 563 528 535
f 563 535 498
f 498 535 505
f 498 505 499
f 499 505 496
f 499 496 495
f 564 565 538
f 376 388 484
f 484 388 518
f 484 518 487
f 487 518 508
f 487 508 486
f 486 508 538
f 486 538 265
f 265 538 565
f 265 565 566
f 566 567 265
f 265 567 568
f 265 568 276
f 568 569 276
f 276 569 570
f 276 570 571
f 571 570 572
f 571 572 573
f 573 574 571
f 571 574 575
f 571 575 538
f 538 575 576
f 538 576 564
f 563 577 578
f 578 577 579
f 578 580 563
f 563 580 581
f 563 581 552
f 552 581 582
f 552 582 583
f 584 585 586
f 586 585 552
f 586 552 587
f 587 552 583
f 584 588 585
f 585 588 589
f 585 589 577
f 577 589 590
f 577 590 579
f 591 592 593
f 594 571 595
f 595 571 593
f 596 274 597
f 597 274 276
f 597 276 598
f 592 599 593
f 593 599 600
f 593 600 595
f 594 601 571
f 571 601 602
f 571 602 276
f 276 602 603
f 276 603 598
f 604 605 606
f 607 608 609
f 609 608 610
f 609 610 577
f 610 611 577
f 577 611 612
f 577 612 585
f 585 612 613
f 585 613 614
f 614 615 585
f 585 615 616
f 585 616 606
f 606 616 617
f 606 617 604
f 291 488 504
f 504 488 490
f 504 490 593
f 593 490 274
f 593 274 591
f 591 274 596
f 618 619 504
f 620 621 622
f 621 623 622
f 622 623 624
f 622 624 625
f 625 624 626
f 625 626 627
f 628 629 593
f 593 629 630
f 593 630 504
f 504 630 631
f 504 631 618
f 540 544 538
f 538 544 632
f 538 632 571
f 571 632 625
f 571 625 593
f 593 625 627
f 593 627 628
f 502 501 606
f 633 634 625
f 635 636 622
f 622 636 637
f 622 637 502
f 502 637 638
f 502 638 500
f 501 639 606
f 606 639 640
f 606 640 641
f 625 634 622
f 622 634 642
f 622 642 635
f 556 552 544
f 544 552 585
f 544 585 632
f 632 585 606
f 632 606 625
f 625 606 641
f 625 641 633
f 494 502 643
f 643 502 606
f 643 606 609
f 609 606 605
f 609 605 607
f 303 305 491
f 498 310 563
f 563 310 312
f 563 312 577
f 577 312 303
f 577 303 609
f 609 303 491
f 609 491 643
f 643 491 492
f 643 492 494
f 644 645 622
f 289 646 647
f 648 649 504
f 289 647 287
f 647 650 287
f 287 650 651
f 287 651 622
f 622 651 652
f 622 652 644
f 619 620 504
f 504 620 622
f 504 622 648
f 648 622 645
f 649 653 504
f 504 653 654
f 504 654 289
f 289 654 655
f 289 655 646
f 287 656 285
f 285 656 657
f 657 658 285
f 285 658 659
f 285 659 502
f 502 659 660
f 502 660 661
f 662 622 663
f 663 622 502
f 663 502 664
f 664 502 661
f 662 665 622
f 622 665 666
f 622 666 287
f 287 666 667
f 287 667 656
f 266 268 668
f 669 670 671
f 672 673 674
f 675 676 677
f 282 290 273
f 273 290 678
f 273 678 275
f 678 679 680
f 679 678 681
f 681 678 290
f 681 290 682
f 288 683 290
f 290 683 684
f 290 684 682
f 685 677 686
f 686 677 678
f 686 678 687
f 687 678 680
f 685 688 677
f 677 688 689
f 677 689 288
f 288 689 690
f 288 690 683
f 677 691 692
f 691 677 693
f 693 677 288
f 693 288 694
f 694 288 695
f 695 288 286
f 695 286 696
f 692 697 677
f 677 697 698
f 677 698 699
f 699 698 700
f 700 701 699
f 699 701 702
f 699 702 286
f 286 702 703
f 286 703 696
f 704 705 706
f 706 705 707
f 708 709 677
f 708 677 710
f 709 711 677
f 677 711 712
f 677 712 678
f 678 712 713
f 678 713 714
f 715 716 717
f 717 716 710
f 710 677 717
f 717 677 676
f 717 676 718
f 719 720 699
f 699 720 721
f 699 721 677
f 677 721 722
f 677 722 675
f 723 724 725
f 724 726 725
f 725 726 727
f 725 727 699
f 699 727 728
f 699 728 719
f 729 730 706
f 714 704 678
f 678 704 706
f 678 706 275
f 275 706 730
f 275 730 731
f 731 732 275
f 275 732 733
f 275 733 277
f 277 733 734
f 277 734 735
f 735 736 737
f 737 736 738
f 738 739 737
f 737 739 740
f 737 740 706
f 706 740 741
f 706 741 729
f 742 743 725
f 725 743 744
f 744 745 725
f 725 745 746
f 725 746 747
f 746 748 747
f 747 748 749
f 747 749 750
f 751 752 753
f 753 752 754
f 750 755 751
f 751 755 756
f 751 756 752
f 754 742 753
f 753 742 725
f 753 725 757
f 757 725 699
f 757 699 284
f 284 699 286
f 758 759 760
f 760 759 761
f 737 762 763
f 735 737 277
f 277 737 763
f 277 763 764
f 764 765 277
f 277 765 766
f 277 766 278
f 278 766 767
f 761 768 760
f 760 768 769
f 760 769 737
f 737 769 770
f 737 770 762
f 707 715 706
f 706 715 717
f 706 717 737
f 737 717 771
f 737 771 760
f 760 771 772
f 773 774 747
f 750 751 747
f 747 751 775
f 747 775 773
f 774 776 747
f 747 776 777
f 747 777 778
f 778 777 779
f 778 779 780
f 781 782 783
f 782 784 783
f 783 784 785
f 783 785 751
f 751 785 786
f 751 786 775
f 767 758 278
f 278 758 760
f 278 760 263
f 263 760 674
f 263 674 268
f 674 787 788
f 787 674 789
f 789 674 760
f 789 760 790
f 772 791 760
f 760 791 792
f 760 792 790
f 793 671 794
f 794 671 674
f 794 674 795
f 795 674 788
f 793 796 671
f 671 796 797
f 671 797 772
f 772 797 798
f 772 798 791
f 799 800 772
f 772 800 801
f 772 801 671
f 671 801 802
f 671 802 803
f 804 799 778
f 778 799 772
f 778 772 747
f 747 772 771
f 747 771 725
f 725 771 717
f 725 717 723
f 723 717 718
f 803 805 671
f 671 805 806
f 671 806 807
f 807 806 808
f 808 809 807
f 807 809 810
f 807 810 778
f 778 810 811
f 778 811 804
f 812 813 671
f 268 674 668
f 668 674 673
f 668 673 814
f 812 671 815
f 813 816 671
f 671 816 817
f 671 817 674
f 674 817 818
f 674 818 672
f 814 819 668
f 668 819 820
f 668 820 821
f 821 820 822
f 821 822 815
f 815 671 821
f 821 671 670
f 821 670 823
f 823 824 821
f 821 824 825
f 821 825 826
f 827 828 807
f 807 828 829
f 807 829 671
f 671 829 830
f 671 830 669
f 825 831 826
f 826 831 832
f 826 832 807
f 807 832 833
f 807 833 827
f 266 668 377
f 377 668 821
f 377 821 386
f 386 821 826
f 386 826 384
f 780 781 778
f 778 781 783
f 778 783 807
f 807 783 834
f 807 834 826
f 826 834 835
f 826 835 384
f 384 835 378
f 284 293 757
f 757 293 304
f 757 304 753
f 753 304 314
f 753 314 751
f 751 314 313
f 751 313 783
f 783 313 311
f 783 311 834
f 834 311 309
f 834 309 835
f 835 309 301
f 835 301 378
f 378 301 302
f 616 746 617
f 617 746 745
f 617 745 604
f 604 745 744
f 604 744 605
f 605 744 743
f 605 743 607
f 607 743 742
f 607 742 608
f 608 742 754
f 608 754 610
f 610 754 752
f 610 752 611
f 611 752 756
f 611 756 612
f 612 756 755
f 612 755 613
f 613 755 750
f 613 750 614
f 614 750 749
f 614 749 615
f 615 749 748
f 615 748 616
f 616 748 746
f 568 766 569
f 569 766 765
f 569 765 570
f 570 765 764
f 570 764 572
f 572 764 763
f 572 763 573
f 573 763 762
f 573 762 574
f 574 762 770
f 574 770 575
f 575 770 769
f 575 769 576
f 576 769 768
f 576 768 564
f 564 768 761
f 564 761 565
f 565 761 759
f 565 759 566
f 566 759 758
f 566 758 567
f 567 758 767
f 567 767 568
f 568 767 766
f 597 733 596
f 596 733 732
f 596 732 591
f 591 732 731
f 591 731 592
f 592 731 730
f 592 730 599
f 599 730 729
f 599 729 600
f 600 729 741
f 600 741 595
f 595 741 740
f 595 740 594
f 594 740 739
f 594 739 601
f 601 739 738
f 601 738 602
f 602 738 736
f 602 736 603
f 603 736 735
f 603 735 598
f 598 735 734
f 598 734 597
f 597 734 733
f 586 777 584
f 584 777 776
f 584 776 588
f 588 776 774
f 588 774 589
f 589 774 773
f 589 773 590
f 590 773 775
f 590 775 579
f 579 775 786
f 579 786 578
f 578 786 785
f 578 785 580
f 580 785 784
f 580 784 581
f 581 784 782
f 581 782 582
f 582 782 781
f 582 781 583
f 583 781 780
f 583 780 587
f 587 780 779
f 587 779 586
f 586 779 777
f 476 214 477
f 477 214 213
f 477 213 473
f 473 213 203
f 473 203 474
f 474 203 201
f 474 201 478
f 478 201 200
f 478 200 480
f 480 200 212
f 480 212 481
f 481 212 210
f 481 210 482
f 482 210 209
f 482 209 470
f 470 209 204
f 470 204 471
f 471 204 206
f 471 206 472
f 472 206 208
f 472 208 475
f 475 208 215
f 475 215 476
f 476 215 214
f 465 190 466
f 466 190 191
f 466 191 461
f 461 191 199
f 461 199 462
f 462 199 198
f 462 198 463
f 463 198 197
f 463 197 467
f 467 197 196
f 467 196 468
f 468 196 195
f 468 195 469
f 469 195 194
f 469 194 458
f 458 194 193
f 458 193 459
f 459 193 192
f 459 192 460
f 460 192 188
f 460 188 464
f 464 188 187
f 464 187 465
f 465 187 190
f 439 227 440
f 440 227 226
f 440 226 435
f 435 226 222
f 435 222 436
f 436 222 218
f 436 218 437
f 437 218 217
f 437 217 441
f 441 217 225
f 441 225 442
f 442 225 224
f 442 224 443
f 443 224 223
f 443 223 432
f 432 223 221
f 432 221 433
f 433 221 220
f 433 220 434
f 434 220 219
f 434 219 438
f 438 219 228
f 438 228 439
f 439 228 227
f 453 236 454
f 454 236 235
f 454 235 448
f 448 235 234
f 448 234 449
f 449 234 240
f 449 240 451
f 451 240 239
f 451 239 455
f 455 239 238
f 455 238 456
f 456 238 233
f 456 233 457
f 457 233 232
f 457 232 444
f 444 232 231
f 444 231 445
f 445 231 230
f 445 230 447
f 447 230 229
f 447 229 452
f 452 229 237
f 452 237 453
f 453 237 236
f 395 836 393
f 393 836 837
f 393 837 391
f 391 837 838
f 391 838 413
f 413 838 839
f 413 839 411
f 411 839 840
f 411 840 409
f 409 840 841
f 409 841 407
f 407 841 842
f 407 842 405
f 405 842 843
f 405 843 403
f 403 843 844
f 403 844 401
f 401 844 845
f 401 845 399
f 399 845 846
f 399 846 397
f 397 846 847
f 397 847 395
f 395 847 836
f 844 74 845
f 845 74 73
f 845 73 846
f 846 73 183
f 846 183 847
f 847 183 182
f 847 182 836
f 836 182 181
f 836 181 837
f 837 181 180
f 837 180 838
f 838 180 179
f 838 179 839
f 839 179 178
f 839 178 840
f 840 178 177
f 840 177 841
f 841 177 176
f 841 176 842
f 842 176 175
f 842 175 843
f 843 175 174
f 843 174 844
f 844 174 74
f 848 152 849
f 849 152 150
f 849 150 850
f 850 150 156
f 850 156 851
f 851 156 155
f 851 155 852
f 852 155 154
f 852 154 853
f 853 154 147
f 853 147 854
f 854 147 146
f 854 146 855
f 855 146 161
f 855 161 856
f 856 161 159
f 856 159 857
f 857 159 158
f 857 158 858
f 858 158 157
f 858 157 859
f 859 157 153
f 859 153 848
f 848 153 152
f 49 854 71
f 71 854 855
f 71 855 69
f 69 855 856
f 69 856 67
f 67 856 857
f 67 857 65
f 65 857 858
f 65 858 63
f 63 858 859
f 63 859 61
f 61 859 848
f 61 848 59
f 59 848 849
f 59 849 57
f 57 849 850
f 57 850 55
f 55 850 851
f 55 851 53
f 53 851 852
f 53 852 51
f 51 852 853
f 51 853 49
f 49 853 854
f 860 260 861
f 861 260 259
f 861 259 862
f 862 259 258
f 862 258 863
f 863 258 245
f 863 245 864
f 864 245 244
f 864 244 865
f 865 244 252
f 865 252 866
f 866 252 251
f 866 251 867
f 867 251 250
f 867 250 868
f 868 250 249
f 868 249 869
f 869 249 248
f 869 248 870
f 870 248 247
f 870 247 871
f 871 247 246
f 871 246 860
f 860 246 260
f 29 864 27
f 27 864 865
f 27 865 25
f 25 865 866
f 25 866 47
f 47 866 867
f 47 867 45
f 45 867 868
f 45 868 43
f 43 868 869
f 43 869 41
f 41 869 870
f 41 870 39
f 39 870 871
f 39 871 37
f 37 871 860
f 37 860 35
f 35 860 861
f 35 861 33
f 33 861 862
f 33 862 31
f 31 862 863
f 31 863 29
f 29 863 864
f 373 872 371
f 371 872 873
f 371 873 369
f 369 873 874
f 369 874 367
f 367 874 875
f 367 875 365
f 365 875 876
f 365 876 363
f 363 876 877
f 363 877 361
f 361 877 878
f 361 878 359
f 359 878 879
f 359 879 357
f 357 879 880
f 357 880 355
f 355 880 881
f 355 881 353
f 353 881 882
f 353 882 351
f 351 882 883
f 351 883 373
f 373 883 872
f 877 78 878
f 878 78 129
f 878 129 879
f 879 129 142
f 879 142 880
f 880 142 141
f 880 141 881
f 881 141 140
f 881 140 882
f 882 140 136
f 882 136 883
f 883 136 138
f 883 138 872
f 872 138 139
f 872 139 873
f 873 139 130
f 873 130 874
f 874 130 132
f 874 132 875
f 875 132 134
f 875 134 876
f 876 134 135
f 876 135 877
f 877 135 78
f 884 106 885
f 885 106 105
f 885 105 886
f 886 105 119
f 886 119 887
f 887 119 112
f 887 112 888
f 888 112 111
f 888 111 889
f 889 111 110
f 889 110 890
f 890 110 118
f 890 118 891
f 891 118 117
f 891 117 892
f 892 117 116
f 892 116 893
f 893 116 114
f 893 114 894
f 894 114 113
f 894 113 895
f 895 113 108
f 895 108 884
f 884 108 106
f 23 891 21
f 21 891 892
f 21 892 19
f 19 892 893
f 19 893 17
f 17 893 894
f 17 894 15
f 15 894 895
f 15 895 13
f 13 895 884
f 13 884 11
f 11 884 885
f 11 885 9
f 9 885 886
f 9 886 7
f 7 886 887
f 7 887 5
f 5 887 888
f 5 888 3
f 3 888 889
f 3 889 1
f 1 889 890
f 1 890 23
f 23 890 891
f 327 896 349
f 349 896 897
f 349 897 347
f 347 897 898
f 347 898 345
f 345 898 899
f 345 899 343
f 343 899 900
f 343 900 341
f 341 900 901
f 341 901 339
f 339 901 902
f 339 902 337
f 337 902 903
f 337 903 335
f 335 903 904
f 335 904 333
f 333 904 905
f 333 905 331
f 331 905 906
f 331 906 329
f 329 906 907
f 329 907 327
f 327 907 896
f 902 89 903
f 903 89 91
f 903 91 904
f 904 91 101
f 904 101 905
f 905 101 100
f 905 100 906
f 906 100 98
f 906 98 907
f 907 98 97
f 907 97 896
f 896 97 94
f 896 94 897
f 897 94 96
f 897 96 898
f 898 96 104
f 898 104 899
f 899 104 103
f 899 103 900
f 900 103 102
f 900 102 901
f 901 102 87
f 901 87 902
f 902 87 89
f 534 670 525
f 525 670 669
f 525 669 526
f 526 669 830
f 526 830 527
f 527 830 829
f 527 829 529
f 529 829 828
f 529 828 530
f 530 828 827
f 530 827 524
f 524 827 833
f 524 833 522
f 522 833 832
f 522 832 523
f 523 832 831
f 523 831 531
f 531 831 825
f 531 825 532
f 532 825 824
f 532 824 533
f 533 824 823
f 533 823 534
f 534 823 670
f 654 679 655
f 655 679 681
f 655 681 646
f 646 681 682
f 646 682 647
f 647 682 684
f 647 684 650
f 650 684 683
f 650 683 651
f 651 683 690
f 651 690 652
f 652 690 689
f 652 689 644
f 644 689 688
f 644 688 645
f 645 688 685
f 645 685 648
f 648 685 686
f 648 686 649
f 649 686 687
f 649 687 653
f 653 687 680
f 653 680 654
f 654 680 679
f 642 676 635
f 635 676 675
f 635 675 636
f 636 675 722
f 636 722 637
f 637 722 721
f 637 721 638
f 638 721 720
f 638 720 500
f 500 720 719
f 500 719 501
f 501 719 728
f 501 728 639
f 639 728 727
f 639 727 640
f 640 727 726
f 640 726 641
f 641 726 724
f 641 724 633
f 633 724 723
f 633 723 634
f 634 723 718
f 634 718 642
f 642 718 676
f 666 691 667
f 667 691 693
f 667 693 656
f 656 693 694
f 656 694 657
f 657 694 695
f 657 695 658
f 658 695 696
f 658 696 659
f 659 696 703
f 659 703 660
f 660 703 702
f 660 702 661
f 661 702 701
f 661 701 664
f 664 701 700
f 664 700 663
f 663 700 698
f 663 698 662
f 662 698 697
f 662 697 665
f 665 697 692
f 665 692 666
f 666 692 691
f 561 802 562
f 562 802 801
f 562 801 556
f 556 801 800
f 556 800 550
f 550 800 799
f 550 799 551
f 551 799 804
f 551 804 553
f 553 804 811
f 553 811 554
f 554 811 810
f 554 810 555
f 555 810 809
f 555 809 559
f 559 809 808
f 559 808 558
f 558 808 806
f 558 806 557
f 557 806 805
f 557 805 560
f 560 805 803
f 560 803 561
f 561 803 802
f 548 787 549
f 549 787 789
f 549 789 539
f 539 789 790
f 539 790 540
f 540 790 792
f 540 792 543
f 543 792 791
f 543 791 545
f 545 791 798
f 545 798 546
f 546 798 797
f 546 797 536
f 536 797 796
f 536 796 537
f 537 796 793
f 537 793 541
f 541 793 794
f 541 794 542
f 542 794 795
f 542 795 547
f 547 795 788
f 547 788 548
f 548 788 787
f 521 673 506
f 506 673 672
f 506 672 507
f 507 672 818
f 507 818 509
f 509 818 817
f 509 817 510
f 510 817 816
f 510 816 512
f 512 816 813
f 512 813 513
f 513 813 812
f 513 812 515
f 515 812 815
f 515 815 516
f 516 815 822
f 516 822 517
f 517 822 820
f 517 820 519
f 519 820 819
f 519 819 520
f 520 819 814
f 520 814 521
f 521 814 673
f 631 704 618
f 618 704 714
f 618 714 619
f 619 714 713
f 619 713 620
f 620 713 712
f 620 712 621
f 621 712 711
f 621 711 623
f 623 711 709
f 623 709 624
f 624 709 708
f 624 708 626
f 626 708 710
f 626 710 627
f 627 710 716
f 627 716 628
f 628 716 715
f 628 715 629
f 629 715 707
f 629 707 630
f 630 707 705
f 630 705 631
f 631 705 704
f 908 909 910
f 910 909 911
f 910 911 912
f 912 911 913
f 913 914 912
f 912 914 915
f 912 915 916
f 916 915 917
f 916 917 918
f 916 919 920
f 920 919 921
f 920 921 922
f 923 924 925
f 926 918 927
f 927 918 928
f 927 928 929
f 929 928 930
f 929 930 924
f 924 930 931
f 924 931 925
f 922 932 920
f 920 932 923
f 920 923 910
f 910 923 925
f 910 925 908
f 926 933 918
f 918 933 934
f 918 934 916
f 916 934 935
f 916 935 919
f 936 937 938
f 938 937 939
f 938 939 940
f 940 939 941
f 940 941 942
f 943 944 945
f 945 944 946
f 945 946 947
f 942 948 940
f 940 948 943
f 940 943 949
f 949 943 945
f 949 945 950
f 950 951 949
f 949 951 952
f 949 952 953
f 953 952 954
f 954 955 953
f 953 955 956
f 953 956 938
f 938 956 957
f 938 957 936
f 936 957 958
f 958 957 959
f 959 957 960
f 959 960 961
f 961 960 962
f 961 962 946
f 946 962 963
f 946 963 947
f 964 965 966
f 967 968 969
f 969 968 970
f 971 972 973
f 974 975 976
f 976 975 977
f 976 977 978
f 968 979 980
f 973 972 981
f 969 982 967
f 967 982 983
f 967 983 984
f 985 965 986
f 986 965 987
f 986 987 988
f 980 989 968
f 968 989 990
f 968 990 970
f 970 990 981
f 970 981 991
f 991 981 972
f 974 976 992
f 992 976 967
f 992 967 993
f 993 967 984
f 993 984 987
f 987 984 994
f 987 994 988
f 995 996 997
f 998 999 1000
f 1000 999 1001
f 998 1002 999
f 999 1002 1003
f 999 1003 1004
f 1004 1003 1005
f 1004 1005 968
f 968 1005 1006
f 968 1006 979
f 964 966 1007
f 1007 966 1008
f 1007 1008 996
f 996 1008 1009
f 996 1009 997
f 1001 966 1000
f 1000 966 965
f 1000 965 973
f 973 965 985
f 973 985 971
f 1010 1011 1012
f 1012 1011 976
f 1012 976 997
f 997 976 978
f 997 978 995
f 1010 1013 1011
f 1011 1013 1014
f 1011 1014 968
f 968 1014 1015
f 968 1015 1004
f 1011 968 940
f 940 968 938
f 912 1011 910
f 910 1011 940
f 910 940 1016
f 1016 940 1017
f 953 938 967
f 967 938 968
f 967 976 920
f 920 976 916
f 953 967 949
f 949 967 920
f 949 920 1018
f 1018 920 1019
f 912 916 1011
f 1011 916 976
f 956 969 957
f 957 969 970
f 957 970 960
f 960 970 991
f 960 991 962
f 962 991 972
f 962 972 963
f 963 972 971
f 963 971 947
f 947 971 985
f 947 985 945
f 945 985 986
f 945 986 950
f 950 986 988
f 950 988 951
f 951 988 994
f 951 994 952
f 952 994 984
f 952 984 954
f 954 984 983
f 954 983 955
f 955 983 982
f 955 982 956
f 956 982 969
f 936 990 937
f 937 990 989
f 937 989 939
f 939 989 980
f 939 980 941
f 941 980 979
f 941 979 942
f 942 979 1006
f 942 1006 948
f 948 1006 1005
f 948 1005 943
f 943 1005 1003
f 943 1003 944
f 944 1003 1002
f 944 1002 946
f 946 1002 998
f 946 998 961
f 961 998 1000
f 961 1000 959
f 959 1000 973
f 959 973 958
f 958 973 981
f 958 981 936
f 936 981 990
f 925 999 908
f 908 999 1004
f 908 1004 909
f 909 1004 1015
f 909 1015 911
f 911 1015 1014
f 911 1014 913
f 913 1014 1013
f 913 1013 914
f 914 1013 1010
f 914 1010 915
f 915 1010 1012
f 915 1012 917
f 917 1012 997
f 917 997 918
f 918 997 1009
f 918 1009 928
f 928 1009 1008
f 928 1008 930
f 930 1008 966
f 930 966 931
f 931 966 1001
f 931 1001 925
f 925 1001 999
f 923 987 924
f 924 987 965
f 924 965 929
f 929 965 964
f 929 964 927
f 927 964 1007
f 927 1007 926
f 926 1007 996
f 926 996 933
f 933 996 995
f 933 995 934
f 934 995 978
f 934 978 935
f 935 978 977
f 935 977 919
f 919 977 975
f 919 975 921
f 921 975 974
f 921 974 922
f 922 974 992
f 922 992 932
f 932 992 993
f 932 993 923
f 923 993 987
f 1018 1017 949
f 949 1017 940
f 1016 1019 910
f 910 1019 920
f 1018 1019 1017
f 1017 1019 1016
