# Converted from resources/robots/b2z1_pcl/meshes/lidar_top_plat_link.dae
# DAE scene node transforms intentionally not baked; URDF link frames already define mesh placement.
o geom_0_prim_0
v -0.076324001 0.00151645998 -0.00499999989
v -0.0761718303 0.0102752801 -0.00499999989
v -0.02152206 0.0236922707 -0.00499999989
v -0.0763269216 -5.01000022e-06 -0.00499999989
v -0.0763269216 6.08100017e-05 -0.00499999989
v -0.02152206 -7.73000011e-06 -0.00499999989
v -0.0763261467 0.00079234998 -0.00499999989
v -0.0762937218 -0.00496897008 -0.00499999989
v -0.0763268024 -0.000290419994 -0.00499999989
v -0.076326862 -0.000146320002 -0.00499999989
v -0.02152206 -0.0237077307 -0.00499999989
v -0.0754595026 -0.0218656007 -0.00499999989
v -0.0593220815 -0.0401077308 -0.00499999989
v -0.057272099 -0.0395584404 -0.00499999989
v -0.02152206 -0.0492577292 -0.00499999989
v -0.0557713695 -0.0380577296 -0.00499999989
v -0.0552220494 -0.0360077284 -0.00499999989
v -0.0557713695 -0.033957731 -0.00499999989
v -0.0628727823 -0.033957731 -0.00499999989
v -0.0738657266 -0.0324684195 -0.00499999989
v -0.0634220988 -0.0360077284 -0.00499999989
v -0.0714919716 -0.0402429998 -0.00499999989
v -0.057272099 -0.0324570313 -0.00499999989
v -0.0593220815 -0.0319077298 -0.00499999989
v -0.0613720603 -0.0324570313 -0.00499999989
v -0.0636677891 -0.0503875501 -0.00499999989
v -0.0680922419 -0.0460116714 -0.00499999989
v -0.0613720603 -0.0395584404 -0.00499999989
v -0.069712773 -0.0437565818 -0.00499999989
v -0.0628727823 -0.0380577296 -0.00499999989
v -0.0705998093 -0.0421888791 -0.00499999989
v -0.0713898093 -0.0404856503 -0.00499999989
v -0.03286542 -0.065248929 -0.00499999989
v -0.0473068506 -0.0597352386 -0.00499999989
v -0.0571285114 -0.05486729 -0.00499999989
v 0.0196779203 -0.0492577292 -0.00499999989
v 0.00041131 -0.0751651004 -0.00499999989
v -0.0131468298 -0.0717382431 -0.00499999989
v 0.0238779001 -0.0492577292 -0.00499999989
v 0.02762793 -0.0589570291 -0.00499999989
v 0.0261272006 -0.0604577288 -0.00499999989
v 0.0255779494 -0.0625077337 -0.00499999989
v 0.0223497599 -0.0775689706 -0.00499999989
v 0.0119737796 -0.0770450905 -0.00499999989
v 0.0332286209 -0.0645577386 -0.00499999989
v 0.0337779298 -0.0625077337 -0.00499999989
v 0.0385802202 -0.0749690011 -0.00499999989
v 0.0261272006 -0.0645577386 -0.00499999989
v 0.02762793 -0.066058442 -0.00499999989
v 0.0309955291 -0.0768342912 -0.00499999989
v 0.0296779107 -0.0666077435 -0.00499999989
v 0.031727951 -0.066058442 -0.00499999989
v 0.0296779107 -0.0584077314 -0.00499999989
v 0.0296779107 -0.0492577292 -0.00499999989
v 0.031727951 -0.0589570291 -0.00499999989
v 0.0354779214 -0.0492577292 -0.00499999989
v 0.0332286209 -0.0604577288 -0.00499999989
v 0.0523506217 -0.0668322369 -0.00499999989
v 0.0523111001 -0.0668687671 -0.00499999989
v 0.0396778993 -0.0492577292 -0.00499999989
v 0.0522736683 -0.0669032186 -0.00499999989
v 0.0522377901 -0.0669362172 -0.00499999989
v 0.0510985702 -0.0679408163 -0.00499999989
v 0.0453004688 -0.0719770268 -0.00499999989
v 0.0524878316 -0.0667046085 -0.00499999989
v 0.0524387807 -0.0667503774 -0.00499999989
v 0.0523931198 -0.0667928383 -0.00499999989
v 0.0619321913 -0.0537163392 -0.00499999989
v 0.0572609715 -0.0613506511 -0.00499999989
v 0.0569429211 -0.0617708117 -0.00499999989
v 0.0566220693 -0.0621843413 -0.00499999989
v 0.0562983006 -0.0625913069 -0.00499999989
v 0.0559716597 -0.0629917309 -0.00499999989
v 0.055642169 -0.0633856729 -0.00499999989
v 0.0553098693 -0.0637731403 -0.00499999989
v 0.0549747795 -0.0641542003 -0.00499999989
v 0.0546368808 -0.06452889 -0.00499999989
v 0.0542961806 -0.0648972467 -0.00499999989
v 0.053952679 -0.0652593002 -0.00499999989
v 0.0536064282 -0.0656151026 -0.00499999989
v 0.0532573909 -0.0659646764 -0.00499999989
v 0.0529056005 -0.0663080737 -0.00499999989
v 0.0525511317 -0.0666453168 -0.00499999989
v 0.0396778993 -0.0237077307 -0.00499999989
v 0.0689301863 -0.0316076316 -0.00499999989
v 0.0658790916 -0.0439285412 -0.00499999989
v 0.0425128788 -0.01425773 -0.00499999989
v 0.0421779007 -0.0130077302 -0.00499999989
v 0.0396778993 -7.73000011e-06 -0.00499999989
v 0.0434279293 -0.0151728 -0.00499999989
v 0.0446779504 -0.0155077297 -0.00499999989
v 0.04684297 -0.0117577296 -0.00499999989
v 0.0714645833 -7.74e-06 -0.00499999989
v 0.0471779518 -0.0130077302 -0.00499999989
v 0.070745267 -0.0178799294 -0.00499999989
v 0.04684297 -0.01425773 -0.00499999989
v 0.0459279194 -0.0151728 -0.00499999989
v 0.0459279194 -0.0108426698 -0.00499999989
v 0.0446779504 -0.0105077298 -0.00499999989
v 0.0434279293 -0.0108426698 -0.00499999989
v 0.0425128788 -0.0117577296 -0.00499999989
v 0.0434279293 0.0108271996 -0.00499999989
v 0.0446779504 0.0104922699 -0.00499999989
v 0.0459279194 0.0108271996 -0.00499999989
v 0.04684297 0.0117422696 -0.00499999989
v 0.0714645833 -5.01000022e-06 -0.00499999989
v 0.0685959309 0.0333342515 -0.00499999989
v 0.04684297 0.01424227 -0.00499999989
v 0.0459279194 0.0151573298 -0.00499999989
v 0.0434279293 0.0151573298 -0.00499999989
v 0.0425128788 0.01424227 -0.00499999989
v 0.0396778993 0.0236922707 -0.00499999989
v 0.0421779007 0.0129922703 -0.00499999989
v 0.0425128788 0.0117422696 -0.00499999989
v 0.0446779504 0.0154922698 -0.00499999989
v 0.0471779518 0.0129922703 -0.00499999989
v 0.0705751628 0.0197237805 -0.00499999989
v 0.0714436024 0.0032293601 -0.00499999989
v 0.0396778993 0.0492422692 -0.00499999989
v 0.05225043 0.0669145808 -0.00499999989
v 0.0523921102 0.0667837337 -0.00499999989
v 0.0575614385 0.0609338991 -0.00499999989
v 0.0619877987 0.0535950214 -0.00499999989
v 0.0656893104 0.0445012897 -0.00499999989
v 0.0332286209 0.0604422688 -0.00499999989
v 0.0337779298 0.06249227 -0.00499999989
v 0.0354779214 0.0492422692 -0.00499999989
v 0.0350298695 0.0760002732 -0.00499999989
v 0.0420918912 0.0735830814 -0.00499999989
v 0.0482615009 0.0701097921 -0.00499999989
v 0.0332286209 0.0645422563 -0.00499999989
v 0.031727951 0.0660429671 -0.00499999989
v 0.0268798899 0.0773312226 -0.00499999989
v 0.0296779107 0.0665922612 -0.00499999989
v 0.0238792095 0.0775174424 -0.00499999989
v 0.02762793 0.0660429671 -0.00499999989
v 0.0261272006 0.0645422563 -0.00499999989
v 0.0255779494 0.06249227 -0.00499999989
v 0.0261272006 0.0604422688 -0.00499999989
v 0.0238779001 0.0492422692 -0.00499999989
v 0.02762793 0.0589415617 -0.00499999989
v 0.0296779107 0.0492422692 -0.00499999989
v 0.0296779107 0.0583922714 -0.00499999989
v 0.031727951 0.0589415617 -0.00499999989
v -0.00840356015 0.0730489492 -0.00499999989
v 0.00505011017 0.0760459229 -0.00499999989
v 0.0196779203 0.0492422692 -0.00499999989
v 0.0163885206 0.0774156675 -0.00499999989
v -0.0618430004 0.0517889708 -0.00499999989
v -0.054161869 0.0564942583 -0.00499999989
v -0.02152206 0.0492422692 -0.00499999989
v -0.0432953387 0.061368309 -0.00499999989
v -0.0248884093 0.068023257 -0.00499999989
v -0.0593220815 0.0318922698 -0.00499999989
v -0.057272099 0.0324415602 -0.00499999989
v -0.0557713695 0.033942271 -0.00499999989
v -0.0752326399 0.0239971001 -0.00499999989
v -0.0628727823 0.033942271 -0.00499999989
v -0.0613720603 0.0324415602 -0.00499999989
v -0.0734918937 0.0340576284 -0.00499999989
v -0.0733878165 0.0344691388 -0.00499999989
v -0.0732820779 0.0348739214 -0.00499999989
v -0.0552220494 0.0359922685 -0.00499999989
v -0.0557713695 0.0380422696 -0.00499999989
v -0.057272099 0.0395429693 -0.00499999989
v -0.0593220815 0.0400922708 -0.00499999989
v -0.0666744933 0.0476070382 -0.00499999989
v -0.0613720603 0.0395429693 -0.00499999989
v -0.0694916993 0.0440917015 -0.00499999989
v -0.0628727823 0.0380422696 -0.00499999989
v -0.0713965371 0.0404598303 -0.00499999989
v -0.0634220988 0.0359922685 -0.00499999989
v -0.0714241415 0.0403947197 -0.00499999989
v -0.0714566335 0.0403175503 -0.00499999989
v -0.0731746703 0.0352721103 -0.00499999989
v -0.0730655268 0.0356638283 -0.00499999989
v -0.0729547888 0.0360491909 -0.00499999989
v -0.0728424266 0.03642831 -0.00499999989
v -0.0727283508 0.0368013009 -0.00499999989
v -0.0726126581 0.0371682793 -0.00499999989
v -0.0724952966 0.0375293717 -0.00499999989
v -0.0723763332 0.0378846712 -0.00499999989
v -0.0722556934 0.0382342897 -0.00499999989
v -0.0721334368 0.0385783501 -0.00499999989
v -0.0720095783 0.0389169417 -0.00499999989
v -0.0718841106 0.0392501801 -0.00499999989
v -0.0717569664 0.0395781808 -0.00499999989
v -0.0716282278 0.0399010181 -0.00499999989
v -0.0714978725 0.0402188301 -0.00499999989
v 0.0259279404 0.0108271996 -0.00499999989
v 0.0296779107 -7.73000011e-06 -0.00499999989
v 0.0246779192 0.0104922699 -0.00499999989
v 0.0238779001 -7.73000011e-06 -0.00499999989
v 0.0234279502 0.0108271996 -0.00499999989
v 0.0225128401 0.0117422696 -0.00499999989
v 0.0268429909 0.0117422696 -0.00499999989
v 0.0271779094 0.0129922703 -0.00499999989
v 0.0296779107 0.0236922707 -0.00499999989
v 0.0268429909 0.01424227 -0.00499999989
v 0.0259279404 0.0151573298 -0.00499999989
v 0.0238779001 0.0236922707 -0.00499999989
v 0.0246779192 0.0154922698 -0.00499999989
v 0.0234279502 0.0151573298 -0.00499999989
v 0.0196779203 0.0236922707 -0.00499999989
v 0.0225128401 0.01424227 -0.00499999989
v 0.0221779197 0.0129922703 -0.00499999989
v 0.0196779203 -7.73000011e-06 -0.00499999989
v 0.0354779214 0.0236922707 -0.00499999989
v 0.0346779004 0.0154922698 -0.00499999989
v 0.0334279388 0.0151573298 -0.00499999989
v 0.0325128809 0.01424227 -0.00499999989
v 0.0321779102 0.0129922703 -0.00499999989
v 0.0325128809 0.0117422696 -0.00499999989
v 0.0334279388 0.0108271996 -0.00499999989
v 0.0346779004 0.0104922699 -0.00499999989
v 0.0354779214 -7.73000011e-06 -0.00499999989
v 0.035927929 0.0108271996 -0.00499999989
v 0.0368429795 0.0117422696 -0.00499999989
v 0.0371779017 0.0129922703 -0.00499999989
v 0.0368429795 0.01424227 -0.00499999989
v 0.035927929 0.0151573298 -0.00499999989
v 0.0334279388 -0.0108426698 -0.00499999989
v 0.0325128809 -0.0117577296 -0.00499999989
v 0.0346779004 -0.0105077298 -0.00499999989
v 0.0321779102 -0.0130077302 -0.00499999989
v 0.0325128809 -0.01425773 -0.00499999989
v 0.0296779107 -0.0237077307 -0.00499999989
v 0.0334279388 -0.0151728 -0.00499999989
v 0.0354779214 -0.0237077307 -0.00499999989
v 0.0346779004 -0.0155077297 -0.00499999989
v 0.035927929 -0.0151728 -0.00499999989
v 0.0368429795 -0.01425773 -0.00499999989
v 0.0371779017 -0.0130077302 -0.00499999989
v 0.0368429795 -0.0117577296 -0.00499999989
v 0.035927929 -0.0108426698 -0.00499999989
v 0.0238779001 -0.0237077307 -0.00499999989
v 0.0246779192 -0.0155077297 -0.00499999989
v 0.0259279404 -0.0151728 -0.00499999989
v 0.0268429909 -0.01425773 -0.00499999989
v 0.0271779094 -0.0130077302 -0.00499999989
v 0.0268429909 -0.0117577296 -0.00499999989
v 0.0259279404 -0.0108426698 -0.00499999989
v 0.0246779192 -0.0105077298 -0.00499999989
v 0.0234279502 -0.0108426698 -0.00499999989
v 0.0225128401 -0.0117577296 -0.00499999989
v 0.0221779197 -0.0130077302 -0.00499999989
v 0.0196779203 -0.0237077307 -0.00499999989
v 0.0225128401 -0.01425773 -0.00499999989
v 0.0234279502 -0.0151728 -0.00499999989
v 0.0134279598 0.0151573298 -0.00499999989
v 0.0125128496 0.01424227 -0.00499999989
v 0.0159279499 0.0151573298 -0.00499999989
v 0.0146779297 0.0154922698 -0.00499999989
v 0.0159279499 0.0108271996 -0.00499999989
v 0.0168430004 0.0117422696 -0.00499999989
v 0.0171779208 0.0129922703 -0.00499999989
v 0.0168430004 0.01424227 -0.00499999989
v 0.0121779302 0.0129922703 -0.00499999989
v 0.0125128496 0.0117422696 -0.00499999989
v 0.0134279598 0.0108271996 -0.00499999989
v 0.0146779297 0.0104922699 -0.00499999989
v 0.0168430004 -0.0117577296 -0.00499999989
v 0.0171779208 -0.0130077302 -0.00499999989
v 0.0168430004 -0.01425773 -0.00499999989
v 0.0159279499 -0.0151728 -0.00499999989
v 0.0125128496 -0.0117577296 -0.00499999989
v 0.0121779302 -0.0130077302 -0.00499999989
v 0.0125128496 -0.01425773 -0.00499999989
v 0.0134279598 -0.0151728 -0.00499999989
v 0.0146779297 -0.0155077297 -0.00499999989
v 0.0159279499 -0.0108426698 -0.00499999989
v 0.0146779297 -0.0105077298 -0.00499999989
v 0.0134279598 -0.0108426698 -0.00499999989
v 0.0656893104 0.0445012897 -9.99999994e-09
v 0.0619877987 0.0535950214 -9.99999994e-09
v 0.0396778993 0.0492422692 -9.99999994e-09
v 0.0350298695 0.0760002732 -9.99999994e-09
v 0.0354779214 0.0492422692 -9.99999994e-09
v -0.0762937218 -0.00496897008 -9.99999994e-09
v -0.0754595026 -0.0218656007 -9.99999994e-09
v -0.02152206 -0.0237077307 -9.99999994e-09
v -0.0613720603 -0.0324570313 -9.99999994e-09
v -0.0593220815 -0.0319077298 -9.99999994e-09
v 0.0658790916 -0.0439285412 -9.99999994e-09
v 0.0689301863 -0.0316076316 -9.99999994e-09
v 0.0396778993 -0.0237077307 -9.99999994e-09
v 0.0421779007 0.0129922703 -9.99999994e-09
v 0.0425128788 0.01424227 -9.99999994e-09
v 0.0396778993 0.0236922707 -9.99999994e-09
v 0.0434279293 0.0151573298 -9.99999994e-09
v 0.0446779504 0.0154922698 -9.99999994e-09
v 0.0685959309 0.0333342515 -9.99999994e-09
v 0.0459279194 0.0108271996 -9.99999994e-09
v 0.0446779504 0.0104922699 -9.99999994e-09
v 0.0396778993 -7.73000011e-06 -9.99999994e-09
v 0.0434279293 0.0108271996 -9.99999994e-09
v 0.0425128788 0.0117422696 -9.99999994e-09
v 0.0459279194 0.0151573298 -9.99999994e-09
v 0.04684297 0.01424227 -9.99999994e-09
v 0.0705751628 0.0197237805 -9.99999994e-09
v 0.0471779518 0.0129922703 -9.99999994e-09
v 0.0714436024 0.0032293601 -9.99999994e-09
v 0.04684297 0.0117422696 -9.99999994e-09
v 0.0714645833 -5.01000022e-06 -9.99999994e-09
v 0.0714645833 -7.74e-06 -9.99999994e-09
v 0.0434279293 -0.0108426698 -9.99999994e-09
v 0.0446779504 -0.0105077298 -9.99999994e-09
v 0.0459279194 -0.0108426698 -9.99999994e-09
v 0.04684297 -0.0117577296 -9.99999994e-09
v 0.070745267 -0.0178799294 -9.99999994e-09
v 0.0471779518 -0.0130077302 -9.99999994e-09
v 0.0434279293 -0.0151728 -9.99999994e-09
v 0.0425128788 -0.01425773 -9.99999994e-09
v 0.0421779007 -0.0130077302 -9.99999994e-09
v 0.0425128788 -0.0117577296 -9.99999994e-09
v 0.04684297 -0.01425773 -9.99999994e-09
v 0.0459279194 -0.0151728 -9.99999994e-09
v 0.0446779504 -0.0155077297 -9.99999994e-09
v 0.0522377901 -0.0669362172 -9.99999994e-09
v 0.0522736683 -0.0669032186 -9.99999994e-09
v 0.0396778993 -0.0492577292 -9.99999994e-09
v 0.0510985702 -0.0679408163 -9.99999994e-09
v 0.0523111001 -0.0668687671 -9.99999994e-09
v 0.0523506217 -0.0668322369 -9.99999994e-09
v 0.0523931198 -0.0667928383 -9.99999994e-09
v 0.0524387807 -0.0667503774 -9.99999994e-09
v 0.0524878316 -0.0667046085 -9.99999994e-09
v 0.0525511317 -0.0666453168 -9.99999994e-09
v 0.0566220693 -0.0621843413 -9.99999994e-09
v 0.0569429211 -0.0617708117 -9.99999994e-09
v 0.0572609715 -0.0613506511 -9.99999994e-09
v 0.0619321913 -0.0537163392 -9.99999994e-09
v 0.055642169 -0.0633856729 -9.99999994e-09
v 0.0559716597 -0.0629917309 -9.99999994e-09
v 0.0562983006 -0.0625913069 -9.99999994e-09
v 0.0546368808 -0.06452889 -9.99999994e-09
v 0.0549747795 -0.0641542003 -9.99999994e-09
v 0.0553098693 -0.0637731403 -9.99999994e-09
v 0.0536064282 -0.0656151026 -9.99999994e-09
v 0.053952679 -0.0652593002 -9.99999994e-09
v 0.0542961806 -0.0648972467 -9.99999994e-09
v 0.0529056005 -0.0663080737 -9.99999994e-09
v 0.0532573909 -0.0659646764 -9.99999994e-09
v 0.0354779214 -0.0492577292 -9.99999994e-09
v 0.031727951 -0.0589570291 -9.99999994e-09
v 0.0332286209 -0.0604577288 -9.99999994e-09
v 0.0337779298 -0.0625077337 -9.99999994e-09
v 0.0385802202 -0.0749690011 -9.99999994e-09
v 0.0453004688 -0.0719770268 -9.99999994e-09
v 0.0261272006 -0.0645577386 -9.99999994e-09
v 0.0255779494 -0.0625077337 -9.99999994e-09
v 0.0223497599 -0.0775689706 -9.99999994e-09
v 0.0332286209 -0.0645577386 -9.99999994e-09
v 0.031727951 -0.066058442 -9.99999994e-09
v 0.0309955291 -0.0768342912 -9.99999994e-09
v 0.0296779107 -0.0666077435 -9.99999994e-09
v 0.02762793 -0.066058442 -9.99999994e-09
v 0.0296779107 -0.0584077314 -9.99999994e-09
v 0.0296779107 -0.0492577292 -9.99999994e-09
v 0.02762793 -0.0589570291 -9.99999994e-09
v 0.0238779001 -0.0492577292 -9.99999994e-09
v 0.0261272006 -0.0604577288 -9.99999994e-09
v 0.00041131 -0.0751651004 -9.99999994e-09
v 0.0196779203 -0.0492577292 -9.99999994e-09
v -0.0131468298 -0.0717382431 -9.99999994e-09
v -0.02152206 -0.0492577292 -9.99999994e-09
v -0.03286542 -0.065248929 -9.99999994e-09
v 0.0119737796 -0.0770450905 -9.99999994e-09
v -0.0636677891 -0.0503875501 -9.99999994e-09
v -0.0571285114 -0.05486729 -9.99999994e-09
v -0.0473068506 -0.0597352386 -9.99999994e-09
v -0.057272099 -0.0324570313 -9.99999994e-09
v -0.0557713695 -0.033957731 -9.99999994e-09
v -0.0738657266 -0.0324684195 -9.99999994e-09
v -0.0634220988 -0.0360077284 -9.99999994e-09
v -0.0628727823 -0.033957731 -9.99999994e-09
v -0.0552220494 -0.0360077284 -9.99999994e-09
v -0.0557713695 -0.0380577296 -9.99999994e-09
v -0.057272099 -0.0395584404 -9.99999994e-09
v -0.0593220815 -0.0401077308 -9.99999994e-09
v -0.0680922419 -0.0460116714 -9.99999994e-09
v -0.0613720603 -0.0395584404 -9.99999994e-09
v -0.069712773 -0.0437565818 -9.99999994e-09
v -0.0628727823 -0.0380577296 -9.99999994e-09
v -0.0714919716 -0.0402429998 -9.99999994e-09
v -0.0713898093 -0.0404856503 -9.99999994e-09
v -0.0705998093 -0.0421888791 -9.99999994e-09
v -0.0763269216 6.08100017e-05 -9.99999994e-09
v -0.0763269216 -5.01000022e-06 -9.99999994e-09
v -0.02152206 -7.73000011e-06 -9.99999994e-09
v -0.076326862 -0.000146320002 -9.99999994e-09
v -0.0763268024 -0.000290419994 -9.99999994e-09
v -0.0593220815 0.0400922708 -9.99999994e-09
v -0.057272099 0.0395429693 -9.99999994e-09
v -0.02152206 0.0492422692 -9.99999994e-09
v -0.0628727823 0.0380422696 -9.99999994e-09
v -0.0613720603 0.0395429693 -9.99999994e-09
v -0.0666744933 0.0476070382 -9.99999994e-09
v -0.0557713695 0.0380422696 -9.99999994e-09
v -0.0552220494 0.0359922685 -9.99999994e-09
v -0.02152206 0.0236922707 -9.99999994e-09
v -0.0557713695 0.033942271 -9.99999994e-09
v -0.057272099 0.0324415602 -9.99999994e-09
v -0.0618430004 0.0517889708 -9.99999994e-09
v -0.0761718303 0.0102752801 -9.99999994e-09
v -0.076324001 0.00151645998 -9.99999994e-09
v -0.0763261467 0.00079234998 -9.99999994e-09
v -0.0732820779 0.0348739214 -9.99999994e-09
v -0.0733878165 0.0344691388 -9.99999994e-09
v -0.0628727823 0.033942271 -9.99999994e-09
v -0.0694916993 0.0440917015 -9.99999994e-09
v -0.0713965371 0.0404598303 -9.99999994e-09
v -0.0634220988 0.0359922685 -9.99999994e-09
v -0.0731746703 0.0352721103 -9.99999994e-09
v -0.0593220815 0.0318922698 -9.99999994e-09
v -0.0613720603 0.0324415602 -9.99999994e-09
v -0.0752326399 0.0239971001 -9.99999994e-09
v -0.0734918937 0.0340576284 -9.99999994e-09
v -0.0714241415 0.0403947197 -9.99999994e-09
v -0.0714566335 0.0403175503 -9.99999994e-09
v -0.0714978725 0.0402188301 -9.99999994e-09
v -0.0730655268 0.0356638283 -9.99999994e-09
v -0.0729547888 0.0360491909 -9.99999994e-09
v -0.0726126581 0.0371682793 -9.99999994e-09
v -0.0727283508 0.0368013009 -9.99999994e-09
v -0.0728424266 0.03642831 -9.99999994e-09
v -0.0722556934 0.0382342897 -9.99999994e-09
v -0.0723763332 0.0378846712 -9.99999994e-09
v -0.0724952966 0.0375293717 -9.99999994e-09
v -0.0718841106 0.0392501801 -9.99999994e-09
v -0.0720095783 0.0389169417 -9.99999994e-09
v -0.0721334368 0.0385783501 -9.99999994e-09
v -0.0716282278 0.0399010181 -9.99999994e-09
v -0.0717569664 0.0395781808 -9.99999994e-09
v -0.054161869 0.0564942583 -9.99999994e-09
v -0.0432953387 0.061368309 -9.99999994e-09
v 0.0196779203 0.0492422692 -9.99999994e-09
v -0.00840356015 0.0730489492 -9.99999994e-09
v -0.0248884093 0.068023257 -9.99999994e-09
v 0.0261272006 0.0604422688 -9.99999994e-09
v 0.0255779494 0.06249227 -9.99999994e-09
v 0.0238779001 0.0492422692 -9.99999994e-09
v 0.0238792095 0.0775174424 -9.99999994e-09
v 0.0163885206 0.0774156675 -9.99999994e-09
v 0.00505011017 0.0760459229 -9.99999994e-09
v 0.0261272006 0.0645422563 -9.99999994e-09
v 0.02762793 0.0660429671 -9.99999994e-09
v 0.0268798899 0.0773312226 -9.99999994e-09
v 0.0296779107 0.0665922612 -9.99999994e-09
v 0.031727951 0.0660429671 -9.99999994e-09
v 0.031727951 0.0589415617 -9.99999994e-09
v 0.0296779107 0.0492422692 -9.99999994e-09
v 0.0296779107 0.0583922714 -9.99999994e-09
v 0.02762793 0.0589415617 -9.99999994e-09
v 0.0332286209 0.0645422563 -9.99999994e-09
v 0.0337779298 0.06249227 -9.99999994e-09
v 0.0332286209 0.0604422688 -9.99999994e-09
v 0.05225043 0.0669145808 -9.99999994e-09
v 0.0482615009 0.0701097921 -9.99999994e-09
v 0.0420918912 0.0735830814 -9.99999994e-09
v 0.0575614385 0.0609338991 -9.99999994e-09
v 0.0523921102 0.0667837337 -9.99999994e-09
v 0.0271779094 0.0129922703 -9.99999994e-09
v 0.0268429909 0.0117422696 -9.99999994e-09
v 0.0296779107 -7.73000011e-06 -9.99999994e-09
v 0.0259279404 0.0108271996 -9.99999994e-09
v 0.0238779001 -7.73000011e-06 -9.99999994e-09
v 0.0238779001 0.0236922707 -9.99999994e-09
v 0.0246779192 0.0154922698 -9.99999994e-09
v 0.0296779107 0.0236922707 -9.99999994e-09
v 0.0259279404 0.0151573298 -9.99999994e-09
v 0.0268429909 0.01424227 -9.99999994e-09
v 0.0246779192 0.0104922699 -9.99999994e-09
v 0.0234279502 0.0108271996 -9.99999994e-09
v 0.0196779203 -7.73000011e-06 -9.99999994e-09
v 0.0225128401 0.0117422696 -9.99999994e-09
v 0.0221779197 0.0129922703 -9.99999994e-09
v 0.0196779203 0.0236922707 -9.99999994e-09
v 0.0225128401 0.01424227 -9.99999994e-09
v 0.0234279502 0.0151573298 -9.99999994e-09
v 0.0321779102 0.0129922703 -9.99999994e-09
v 0.0325128809 0.0117422696 -9.99999994e-09
v 0.0325128809 0.01424227 -9.99999994e-09
v 0.0334279388 0.0151573298 -9.99999994e-09
v 0.0354779214 0.0236922707 -9.99999994e-09
v 0.0368429795 0.0117422696 -9.99999994e-09
v 0.035927929 0.0108271996 -9.99999994e-09
v 0.0354779214 -7.73000011e-06 -9.99999994e-09
v 0.0346779004 0.0104922699 -9.99999994e-09
v 0.0334279388 0.0108271996 -9.99999994e-09
v 0.0346779004 0.0154922698 -9.99999994e-09
v 0.035927929 0.0151573298 -9.99999994e-09
v 0.0368429795 0.01424227 -9.99999994e-09
v 0.0371779017 0.0129922703 -9.99999994e-09
v 0.0296779107 -0.0237077307 -9.99999994e-09
v 0.0325128809 -0.01425773 -9.99999994e-09
v 0.0321779102 -0.0130077302 -9.99999994e-09
v 0.0346779004 -0.0105077298 -9.99999994e-09
v 0.0334279388 -0.0108426698 -9.99999994e-09
v 0.0325128809 -0.0117577296 -9.99999994e-09
v 0.0354779214 -0.0237077307 -9.99999994e-09
v 0.0346779004 -0.0155077297 -9.99999994e-09
v 0.0334279388 -0.0151728 -9.99999994e-09
v 0.035927929 -0.0108426698 -9.99999994e-09
v 0.0368429795 -0.0117577296 -9.99999994e-09
v 0.0371779017 -0.0130077302 -9.99999994e-09
v 0.0368429795 -0.01425773 -9.99999994e-09
v 0.035927929 -0.0151728 -9.99999994e-09
v 0.0238779001 -0.0237077307 -9.99999994e-09
v 0.0259279404 -0.0151728 -9.99999994e-09
v 0.0259279404 -0.0108426698 -9.99999994e-09
v 0.0268429909 -0.0117577296 -9.99999994e-09
v 0.0271779094 -0.0130077302 -9.99999994e-09
v 0.0268429909 -0.01425773 -9.99999994e-09
v 0.0246779192 -0.0105077298 -9.99999994e-09
v 0.0234279502 -0.0108426698 -9.99999994e-09
v 0.0225128401 -0.0117577296 -9.99999994e-09
v 0.0221779197 -0.0130077302 -9.99999994e-09
v 0.0246779192 -0.0155077297 -9.99999994e-09
v 0.0234279502 -0.0151728 -9.99999994e-09
v 0.0196779203 -0.0237077307 -9.99999994e-09
v 0.0225128401 -0.01425773 -9.99999994e-09
v 0.0168430004 0.0117422696 -9.99999994e-09
v 0.0171779208 0.0129922703 -9.99999994e-09
v 0.0168430004 0.01424227 -9.99999994e-09
v 0.0159279499 0.0151573298 -9.99999994e-09
v 0.0159279499 0.0108271996 -9.99999994e-09
v 0.0146779297 0.0104922699 -9.99999994e-09
v 0.0134279598 0.0108271996 -9.99999994e-09
v 0.0125128496 0.0117422696 -9.99999994e-09
v 0.0121779302 0.0129922703 -9.99999994e-09
v 0.0125128496 0.01424227 -9.99999994e-09
v 0.0134279598 0.0151573298 -9.99999994e-09
v 0.0146779297 0.0154922698 -9.99999994e-09
v 0.0171779208 -0.0130077302 -9.99999994e-09
v 0.0168430004 -0.01425773 -9.99999994e-09
v 0.0159279499 -0.0108426698 -9.99999994e-09
v 0.0168430004 -0.0117577296 -9.99999994e-09
v 0.0159279499 -0.0151728 -9.99999994e-09
v 0.0146779297 -0.0155077297 -9.99999994e-09
v 0.0134279598 -0.0151728 -9.99999994e-09
v 0.0125128496 -0.01425773 -9.99999994e-09
v 0.0121779302 -0.0130077302 -9.99999994e-09
v 0.0125128496 -0.0117577296 -9.99999994e-09
v 0.0134279598 -0.0108426698 -9.99999994e-09
v 0.0146779297 -0.0105077298 -9.99999994e-09
f 1 2 3
f 4 5 6
f 6 5 7
f 8 9 6
f 6 9 10
f 6 10 4
f 11 12 8
f 13 14 15
f 15 14 16
f 16 17 11
f 11 17 18
f 12 19 20
f 20 19 21
f 20 21 22
f 18 23 11
f 11 23 24
f 11 24 12
f 12 24 25
f 12 25 19
f 26 27 28
f 28 27 29
f 28 29 30
f 30 29 31
f 30 31 21
f 21 31 32
f 21 32 22
f 15 33 34
f 28 13 26
f 26 13 15
f 26 15 35
f 35 15 34
f 36 37 15
f 15 37 38
f 15 38 33
f 39 40 41
f 41 42 39
f 39 42 43
f 39 43 36
f 36 43 44
f 36 44 37
f 45 46 47
f 42 48 43
f 43 48 49
f 43 49 50
f 50 49 51
f 50 51 47
f 47 51 52
f 47 52 45
f 40 39 53
f 53 39 54
f 53 54 55
f 55 54 56
f 55 56 57
f 58 59 60
f 59 61 60
f 60 61 62
f 60 62 63
f 63 64 60
f 60 64 47
f 60 47 56
f 56 47 46
f 56 46 57
f 65 66 60
f 60 66 67
f 60 67 58
f 60 68 69
f 69 70 60
f 60 70 71
f 60 71 72
f 72 73 60
f 60 73 74
f 60 74 75
f 75 76 60
f 60 76 77
f 60 77 78
f 78 79 60
f 60 79 80
f 60 80 81
f 81 82 60
f 60 82 83
f 60 83 65
f 84 85 86
f 87 84 88
f 88 84 89
f 87 90 84
f 84 90 91
f 84 91 85
f 92 93 94
f 94 93 95
f 94 95 96
f 96 95 85
f 96 85 97
f 97 85 91
f 98 99 89
f 99 100 89
f 89 100 101
f 89 101 88
f 102 103 89
f 89 103 93
f 89 93 98
f 98 93 92
f 103 104 93
f 93 104 105
f 93 105 106
f 107 108 109
f 110 111 112
f 112 111 113
f 112 113 89
f 89 113 114
f 89 114 102
f 107 109 112
f 112 109 115
f 112 115 110
f 108 107 116
f 116 107 117
f 116 117 105
f 105 117 118
f 105 118 106
f 119 120 121
f 121 122 119
f 119 122 123
f 119 123 124
f 125 126 127
f 126 128 127
f 127 128 129
f 127 129 119
f 119 129 130
f 119 130 120
f 126 131 128
f 128 131 132
f 128 132 133
f 133 132 134
f 133 134 135
f 135 134 136
f 135 136 137
f 138 139 140
f 140 139 141
f 140 141 142
f 142 141 143
f 142 143 127
f 127 143 144
f 127 144 125
f 145 146 147
f 147 146 148
f 147 148 135
f 149 150 151
f 151 150 152
f 151 152 153
f 2 154 3
f 3 154 155
f 3 155 156
f 157 158 2
f 2 158 159
f 2 159 154
f 157 160 158
f 158 160 161
f 158 161 162
f 163 164 151
f 151 164 165
f 151 165 149
f 149 165 166
f 149 166 167
f 167 166 168
f 167 168 169
f 169 168 170
f 169 170 171
f 171 170 172
f 171 172 173
f 173 172 174
f 162 175 158
f 158 175 176
f 158 176 172
f 172 176 177
f 172 177 178
f 178 179 172
f 172 179 180
f 172 180 181
f 181 182 172
f 172 182 183
f 172 183 184
f 184 185 172
f 172 185 186
f 172 186 187
f 187 188 172
f 172 188 189
f 172 189 174
f 190 191 192
f 192 191 193
f 192 193 194
f 194 193 195
f 190 196 191
f 191 196 197
f 191 197 198
f 197 199 198
f 198 199 200
f 198 200 201
f 200 202 201
f 201 202 203
f 201 203 204
f 203 205 204
f 204 205 206
f 204 206 207
f 208 209 198
f 198 209 210
f 210 211 198
f 198 211 212
f 198 212 191
f 191 212 213
f 191 213 214
f 214 215 216
f 216 215 217
f 216 217 89
f 217 218 89
f 89 218 219
f 89 219 112
f 112 219 220
f 112 220 208
f 208 220 221
f 208 221 209
f 222 223 191
f 214 216 191
f 191 216 224
f 191 224 222
f 225 226 227
f 227 226 228
f 227 228 229
f 228 230 229
f 229 230 231
f 229 231 84
f 231 232 84
f 84 232 233
f 84 233 89
f 89 233 234
f 89 234 216
f 216 234 235
f 216 235 224
f 236 237 227
f 227 237 238
f 227 238 239
f 239 240 227
f 227 240 191
f 227 191 225
f 225 191 223
f 240 241 191
f 191 241 242
f 191 242 193
f 193 242 243
f 243 244 193
f 193 244 207
f 193 207 195
f 195 207 206
f 244 245 207
f 207 245 246
f 207 246 247
f 247 246 248
f 247 248 236
f 236 248 249
f 236 249 237
f 204 140 201
f 201 140 142
f 201 142 198
f 198 142 127
f 198 127 208
f 208 127 119
f 208 119 112
f 112 119 124
f 112 124 107
f 156 163 3
f 3 163 151
f 3 151 147
f 147 151 153
f 147 153 145
f 250 251 3
f 252 253 204
f 254 255 207
f 207 255 256
f 207 256 204
f 204 256 257
f 204 257 252
f 251 258 3
f 3 258 6
f 3 6 1
f 1 6 7
f 258 259 6
f 6 259 260
f 6 260 207
f 207 260 261
f 207 261 254
f 137 138 135
f 135 138 140
f 135 140 147
f 147 140 204
f 147 204 3
f 3 204 253
f 3 253 250
f 262 207 263
f 263 207 247
f 263 247 264
f 264 247 265
f 8 6 11
f 11 6 266
f 11 266 267
f 267 268 11
f 11 268 269
f 11 269 247
f 247 269 270
f 247 270 265
f 262 271 207
f 207 271 272
f 207 272 6
f 6 272 273
f 6 273 266
f 16 11 15
f 15 11 247
f 15 247 36
f 36 247 236
f 36 236 39
f 39 236 227
f 39 227 54
f 54 227 229
f 54 229 56
f 56 229 84
f 56 84 60
f 60 84 86
f 60 86 68
f 274 275 276
f 277 278 276
f 279 280 281
f 282 283 280
f 284 285 286
f 287 288 289
f 288 290 289
f 289 290 291
f 289 291 292
f 293 294 295
f 295 294 296
f 295 296 297
f 291 298 292
f 292 298 299
f 292 299 300
f 300 299 301
f 300 301 302
f 302 301 303
f 302 303 304
f 304 303 305
f 306 307 295
f 295 307 305
f 295 305 293
f 293 305 303
f 307 308 305
f 305 308 309
f 305 309 310
f 310 309 311
f 310 311 285
f 312 313 286
f 286 313 314
f 286 314 295
f 295 314 315
f 295 315 306
f 311 316 285
f 285 316 317
f 285 317 286
f 286 317 318
f 286 318 312
f 319 320 321
f 319 321 322
f 320 323 321
f 321 323 324
f 321 324 325
f 325 326 321
f 321 326 327
f 321 327 328
f 329 330 321
f 321 330 331
f 321 331 332
f 333 334 321
f 321 334 335
f 321 335 329
f 336 337 321
f 321 337 338
f 321 338 333
f 339 340 321
f 321 340 341
f 321 341 336
f 328 342 321
f 321 342 343
f 321 343 339
f 344 345 346
f 346 347 344
f 344 347 348
f 344 348 321
f 321 348 349
f 321 349 322
f 350 351 352
f 347 353 348
f 348 353 354
f 348 354 355
f 355 354 356
f 355 356 352
f 352 356 357
f 352 357 350
f 345 344 358
f 358 344 359
f 358 359 360
f 360 359 361
f 360 361 362
f 363 364 365
f 365 364 366
f 365 366 367
f 363 368 364
f 364 368 352
f 364 352 361
f 361 352 351
f 361 351 362
f 369 370 366
f 366 370 371
f 366 371 367
f 280 283 281
f 281 283 372
f 281 372 373
f 374 375 280
f 280 375 376
f 280 376 282
f 377 378 366
f 366 378 379
f 366 379 369
f 369 379 380
f 369 380 381
f 381 380 382
f 381 382 383
f 383 382 384
f 374 385 375
f 375 385 386
f 375 386 384
f 384 386 387
f 384 387 383
f 388 389 390
f 390 389 391
f 390 391 392
f 393 394 395
f 396 397 398
f 399 400 401
f 401 400 402
f 401 402 403
f 398 397 404
f 403 405 401
f 401 405 406
f 401 406 390
f 390 406 407
f 390 407 388
f 408 409 410
f 398 411 396
f 396 411 412
f 396 412 413
f 408 410 414
f 403 415 405
f 405 415 416
f 405 416 417
f 417 416 410
f 417 410 418
f 418 410 409
f 412 419 413
f 413 419 420
f 413 420 421
f 414 410 422
f 422 410 413
f 422 413 423
f 424 425 413
f 413 425 426
f 413 426 423
f 427 428 413
f 413 428 429
f 413 429 424
f 430 431 413
f 413 431 432
f 413 432 427
f 421 433 413
f 413 433 434
f 413 434 430
f 397 393 404
f 404 393 395
f 404 395 435
f 435 395 436
f 437 438 395
f 395 438 439
f 395 439 436
f 440 441 442
f 441 443 442
f 442 443 444
f 442 444 437
f 437 444 445
f 437 445 438
f 441 446 443
f 443 446 447
f 443 447 448
f 448 447 449
f 448 449 277
f 277 449 450
f 278 451 452
f 452 451 453
f 452 453 442
f 442 453 454
f 442 454 440
f 450 455 277
f 277 455 456
f 277 456 278
f 278 456 457
f 278 457 451
f 458 459 276
f 276 459 460
f 276 460 277
f 275 461 276
f 276 461 462
f 276 462 458
f 463 464 465
f 465 464 466
f 465 466 467
f 468 469 470
f 470 469 471
f 470 471 472
f 466 473 467
f 467 473 474
f 467 474 475
f 474 476 475
f 475 476 477
f 475 477 478
f 478 477 479
f 478 479 468
f 468 479 480
f 468 480 469
f 472 463 470
f 470 463 465
f 470 465 481
f 481 465 482
f 481 483 470
f 470 483 484
f 470 484 485
f 486 487 488
f 488 487 489
f 488 489 465
f 465 489 490
f 465 490 482
f 484 491 485
f 485 491 492
f 485 492 289
f 289 492 493
f 493 494 289
f 289 494 295
f 289 295 287
f 287 295 297
f 495 496 497
f 495 497 465
f 498 488 499
f 499 488 465
f 499 465 500
f 500 465 497
f 501 502 495
f 495 502 503
f 495 503 496
f 498 504 488
f 488 504 295
f 488 295 486
f 486 295 494
f 504 505 295
f 295 505 506
f 295 506 286
f 286 506 507
f 286 507 501
f 501 507 508
f 501 508 502
f 509 495 510
f 511 512 465
f 465 512 513
f 465 513 495
f 495 513 514
f 495 514 510
f 511 465 515
f 515 465 467
f 515 467 516
f 516 467 517
f 517 467 475
f 517 475 518
f 510 519 509
f 509 519 520
f 509 520 521
f 521 520 522
f 523 475 524
f 524 475 478
f 524 478 525
f 525 478 526
f 523 527 475
f 475 527 528
f 475 528 390
f 528 529 390
f 390 529 530
f 390 530 401
f 401 530 531
f 531 532 401
f 401 532 533
f 401 533 478
f 478 533 534
f 478 534 526
f 535 536 521
f 537 538 475
f 522 518 521
f 521 518 475
f 521 475 535
f 535 475 538
f 536 539 521
f 521 539 540
f 521 540 281
f 281 540 541
f 281 541 542
f 542 543 281
f 281 543 390
f 281 390 279
f 279 390 392
f 543 544 390
f 390 544 545
f 390 545 475
f 475 545 546
f 475 546 537
f 394 399 395
f 395 399 401
f 395 401 437
f 437 401 478
f 437 478 442
f 442 478 468
f 442 468 452
f 452 468 470
f 452 470 278
f 278 470 485
f 278 485 276
f 276 485 289
f 276 289 274
f 274 289 292
f 373 377 281
f 281 377 366
f 281 366 521
f 521 366 364
f 521 364 509
f 509 364 361
f 509 361 495
f 495 361 359
f 495 359 501
f 501 359 344
f 501 344 286
f 286 344 321
f 286 321 284
f 284 321 332
f 356 51 357
f 357 51 49
f 357 49 350
f 350 49 48
f 350 48 351
f 351 48 42
f 351 42 362
f 362 42 41
f 362 41 360
f 360 41 40
f 360 40 358
f 358 40 53
f 95 285 85
f 85 285 284
f 85 284 86
f 86 284 332
f 86 332 68
f 68 332 331
f 68 331 69
f 69 331 330
f 69 330 70
f 70 330 329
f 70 329 71
f 71 329 335
f 71 335 72
f 72 335 334
f 72 334 73
f 73 334 333
f 73 333 74
f 74 333 338
f 74 338 75
f 75 338 337
f 75 337 76
f 76 337 336
f 76 336 77
f 77 336 341
f 77 341 78
f 78 341 340
f 78 340 79
f 79 340 339
f 79 339 80
f 80 339 343
f 80 343 81
f 81 343 342
f 81 342 82
f 82 342 328
f 82 328 83
f 83 328 327
f 83 327 65
f 65 327 326
f 65 326 66
f 66 326 325
f 66 325 67
f 67 325 324
f 67 324 58
f 58 324 323
f 58 323 59
f 59 323 320
f 59 320 61
f 61 320 319
f 61 319 62
f 62 319 322
f 62 322 63
f 63 322 349
f 63 349 64
f 64 349 348
f 64 348 47
f 47 348 355
f 47 355 50
f 50 355 352
f 50 352 43
f 43 352 368
f 43 368 44
f 44 368 363
f 44 363 37
f 37 363 365
f 37 365 38
f 38 365 367
f 38 367 33
f 33 367 371
f 33 371 34
f 34 371 370
f 34 370 35
f 35 370 369
f 35 369 26
f 26 369 381
f 26 381 27
f 27 381 383
f 27 383 29
f 29 383 387
f 29 387 31
f 31 387 386
f 31 386 32
f 32 386 385
f 32 385 22
f 22 385 374
f 22 374 20
f 20 374 280
f 20 280 12
f 12 280 279
f 12 279 8
f 8 279 392
f 8 392 9
f 9 392 391
f 9 391 10
f 10 391 389
f 10 389 4
f 106 304 93
f 93 304 305
f 93 305 95
f 95 305 310
f 95 310 285
f 380 13 382
f 382 13 28
f 382 28 384
f 384 28 30
f 384 30 375
f 375 30 21
f 375 21 376
f 376 21 19
f 376 19 282
f 282 19 25
f 282 25 283
f 283 25 24
f 415 154 416
f 416 154 159
f 416 159 410
f 410 159 158
f 410 158 413
f 413 158 172
f 413 172 396
f 396 172 170
f 396 170 397
f 397 170 168
f 397 168 393
f 393 168 166
f 453 143 454
f 454 143 141
f 454 141 440
f 440 141 139
f 440 139 441
f 441 139 138
f 441 138 446
f 446 138 137
f 446 137 447
f 447 137 136
f 447 136 449
f 449 136 134
f 304 106 118
f 304 118 302
f 302 118 117
f 302 117 300
f 300 117 107
f 300 107 292
f 292 107 124
f 292 124 274
f 274 124 123
f 274 123 275
f 275 123 122
f 275 122 461
f 461 122 121
f 461 121 462
f 462 121 120
f 462 120 458
f 458 120 130
f 458 130 459
f 459 130 129
f 459 129 460
f 460 129 128
f 460 128 277
f 277 128 133
f 277 133 448
f 448 133 443
f 443 133 135
f 443 135 444
f 135 148 444
f 444 148 146
f 444 146 445
f 445 146 145
f 445 145 438
f 438 145 153
f 438 153 439
f 439 153 152
f 439 152 436
f 436 152 150
f 436 150 435
f 435 150 149
f 435 149 404
f 404 149 167
f 404 167 398
f 398 167 169
f 398 169 411
f 411 169 171
f 411 171 412
f 412 171 173
f 412 173 419
f 419 173 174
f 419 174 420
f 420 174 189
f 420 189 421
f 421 189 188
f 421 188 433
f 433 188 187
f 433 187 434
f 434 187 186
f 434 186 430
f 430 186 185
f 430 185 431
f 431 185 184
f 431 184 432
f 432 184 183
f 432 183 427
f 427 183 182
f 427 182 428
f 428 182 181
f 428 181 429
f 429 181 180
f 429 180 424
f 424 180 179
f 424 179 425
f 425 179 178
f 425 178 426
f 426 178 177
f 426 177 423
f 423 177 176
f 423 176 422
f 422 176 175
f 422 175 414
f 414 175 162
f 414 162 408
f 408 162 161
f 408 161 409
f 409 161 160
f 409 160 418
f 418 160 157
f 418 157 417
f 417 157 2
f 417 2 405
f 405 2 1
f 405 1 406
f 406 1 7
f 406 7 407
f 407 7 5
f 407 5 388
f 388 5 4
f 388 4 389
f 449 134 450
f 450 134 132
f 450 132 455
f 455 132 131
f 455 131 456
f 456 131 126
f 456 126 457
f 457 126 125
f 457 125 451
f 451 125 144
f 451 144 453
f 453 144 143
f 393 166 394
f 394 166 165
f 394 165 399
f 399 165 164
f 399 164 400
f 400 164 163
f 400 163 402
f 402 163 156
f 402 156 403
f 403 156 155
f 403 155 415
f 415 155 154
f 283 24 372
f 372 24 23
f 372 23 373
f 373 23 18
f 373 18 377
f 377 18 17
f 377 17 378
f 378 17 16
f 378 16 379
f 379 16 14
f 379 14 380
f 380 14 13
f 358 53 345
f 345 53 55
f 345 55 346
f 346 55 57
f 346 57 347
f 347 57 46
f 347 46 353
f 353 46 45
f 353 45 354
f 354 45 52
f 354 52 356
f 356 52 51
f 272 546 273
f 273 546 545
f 273 545 266
f 266 545 544
f 266 544 267
f 267 544 543
f 267 543 268
f 268 543 542
f 268 542 269
f 269 542 541
f 269 541 270
f 270 541 540
f 270 540 265
f 265 540 539
f 265 539 264
f 264 539 536
f 264 536 263
f 263 536 535
f 263 535 262
f 262 535 538
f 262 538 271
f 271 538 537
f 271 537 272
f 272 537 546
f 253 534 250
f 250 534 533
f 250 533 251
f 251 533 532
f 251 532 258
f 258 532 531
f 258 531 259
f 259 531 530
f 259 530 260
f 260 530 529
f 260 529 261
f 261 529 528
f 261 528 254
f 254 528 527
f 254 527 255
f 255 527 523
f 255 523 256
f 256 523 524
f 256 524 257
f 257 524 525
f 257 525 252
f 252 525 526
f 252 526 253
f 253 526 534
f 202 469 203
f 203 469 480
f 203 480 205
f 205 480 479
f 205 479 206
f 206 479 477
f 206 477 195
f 195 477 476
f 195 476 194
f 194 476 474
f 194 474 192
f 192 474 473
f 192 473 190
f 190 473 466
f 190 466 196
f 196 466 464
f 196 464 197
f 197 464 463
f 197 463 199
f 199 463 472
f 199 472 200
f 200 472 471
f 200 471 202
f 202 471 469
f 209 491 210
f 210 491 484
f 210 484 211
f 211 484 483
f 211 483 212
f 212 483 481
f 212 481 213
f 213 481 482
f 213 482 214
f 214 482 490
f 214 490 215
f 215 490 489
f 215 489 217
f 217 489 487
f 217 487 218
f 218 487 486
f 218 486 219
f 219 486 494
f 219 494 220
f 220 494 493
f 220 493 221
f 221 493 492
f 221 492 209
f 209 492 491
f 115 291 110
f 110 291 290
f 110 290 111
f 111 290 288
f 111 288 113
f 113 288 287
f 113 287 114
f 114 287 297
f 114 297 102
f 102 297 296
f 102 296 103
f 103 296 294
f 103 294 104
f 104 294 293
f 104 293 105
f 105 293 303
f 105 303 116
f 116 303 301
f 116 301 108
f 108 301 299
f 108 299 109
f 109 299 298
f 109 298 115
f 115 298 291
f 99 307 100
f 100 307 306
f 100 306 101
f 101 306 315
f 101 315 88
f 88 315 314
f 88 314 87
f 87 314 313
f 87 313 90
f 90 313 312
f 90 312 91
f 91 312 318
f 91 318 97
f 97 318 317
f 97 317 96
f 96 317 316
f 96 316 94
f 94 316 311
f 94 311 92
f 92 311 309
f 92 309 98
f 98 309 308
f 98 308 99
f 99 308 307
f 224 498 222
f 222 498 499
f 222 499 223
f 223 499 500
f 223 500 225
f 225 500 497
f 225 497 226
f 226 497 496
f 226 496 228
f 228 496 503
f 228 503 230
f 230 503 502
f 230 502 231
f 231 502 508
f 231 508 232
f 232 508 507
f 232 507 233
f 233 507 506
f 233 506 234
f 234 506 505
f 234 505 235
f 235 505 504
f 235 504 224
f 224 504 498
f 243 515 244
f 244 515 516
f 244 516 245
f 245 516 517
f 245 517 246
f 246 517 518
f 246 518 248
f 248 518 522
f 248 522 249
f 249 522 520
f 249 520 237
f 237 520 519
f 237 519 238
f 238 519 510
f 238 510 239
f 239 510 514
f 239 514 240
f 240 514 513
f 240 513 241
f 241 513 512
f 241 512 242
f 242 512 511
f 242 511 243
f 243 511 515
