# Converted from resources/robots/b2z1_pcl/meshes/top_camera_plat_b_link.dae
# DAE scene node transforms intentionally not baked; URDF link frames already define mesh placement.
o geom_0_prim_0
v 0.0110010197 -0.0305000003 0.00582594983
v 0.0110010197 -0.0324999988 0.00582594983
v 0.0118932296 -0.0305000003 0.00514282985
v 0.0118932296 -0.0324999988 0.00514282985
v 0.0129903797 -0.0305000003 0.00490000006
v 0.0129903797 -0.0324999988 0.00490000006
v 0.0110010197 0.0324999988 0.00582594983
v 0.0110010197 0.0305000003 0.00582594983
v 0.0118932296 0.0324999988 0.00514282985
v 0.0118932296 0.0305000003 0.00514282985
v 0.0129903797 0.0324999988 0.00490000006
v 0.0129903797 0.0305000003 0.00490000006
v -6.86200001e-05 0.0324999988 0.0025990901
v -6.86200001e-05 0.0305000003 0.0025990901
v -0.0013296 0.0324999988 0.00223430991
v -0.0013296 0.0305000003 0.00223430991
v -0.00225167 0.0324999988 0.0013
v -0.00225167 0.0305000003 0.0013
v -0.00259976997 0.0324999988 3.431e-05
v -0.00259976997 0.0305000003 3.431e-05
v -0.00228518993 0.0324999988 -0.00124012004
v -0.00228518993 0.0305000003 -0.00124012004
v 0.00673050014 0.0324999988 0.0077755698
v 0.00673050014 0.0305000003 0.0077755698
v 0.00545606995 0.0324999988 0.00809014961
v 0.00545606995 0.0305000003 0.00809014961
v 0.00419038022 0.0324999988 0.0077420501
v 0.00419038022 0.0305000003 0.0077420501
v 0.00325606996 0.0324999988 0.00681998022
v 0.00325606996 0.0305000003 0.00681998022
v 0.00289129 0.0324999988 0.00555900019
v 0.00289129 0.0305000003 0.00555900019
v 0.00673050014 -0.0305000003 0.0077755698
v 0.00673050014 -0.0324999988 0.0077755698
v 0.00545606995 -0.0305000003 0.00809014961
v 0.00545606995 -0.0324999988 0.00809014961
v 0.00419038022 -0.0305000003 0.0077420501
v 0.00419038022 -0.0324999988 0.0077420501
v 0.00325606996 -0.0305000003 0.00681998022
v 0.00325606996 -0.0324999988 0.00681998022
v 0.00289129 -0.0305000003 0.00555900019
v 0.00289129 -0.0324999988 0.00555900019
v 0.00045508999 -0.0305000003 -0.00255986
v 0.00045508999 -0.0324999988 -0.00255986
v 0.00149279996 -0.0305000003 -0.00212874007
v 0.00149279996 -0.0324999988 -0.00212874007
v 0.00225167 -0.0305000003 -0.0013
v 0.00225167 -0.0324999988 -0.0013
v 0.00258995011 -0.0305000003 -0.000228429999
v 0.00258995011 -0.0324999988 -0.000228429999
v 0.00244445005 -0.0305000003 0.000885810005
v 0.00244445005 -0.0324999988 0.000885810005
v -0.00336859003 -0.0305000003 -0.00528343022
v -0.00336859003 -0.0324999988 -0.00528343022
v -0.00428823009 -0.0305000003 -0.00624783011
v -0.00428823009 -0.0324999988 -0.00624783011
v -0.00460929004 -0.0305000003 -0.00754118012
v -0.00460929004 -0.0324999988 -0.00754118012
v -0.00424744003 -0.0305000003 -0.00882370025
v -0.00424744003 -0.0324999988 -0.00882370025
v -0.00329771009 -0.0305000003 -0.00975850038
v -0.00329771009 -0.0324999988 -0.00975850038
v -0.00200961996 -0.0305000003 -0.0100999996
v -0.00200961996 -0.0324999988 -0.0100999996
v -6.86200001e-05 -0.0305000003 0.0025990901
v -6.86200001e-05 -0.0324999988 0.0025990901
v -0.0013296 -0.0305000003 0.00223430991
v -0.0013296 -0.0324999988 0.00223430991
v -0.00225167 -0.0305000003 0.0013
v -0.00225167 -0.0324999988 0.0013
v -0.00259976997 -0.0305000003 3.431e-05
v -0.00259976997 -0.0324999988 3.431e-05
v -0.00228518993 -0.0305000003 -0.00124012004
v -0.00228518993 -0.0324999988 -0.00124012004
v 0.0046045701 0.0324999988 0.00304593006
v 0.0046045701 0.0305000003 0.00304593006
v 0.00549037987 0.0324999988 0.0028903801
v 0.00549037987 0.0305000003 0.0028903801
v 0.00045508999 0.0324999988 -0.00255986
v 0.00045508999 0.0305000003 -0.00255986
v 0.00149279996 0.0324999988 -0.00212874007
v 0.00149279996 0.0305000003 -0.00212874007
v 0.00225167 0.0324999988 -0.0013
v 0.00225167 0.0305000003 -0.0013
v 0.00258995011 0.0324999988 -0.000228429999
v 0.00258995011 0.0305000003 -0.000228429999
v 0.00244445005 0.0324999988 0.000885810005
v 0.00244445005 0.0305000003 0.000885810005
v 0.0046045701 -0.0305000003 0.00304593006
v 0.0046045701 -0.0324999988 0.00304593006
v 0.00549037987 -0.0305000003 0.0028903801
v 0.00549037987 -0.0324999988 0.0028903801
v -0.00336859003 0.0324999988 -0.00528343022
v -0.00336859003 0.0305000003 -0.00528343022
v -0.00428823009 0.0324999988 -0.00624783011
v -0.00428823009 0.0305000003 -0.00624783011
v -0.00460929004 0.0324999988 -0.00754118012
v -0.00460929004 0.0305000003 -0.00754118012
v -0.00424744003 0.0324999988 -0.00882370025
v -0.00424744003 0.0305000003 -0.00882370025
v -0.00329771009 0.0324999988 -0.00975850038
v -0.00329771009 0.0305000003 -0.00975850038
v -0.00200961996 0.0324999988 -0.0100999996
v -0.00200961996 0.0305000003 -0.0100999996
v 0.0279903803 0.0285 0.0135000004
v 0.0279903803 0.0285 0.00150000001
v 0.0276858993 0.0300307292 0.00150000001
v 0.0276858993 0.0300307292 0.0135000004
v 0.02681881 0.0313284285 0.00150000001
v 0.02681881 0.0313284285 0.0135000004
v 0.0255211107 0.0321955197 0.00150000001
v 0.0255211107 0.0321955197 0.0135000004
v 0.0239903796 0.0324999988 0.00150000001
v 0.0239903796 0.0324999988 0.0135000004
v 0.0239903796 -0.0324999988 0.0135000004
v 0.0239903796 -0.0324999988 0.00150000001
v 0.0255211107 -0.0321955197 0.00150000001
v 0.0255211107 -0.0321955197 0.0135000004
v 0.02681881 -0.0313284285 0.00150000001
v 0.02681881 -0.0313284285 0.0135000004
v 0.0276858993 -0.0300307292 0.00150000001
v 0.0276858993 -0.0300307292 0.0135000004
v 0.0279903803 -0.0285 0.00150000001
v 0.0279903803 -0.0285 0.0135000004
v 0.0239903796 -0.0305000003 0.00150000001
v 0.0239903796 -0.0305000003 0.0135000004
v 0.0249903798 -0.0302320495 0.00150000001
v 0.0249903798 -0.0302320495 0.0135000004
v 0.0257224292 -0.0295000002 0.00150000001
v 0.0257224292 -0.0295000002 0.0135000004
v 0.02599038 -0.0285 0.00150000001
v 0.02599038 -0.0285 0.0135000004
v 0.0239903796 0.0305000003 0.0135000004
v 0.0239903796 0.0305000003 0.00150000001
v 0.0249903798 0.0302320495 0.0135000004
v 0.0249903798 0.0302320495 0.00150000001
v 0.0257224292 0.0295000002 0.0135000004
v 0.0257224292 0.0295000002 0.00150000001
v 0.02599038 0.0285 0.0135000004
v 0.02599038 0.0285 0.00150000001
v -0.000335569988 0.0305000003 -0.00551063986
v -0.00033653999 0.0305000003 -0.00534520997
v -0.000335569988 0.0324999988 -0.00551063986
v -0.00033653999 0.0324999988 -0.00534520997
v 0.00805023964 -0.0324999988 0.00503529003
v 0.00819301978 -0.0324999988 0.00511885015
v 0.00805023964 -0.0305000003 0.00503529003
v 0.00819301978 -0.0305000003 0.00511885015
v 0.000371530012 0.0305000003 -0.0027026399
v 0.000371530012 0.0324999988 -0.0027026399
v 0.00446082 0.0305000003 0.00296406006
v 0.00446082 0.0324999988 0.00296406006
v 0.00252632005 0.0305000003 0.00102955999
v 0.00252632005 0.0324999988 0.00102955999
v -0.00334784994 0.0324999988 -0.00519521022
v -0.00334784994 0.0305000003 -0.00519521022
v 0.00446082 -0.0324999988 0.00296406006
v 0.00446082 -0.0305000003 0.00296406006
v -6.54999985e-06 -0.0305000003 0.00266512996
v -6.54999985e-06 -0.0324999988 0.00266512996
v -0.00231134007 -0.0305000003 -0.00132688996
v -0.00231134007 -0.0324999988 -0.00132688996
v -0.00334784994 -0.0305000003 -0.00519521022
v -0.00334784994 -0.0324999988 -0.00519521022
v 0.00252632005 -0.0324999988 0.00102955999
v 0.00252632005 -0.0305000003 0.00102955999
v 0.000371530012 -0.0324999988 -0.0027026399
v 0.000371530012 -0.0305000003 -0.0027026399
v 0.00282525993 -0.0305000003 0.00549692987
v 0.00282525993 -0.0324999988 0.00549692987
v 0.00681727007 0.0324999988 0.00780171994
v 0.00681727007 0.0305000003 0.00780171994
v 0.00805023964 0.0305000003 0.00503529003
v 0.00819301978 0.0305000003 0.00511885015
v 0.00805023964 0.0324999988 0.00503529003
v 0.00819301978 0.0324999988 0.00511885015
v -6.54999985e-06 0.0324999988 0.00266512996
v -6.54999985e-06 0.0305000003 0.00266512996
v 0.0108355898 0.0305000003 0.00582691981
v 0.0108355898 0.0324999988 0.00582691981
v 0.00681727007 -0.0305000003 0.00780171994
v 0.00681727007 -0.0324999988 0.00780171994
v 0.0108355898 -0.0324999988 0.00582691981
v 0.0108355898 -0.0305000003 0.00582691981
v 0.0106855901 0.0324999988 0.00883824006
v 0.0107738096 0.0324999988 0.00885897968
v 0.0106855901 0.0305000003 0.00883824006
v 0.0107738096 0.0305000003 0.00885897968
v 0.0106855901 -0.0305000003 0.00883824006
v 0.0107738096 -0.0305000003 0.00885897968
v 0.0106855901 -0.0324999988 0.00883824006
v 0.0107738096 -0.0324999988 0.00885897968
v -0.00231134007 0.0324999988 -0.00132688996
v -0.00231134007 0.0305000003 -0.00132688996
v 0.00282525993 0.0324999988 0.00549692987
v 0.00282525993 0.0305000003 0.00549692987
v -0.000335569988 -0.0324999988 -0.00551063986
v -0.00033653999 -0.0324999988 -0.00534520997
v -0.000335569988 -0.0305000003 -0.00551063986
v -0.00033653999 -0.0305000003 -0.00534520997
v 0.0279903803 0.0225000009 0.00590000022
v 0.02599038 0.0225000009 0.00590000022
v 0.0279903803 0.0217000004 0.00611435995
v 0.02599038 0.0217000004 0.00611435995
v 0.0279903803 0.0211143605 0.00669999979
v 0.02599038 0.0211143605 0.00669999979
v 0.0279903803 0.0208999999 0.00749999983
v 0.02599038 0.0208999999 0.00749999983
v 0.0279903803 0.0211143605 0.00829999987
v 0.02599038 0.0211143605 0.00829999987
v 0.0279903803 0.0217000004 0.00888563972
v 0.02599038 0.0217000004 0.00888563972
v 0.0279903803 0.0225000009 0.00910000037
v 0.02599038 0.0225000009 0.00910000037
v 0.0279903803 -0.0225000009 0.00590000022
v 0.02599038 -0.0225000009 0.00590000022
v 0.0279903803 -0.0232999995 0.00611435995
v 0.02599038 -0.0232999995 0.00611435995
v 0.0279903803 -0.0238856394 0.00669999979
v 0.02599038 -0.0238856394 0.00669999979
v 0.0279903803 -0.0241 0.00749999983
v 0.02599038 -0.0241 0.00749999983
v 0.0279903803 -0.0238856394 0.00829999987
v 0.02599038 -0.0238856394 0.00829999987
v 0.0279903803 -0.0232999995 0.00888563972
v 0.02599038 -0.0232999995 0.00888563972
v 0.0279903803 -0.0225000009 0.00910000037
v 0.02599038 -0.0225000009 0.00910000037
v -0.00294739008 -0.0324999988 -0.00322949002
v -0.00294739008 -0.0305000003 -0.00322949002
v 0.00132311997 -0.0324999988 0.00416726014
v 0.00132311997 -0.0305000003 0.00416726014
v 0.00871986989 -0.0324999988 0.00843777973
v 0.00871986989 -0.0305000003 0.00843777973
v -0.00294739008 0.0305000003 -0.00322949002
v -0.00294739008 0.0324999988 -0.00322949002
v 0.00132311997 0.0305000003 0.00416726014
v 0.00132311997 0.0324999988 0.00416726014
v 0.00871986989 0.0305000003 0.00843777973
v 0.00871986989 0.0324999988 0.00843777973
v 0.00399038009 -0.0324999988 -0.00749999983
v 0.00399038009 -0.0305000003 -0.00749999983
v 0.00429705018 -0.0324999988 -0.00517062983
v 0.00429705018 -0.0305000003 -0.00517062983
v 0.00519614993 -0.0324999988 -0.00300000003
v 0.00519614993 -0.0305000003 -0.00300000003
v 0.00662642019 -0.0324999988 -0.00113603997
v 0.00662642019 -0.0305000003 -0.00113603997
v 0.0084903799 -0.0324999988 0.000294230005
v 0.0084903799 -0.0305000003 0.000294230005
v 0.0106610097 -0.0324999988 0.00119333004
v 0.0106610097 -0.0305000003 0.00119333004
v 0.0129903797 -0.0324999988 0.00150000001
v 0.0129903797 -0.0305000003 0.00150000001
v -0.00800962001 -0.0324999988 -0.00749999983
v -0.00800962001 -0.0305000003 -0.00749999983
v -0.00764777977 -0.0305000003 -0.00955212023
v -0.00764777977 -0.0324999988 -0.00955212023
v -0.00660589011 -0.0305000003 -0.01135673
v -0.00660589011 -0.0324999988 -0.01135673
v -0.00500961998 -0.0305000003 -0.0126961498
v -0.00500961998 -0.0324999988 -0.0126961498
v -0.00305151008 -0.0305000003 -0.0134088499
v -0.00305151008 -0.0324999988 -0.0134088499
v -0.000967730011 -0.0305000003 -0.0134088499
v -0.000967730011 -0.0324999988 -0.0134088499
v 0.000990379951 -0.0305000003 -0.0126961498
v 0.000990379951 -0.0324999988 -0.0126961498
v 0.00258664996 -0.0305000003 -0.01135673
v 0.00258664996 -0.0324999988 -0.01135673
v 0.00362854009 -0.0305000003 -0.00955212023
v 0.00362854009 -0.0324999988 -0.00955212023
v 0.0129903797 -0.0324999988 0.0135000004
v 0.0129903797 -0.0305000003 0.0135000004
v 0.00934377033 -0.0305000003 0.01318096
v 0.00934377033 -0.0324999988 0.01318096
v 0.00580795994 -0.0305000003 0.0122335497
v 0.00580795994 -0.0324999988 0.0122335497
v 0.00249038008 -0.0305000003 0.0106865298
v 0.00249038008 -0.0324999988 0.0106865298
v -0.000508159981 -0.0305000003 0.00858693011
v -0.000508159981 -0.0324999988 0.00858693011
v -0.00309655 -0.0305000003 0.0059985402
v -0.00309655 -0.0324999988 0.0059985402
v -0.00519614993 -0.0305000003 0.00300000003
v -0.00519614993 -0.0324999988 0.00300000003
v -0.00674316008 -0.0305000003 -0.000317580008
v -0.00674316008 -0.0324999988 -0.000317580008
v -0.0076905801 -0.0305000003 -0.00385338999
v -0.0076905801 -0.0324999988 -0.00385338999
v 0.02599038 -0.0211143605 0.00829999987
v 0.02599038 -0.0217000004 0.00888563972
v 0.02599038 0.0232999995 0.00611435995
v 0.02599038 0.0238856394 0.00669999979
v 0.02599038 0.0241 0.00749999983
v 0.02599038 0.0238856394 0.00829999987
v 0.02599038 0.0232999995 0.00888563972
v 0.02599038 -0.0208999999 0.00749999983
v 0.02599038 -0.0211143605 0.00669999979
v 0.02599038 -0.0217000004 0.00611435995
v 0.0279903803 -0.0211143605 0.00829999987
v 0.0279903803 -0.0217000004 0.00888563972
v 0.0279903803 0.0232999995 0.00888563972
v 0.0279903803 0.0238856394 0.00829999987
v 0.0279903803 0.0241 0.00749999983
v 0.0279903803 0.0238856394 0.00669999979
v 0.0279903803 0.0232999995 0.00611435995
v 0.0279903803 -0.0208999999 0.00749999983
v 0.0279903803 -0.0211143605 0.00669999979
v 0.0279903803 -0.0217000004 0.00611435995
v 0.0129903797 0.0324999988 0.0135000004
v 0.0129903797 0.0305000003 0.0135000004
v 0.0129903797 0.0305000003 0.00150000001
v 0.0129903797 0.0324999988 0.00150000001
v 0.00934377033 0.0324999988 0.01318096
v 0.00934377033 0.0305000003 0.01318096
v 0.00580795994 0.0324999988 0.0122335497
v 0.00580795994 0.0305000003 0.0122335497
v 0.00249038008 0.0324999988 0.0106865298
v 0.00249038008 0.0305000003 0.0106865298
v -0.000508159981 0.0324999988 0.00858693011
v -0.000508159981 0.0305000003 0.00858693011
v -0.00309655 0.0324999988 0.0059985402
v -0.00309655 0.0305000003 0.0059985402
v -0.00519614993 0.0324999988 0.00300000003
v -0.00519614993 0.0305000003 0.00300000003
v -0.00674316008 0.0324999988 -0.000317580008
v -0.00674316008 0.0305000003 -0.000317580008
v -0.0076905801 0.0324999988 -0.00385338999
v -0.0076905801 0.0305000003 -0.00385338999
v -0.00800962001 0.0324999988 -0.00749999983
v -0.00800962001 0.0305000003 -0.00749999983
v 0.00399038009 0.0305000003 -0.00749999983
v 0.00399038009 0.0324999988 -0.00749999983
v 0.00429705018 0.0305000003 -0.00517062983
v 0.00429705018 0.0324999988 -0.00517062983
v 0.00519614993 0.0305000003 -0.00300000003
v 0.00519614993 0.0324999988 -0.00300000003
v 0.00662642019 0.0305000003 -0.00113603997
v 0.00662642019 0.0324999988 -0.00113603997
v 0.0084903799 0.0305000003 0.000294230005
v 0.0084903799 0.0324999988 0.000294230005
v 0.0106610097 0.0305000003 0.00119333004
v 0.0106610097 0.0324999988 0.00119333004
v -0.00764777977 0.0324999988 -0.00955212023
v -0.00764777977 0.0305000003 -0.00955212023
v -0.00660589011 0.0324999988 -0.01135673
v -0.00660589011 0.0305000003 -0.01135673
v -0.00500961998 0.0324999988 -0.0126961498
v -0.00500961998 0.0305000003 -0.0126961498
v -0.00305151008 0.0324999988 -0.0134088499
v -0.00305151008 0.0305000003 -0.0134088499
v -0.000967730011 0.0324999988 -0.0134088499
v -0.000967730011 0.0305000003 -0.0134088499
v 0.000990379951 0.0324999988 -0.0126961498
v 0.000990379951 0.0305000003 -0.0126961498
v 0.00258664996 0.0324999988 -0.01135673
v 0.00258664996 0.0305000003 -0.01135673
v 0.00362854009 0.0324999988 -0.00955212023
v 0.00362854009 0.0305000003 -0.00955212023
v 0.0117202103 0.0305000003 0.00976863038
v 0.0152420504 0.0305000003 0.00879999995
v 0.0155903799 0.0305000003 0.00749999983
v 0.000402159989 0.0305000003 -0.00652873982
v 0.000575909973 0.0305000003 -0.00777396001
v 0.000145059996 0.0305000003 -0.00895512011
v -0.000789640006 0.0305000003 -0.00979601033
v 0.00757443998 0.0305000003 0.00393581018
v 0.00665616989 0.0305000003 0.00316638988
v 0.0129903797 0.0305000003 0.0100999996
v 0.0142903803 0.0305000003 0.00975167006
v 0.0152420504 0.0305000003 0.00620000018
v 0.0142903803 0.0305000003 0.00524833007
v 0.0152420504 0.0324999988 0.00620000018
v 0.0155903799 0.0324999988 0.00749999983
v -0.000789640006 0.0324999988 -0.00979601033
v 0.0152420504 0.0324999988 0.00879999995
v 0.0142903803 0.0324999988 0.00975167006
v 0.0129903797 0.0324999988 0.0100999996
v 0.0117202103 0.0324999988 0.00976863038
v 0.000145059996 0.0324999988 -0.00895512011
v 0.000575909973 0.0324999988 -0.00777396001
v 0.0142903803 0.0324999988 0.00524833007
v 0.000402159989 0.0324999988 -0.00652873982
v 0.00665616989 0.0324999988 0.00316638988
v 0.00757443998 0.0324999988 0.00393581018
v 0.0152420504 -0.0305000003 0.00620000018
v 0.0155903799 -0.0305000003 0.00749999983
v -0.000789640006 -0.0305000003 -0.00979601033
v 0.0152420504 -0.0305000003 0.00879999995
v 0.0142903803 -0.0305000003 0.00975167006
v 0.0129903797 -0.0305000003 0.0100999996
v 0.0117202103 -0.0305000003 0.00976863038
v 0.000145059996 -0.0305000003 -0.00895512011
v 0.000575909973 -0.0305000003 -0.00777396001
v 0.0142903803 -0.0305000003 0.00524833007
v 0.000402159989 -0.0305000003 -0.00652873982
v 0.00665616989 -0.0305000003 0.00316638988
v 0.00757443998 -0.0305000003 0.00393581018
v 0.0152420504 -0.0324999988 0.00879999995
v 0.0155903799 -0.0324999988 0.00749999983
v 0.000145059996 -0.0324999988 -0.00895512011
v 0.000575909973 -0.0324999988 -0.00777396001
v 0.000402159989 -0.0324999988 -0.00652873982
v -0.000789640006 -0.0324999988 -0.00979601033
v 0.0117202103 -0.0324999988 0.00976863038
v 0.00757443998 -0.0324999988 0.00393581018
v 0.00665616989 -0.0324999988 0.00316638988
v 0.0129903797 -0.0324999988 0.0100999996
v 0.0142903803 -0.0324999988 0.00975167006
v 0.0152420504 -0.0324999988 0.00620000018
v 0.0142903803 -0.0324999988 0.00524833007
f 1 2 3
f 3 2 4
f 3 4 5
f 5 4 6
f 7 8 9
f 9 8 10
f 9 10 11
f 11 10 12
f 13 14 15
f 15 14 16
f 15 16 17
f 17 16 18
f 17 18 19
f 19 18 20
f 19 20 21
f 21 20 22
f 23 24 25
f 25 24 26
f 25 26 27
f 27 26 28
f 27 28 29
f 29 28 30
f 29 30 31
f 31 30 32
f 33 34 35
f 35 34 36
f 35 36 37
f 37 36 38
f 37 38 39
f 39 38 40
f 39 40 41
f 41 40 42
f 43 44 45
f 45 44 46
f 45 46 47
f 47 46 48
f 47 48 49
f 49 48 50
f 49 50 51
f 51 50 52
f 53 54 55
f 55 54 56
f 55 56 57
f 57 56 58
f 57 58 59
f 59 58 60
f 59 60 61
f 61 60 62
f 61 62 63
f 63 62 64
f 65 66 67
f 67 66 68
f 67 68 69
f 69 68 70
f 69 70 71
f 71 70 72
f 71 72 73
f 73 72 74
f 75 76 77
f 77 76 78
f 79 80 81
f 81 80 82
f 81 82 83
f 83 82 84
f 83 84 85
f 85 84 86
f 85 86 87
f 87 86 88
f 89 90 91
f 91 90 92
f 93 94 95
f 95 94 96
f 95 96 97
f 97 96 98
f 97 98 99
f 99 98 100
f 99 100 101
f 101 100 102
f 101 102 103
f 103 102 104
f 105 106 107
f 105 107 108
f 108 107 109
f 108 109 110
f 110 109 111
f 110 111 112
f 112 111 113
f 112 113 114
f 115 116 117
f 115 117 118
f 118 117 119
f 118 119 120
f 120 119 121
f 120 121 122
f 122 121 123
f 122 123 124
f 125 126 127
f 127 126 128
f 127 128 129
f 129 128 130
f 129 130 131
f 131 130 132
f 133 134 135
f 135 134 136
f 135 136 137
f 137 136 138
f 137 138 139
f 139 138 140
f 141 142 143
f 143 142 144
f 145 146 147
f 147 146 148
f 149 80 150
f 150 80 79
f 151 76 152
f 152 76 75
f 88 153 87
f 87 153 154
f 93 155 94
f 94 155 156
f 157 90 158
f 158 90 89
f 65 159 66
f 66 159 160
f 161 73 162
f 162 73 74
f 53 163 54
f 54 163 164
f 52 165 51
f 51 165 166
f 167 44 168
f 168 44 43
f 169 41 170
f 170 41 42
f 23 171 24
f 24 171 172
f 173 174 175
f 175 174 176
f 13 177 14
f 14 177 178
f 179 8 180
f 180 8 7
f 33 181 34
f 34 181 182
f 183 2 184
f 184 2 1
f 185 186 187
f 187 186 188
f 189 190 191
f 191 190 192
f 193 21 194
f 194 21 22
f 195 31 196
f 196 31 32
f 197 198 199
f 199 198 200
f 201 202 203
f 203 202 204
f 203 204 205
f 205 204 206
f 205 206 207
f 207 206 208
f 207 208 209
f 209 208 210
f 209 210 211
f 211 210 212
f 211 212 213
f 213 212 214
f 215 216 217
f 217 216 218
f 217 218 219
f 219 218 220
f 219 220 221
f 221 220 222
f 221 222 223
f 223 222 224
f 223 224 225
f 225 224 226
f 225 226 227
f 227 226 228
f 164 163 229
f 229 163 230
f 229 230 162
f 162 230 161
f 160 159 231
f 231 159 232
f 231 232 170
f 170 232 169
f 182 181 233
f 233 181 234
f 233 234 191
f 191 234 189
f 184 148 183
f 183 148 146
f 158 166 157
f 157 166 165
f 168 200 167
f 167 200 198
f 152 154 151
f 151 154 153
f 150 144 149
f 149 144 142
f 156 155 235
f 235 155 236
f 235 236 194
f 194 236 193
f 178 177 237
f 237 177 238
f 237 238 196
f 196 238 195
f 172 171 239
f 239 171 240
f 239 240 187
f 187 240 185
f 180 176 179
f 179 176 174
f 241 242 243
f 243 242 244
f 243 244 245
f 245 244 246
f 245 246 247
f 247 246 248
f 247 248 249
f 249 248 250
f 249 250 251
f 251 250 252
f 251 252 253
f 253 252 254
f 255 256 257
f 255 257 258
f 258 257 259
f 258 259 260
f 260 259 261
f 260 261 262
f 262 261 263
f 262 263 264
f 264 263 265
f 264 265 266
f 266 265 267
f 266 267 268
f 268 267 269
f 268 269 270
f 270 269 271
f 270 271 272
f 272 271 242
f 272 242 241
f 273 274 275
f 273 275 276
f 276 275 277
f 276 277 278
f 278 277 279
f 278 279 280
f 280 279 281
f 280 281 282
f 282 281 283
f 282 283 284
f 284 283 285
f 284 285 286
f 286 285 287
f 286 287 288
f 288 287 289
f 288 289 290
f 290 289 256
f 290 256 255
f 139 291 292
f 222 220 131
f 131 220 218
f 202 293 140
f 140 293 294
f 140 294 139
f 222 131 224
f 224 131 132
f 224 132 226
f 139 292 132
f 132 292 228
f 132 228 226
f 294 295 139
f 139 295 296
f 139 296 297
f 202 140 204
f 204 140 131
f 204 131 206
f 297 214 139
f 139 214 212
f 139 212 291
f 291 212 210
f 291 210 298
f 298 210 208
f 298 208 299
f 299 208 206
f 299 206 300
f 300 206 131
f 300 131 216
f 216 131 218
f 225 227 124
f 301 201 203
f 213 105 211
f 211 105 124
f 211 124 302
f 302 124 227
f 213 303 105
f 105 303 304
f 105 304 106
f 106 304 305
f 203 205 301
f 301 205 207
f 301 207 302
f 302 207 209
f 302 209 211
f 305 306 106
f 106 306 307
f 106 307 201
f 217 219 123
f 123 219 221
f 123 221 124
f 124 221 223
f 124 223 225
f 301 308 201
f 201 308 309
f 201 309 106
f 106 309 310
f 106 310 123
f 123 310 215
f 123 215 217
f 274 273 126
f 126 273 115
f 126 115 128
f 311 312 114
f 114 312 133
f 114 133 112
f 112 133 135
f 112 135 110
f 110 135 137
f 115 118 128
f 128 118 120
f 128 120 130
f 130 120 122
f 130 122 132
f 132 122 124
f 132 124 139
f 139 124 105
f 139 105 137
f 137 105 108
f 137 108 110
f 313 314 134
f 134 314 113
f 134 113 136
f 253 254 116
f 116 254 125
f 116 125 117
f 117 125 127
f 117 127 119
f 119 127 129
f 113 111 136
f 136 111 109
f 136 109 138
f 138 109 107
f 138 107 140
f 140 107 106
f 140 106 131
f 131 106 123
f 131 123 129
f 129 123 121
f 129 121 119
f 312 311 315
f 312 315 316
f 316 315 317
f 316 317 318
f 318 317 319
f 318 319 320
f 320 319 321
f 320 321 322
f 322 321 323
f 322 323 324
f 324 323 325
f 324 325 326
f 326 325 327
f 326 327 328
f 328 327 329
f 328 329 330
f 330 329 331
f 330 331 332
f 333 334 335
f 335 334 336
f 335 336 337
f 337 336 338
f 337 338 339
f 339 338 340
f 339 340 341
f 341 340 342
f 341 342 343
f 343 342 344
f 343 344 313
f 313 344 314
f 332 331 345
f 332 345 346
f 346 345 347
f 346 347 348
f 348 347 349
f 348 349 350
f 350 349 351
f 350 351 352
f 352 351 353
f 352 353 354
f 354 353 355
f 354 355 356
f 356 355 357
f 356 357 358
f 358 357 359
f 358 359 360
f 360 359 334
f 360 334 333
f 98 96 330
f 330 332 98
f 98 332 346
f 98 346 100
f 100 346 348
f 100 348 102
f 102 348 350
f 102 350 104
f 194 22 20
f 196 32 30
f 187 188 361
f 133 362 134
f 134 362 363
f 335 364 333
f 333 364 365
f 333 365 360
f 360 365 366
f 350 352 104
f 104 352 354
f 104 354 367
f 367 354 356
f 367 356 366
f 366 356 358
f 366 358 360
f 153 88 86
f 235 328 156
f 156 328 330
f 156 330 94
f 94 330 96
f 235 194 328
f 328 194 20
f 328 20 326
f 326 20 18
f 326 18 324
f 324 18 16
f 237 322 178
f 178 322 324
f 178 324 14
f 14 324 16
f 237 196 322
f 322 196 30
f 322 30 320
f 320 30 28
f 320 28 318
f 318 28 26
f 343 368 341
f 341 368 369
f 341 369 339
f 239 316 172
f 172 316 318
f 172 318 24
f 24 318 26
f 239 187 316
f 316 187 361
f 316 361 312
f 312 361 370
f 312 370 133
f 133 370 371
f 133 371 362
f 363 372 134
f 134 372 373
f 134 373 313
f 313 373 12
f 313 12 343
f 343 12 10
f 343 10 8
f 173 368 174
f 174 368 343
f 174 343 179
f 179 343 8
f 369 78 339
f 339 78 76
f 339 76 151
f 141 364 142
f 142 364 335
f 142 335 149
f 149 335 80
f 151 153 339
f 339 153 86
f 339 86 337
f 337 86 84
f 337 84 335
f 335 84 82
f 335 82 80
f 155 93 95
f 113 374 114
f 114 374 375
f 99 101 349
f 177 13 15
f 171 23 25
f 349 101 351
f 351 101 103
f 351 103 353
f 353 103 376
f 353 376 355
f 375 377 114
f 114 377 378
f 114 378 311
f 311 378 379
f 311 379 315
f 315 379 380
f 31 195 321
f 321 195 238
f 321 238 323
f 238 177 323
f 323 177 15
f 323 15 325
f 325 15 17
f 325 17 327
f 327 17 19
f 355 376 357
f 357 376 381
f 357 381 359
f 359 381 382
f 359 382 334
f 317 315 240
f 329 327 236
f 380 186 315
f 315 186 185
f 315 185 240
f 240 171 317
f 317 171 25
f 317 25 319
f 319 25 27
f 319 27 321
f 321 27 29
f 321 29 31
f 19 21 327
f 327 21 193
f 327 193 236
f 236 155 329
f 329 155 95
f 329 95 331
f 331 95 97
f 331 97 345
f 345 97 99
f 345 99 347
f 347 99 349
f 152 75 77
f 344 9 314
f 314 9 11
f 314 11 113
f 113 11 383
f 113 383 374
f 336 81 338
f 338 81 83
f 338 83 340
f 83 85 340
f 340 85 87
f 340 87 154
f 334 382 336
f 336 382 384
f 336 384 143
f 154 152 340
f 340 152 77
f 340 77 342
f 342 77 385
f 342 385 344
f 344 385 386
f 344 386 175
f 7 9 180
f 180 9 344
f 180 344 176
f 176 344 175
f 79 81 150
f 150 81 336
f 150 336 144
f 144 336 143
f 163 53 55
f 59 61 261
f 125 387 388
f 159 65 67
f 125 388 126
f 181 33 35
f 261 61 263
f 263 61 63
f 263 63 265
f 265 63 389
f 265 389 267
f 388 390 126
f 126 390 391
f 126 391 274
f 274 391 392
f 274 392 275
f 275 392 393
f 232 283 169
f 169 283 281
f 169 281 41
f 232 159 283
f 283 159 67
f 283 67 285
f 285 67 69
f 285 69 287
f 287 69 71
f 267 389 269
f 269 389 394
f 269 394 271
f 271 394 395
f 271 395 242
f 277 275 234
f 289 287 230
f 393 190 275
f 275 190 189
f 275 189 234
f 234 181 277
f 277 181 35
f 277 35 279
f 279 35 37
f 279 37 281
f 281 37 39
f 281 39 41
f 71 73 287
f 287 73 161
f 287 161 230
f 230 163 289
f 289 163 55
f 289 55 256
f 256 55 57
f 256 57 257
f 257 57 59
f 257 59 259
f 259 59 261
f 158 89 91
f 252 3 254
f 254 3 5
f 254 5 125
f 125 5 396
f 125 396 387
f 242 395 244
f 244 395 397
f 244 397 199
f 244 45 246
f 246 45 47
f 246 47 248
f 47 49 248
f 248 49 51
f 248 51 166
f 43 45 168
f 168 45 244
f 168 244 200
f 200 244 199
f 166 158 248
f 248 158 91
f 248 91 250
f 250 91 398
f 250 398 252
f 252 398 399
f 252 399 147
f 1 3 184
f 184 3 252
f 184 252 148
f 148 252 147
f 58 56 290
f 162 74 72
f 290 255 58
f 58 255 258
f 58 258 60
f 60 258 260
f 60 260 62
f 62 260 262
f 62 262 64
f 115 400 116
f 116 400 401
f 402 272 403
f 403 272 241
f 403 241 404
f 404 241 243
f 262 264 64
f 64 264 266
f 64 266 405
f 405 266 268
f 405 268 402
f 402 268 270
f 402 270 272
f 229 288 164
f 164 288 290
f 164 290 54
f 54 290 56
f 68 284 70
f 70 284 286
f 70 286 72
f 72 286 288
f 72 288 162
f 162 288 229
f 170 42 40
f 191 192 406
f 165 52 50
f 251 407 249
f 249 407 408
f 249 408 247
f 231 282 160
f 160 282 284
f 160 284 66
f 66 284 68
f 231 170 282
f 282 170 40
f 282 40 280
f 280 40 38
f 280 38 278
f 278 38 36
f 233 276 182
f 182 276 278
f 182 278 34
f 34 278 36
f 233 191 276
f 276 191 406
f 276 406 273
f 273 406 409
f 273 409 115
f 115 409 410
f 115 410 400
f 401 411 116
f 116 411 412
f 116 412 253
f 253 412 6
f 253 6 251
f 251 6 4
f 251 4 2
f 408 92 247
f 247 92 90
f 247 90 157
f 145 407 146
f 146 407 251
f 146 251 183
f 183 251 2
f 157 165 247
f 247 165 50
f 247 50 245
f 245 50 48
f 245 48 243
f 243 48 46
f 243 46 44
f 197 404 198
f 198 404 243
f 198 243 167
f 167 243 44
f 227 228 302
f 302 228 292
f 302 292 301
f 301 292 291
f 301 291 308
f 308 291 298
f 308 298 309
f 309 298 299
f 309 299 310
f 310 299 300
f 310 300 215
f 215 300 216
f 213 214 303
f 303 214 297
f 303 297 304
f 304 297 296
f 304 296 305
f 305 296 295
f 305 295 306
f 306 295 294
f 306 294 307
f 307 294 293
f 307 293 201
f 201 293 202
f 103 104 376
f 376 104 367
f 376 367 381
f 381 367 366
f 381 366 382
f 382 366 365
f 382 365 384
f 384 365 364
f 384 364 143
f 143 364 141
f 91 92 398
f 398 92 408
f 398 408 399
f 399 408 407
f 399 407 147
f 147 407 145
f 77 78 385
f 385 78 369
f 385 369 386
f 386 369 368
f 386 368 175
f 175 368 173
f 63 64 389
f 389 64 405
f 389 405 394
f 394 405 402
f 394 402 395
f 395 402 403
f 395 403 397
f 397 403 404
f 397 404 199
f 199 404 197
f 11 12 383
f 383 12 373
f 383 373 374
f 374 373 372
f 374 372 375
f 375 372 363
f 375 363 377
f 377 363 362
f 377 362 378
f 378 362 371
f 378 371 379
f 379 371 370
f 379 370 380
f 380 370 361
f 380 361 186
f 186 361 188
f 5 6 396
f 396 6 412
f 396 412 387
f 387 412 411
f 387 411 388
f 388 411 401
f 388 401 390
f 390 401 400
f 390 400 391
f 391 400 410
f 391 410 392
f 392 410 409
f 392 409 393
f 393 409 406
f 393 406 190
f 190 406 192
