# Converted from resources/robots/b2z1_pcl/meshes/top_camera_plat_a_link.dae
# DAE scene node transforms intentionally not baked; URDF link frames already define mesh placement.
o geom_0_prim_0
v 0.00499999989 0.0104 0.00200000009
v 0.00499999989 0.0104 0
v 0.00387190003 0.01065748 0.00200000009
v 0.00387190003 0.01065748 0
v 0.00296724006 0.01137893 0.00200000009
v 0.00296724006 0.01137893 0
v 0.0024651899 0.0124214403 0.00200000009
v 0.0024651899 0.0124214403 0
v 0.0024651899 0.01357855 0.00200000009
v 0.0024651899 0.01357855 0
v 0.00296724006 0.0146210697 0.00200000009
v 0.00296724006 0.0146210697 0
v 0.00387190003 0.0153425196 0.00200000009
v 0.00387190003 0.0153425196 0
v 0.00499999989 0.0155999996 0.00200000009
v 0.00499999989 0.0155999996 0
v -0.00499999989 0.0104 0.00200000009
v -0.00499999989 0.0104 0
v -0.00612810021 0.01065748 0.00200000009
v -0.00612810021 0.01065748 0
v -0.00703275995 0.01137893 0.00200000009
v -0.00703275995 0.01137893 0
v -0.00753480988 0.0124214403 0.00200000009
v -0.00753480988 0.0124214403 0
v -0.00753480988 0.01357855 0.00200000009
v -0.00753480988 0.01357855 0
v -0.00703275995 0.0146210697 0.00200000009
v -0.00703275995 0.0146210697 0
v -0.00612810021 0.0153425196 0.00200000009
v -0.00612810021 0.0153425196 0
v -0.00499999989 0.0155999996 0.00200000009
v -0.00499999989 0.0155999996 0
v 0 0.0260000005 0.0274
v 0 0.0280000009 0.0274
v -0.00112809998 0.0260000005 0.0276574809
v -0.00112809998 0.0280000009 0.0276574809
v -0.00203276007 0.0260000005 0.0283789299
v -0.00203276007 0.0280000009 0.0283789299
v -0.00253480999 0.0260000005 0.0294214394
v -0.00253480999 0.0280000009 0.0294214394
v -0.00253480999 0.0260000005 0.03057855
v -0.00253480999 0.0280000009 0.03057855
v -0.00203276007 0.0260000005 0.0316210687
v -0.00203276007 0.0280000009 0.0316210687
v -0.00112809998 0.0260000005 0.0323425196
v -0.00112809998 0.0280000009 0.0323425196
v 0 0.0260000005 0.0326000005
v 0 0.0280000009 0.0326000005
v 0.00999999978 0.0240000002 0
v -0.00999999978 0.0240000002 0
v -0.00999999978 0.0255307406 0.000304479996
v 0.00999999978 0.0255307406 0.000304479996
v -0.00999999978 0.0268284306 0.00117157004
v 0.00999999978 0.0268284306 0.00117157004
v -0.00999999978 0.0276955198 0.00246927002
v 0.00999999978 0.0276955198 0.00246927002
v -0.00999999978 0.0280000009 0.00400000019
v 0.00999999978 0.0280000009 0.00400000019
v -0.00999999978 0.0240000002 0.00200000009
v 0.00999999978 0.0240000002 0.00200000009
v -0.00999999978 0.0250000004 0.00226794998
v 0.00999999978 0.0250000004 0.00226794998
v -0.00999999978 0.0257320497 0.00300000003
v 0.00999999978 0.0257320497 0.00300000003
v -0.00999999978 0.0260000005 0.00400000019
v 0.00999999978 0.0260000005 0.00400000019
v -0.00712898001 0.0280000009 0.0296092909
v -0.00496215979 0.0280000009 0.0333729684
v -0.0036895799 0.0280000009 0.0347314887
v -0.00206186995 0.0280000009 0.0356345996
v 0.00112809998 0.0280000009 0.0276574809
v -0.000235700005 0.0280000009 0.0359953716
v 0.00161316001 0.0280000009 0.0357790813
v 0.00112809998 0.0280000009 0.0323425196
v 0.00330673996 0.0280000009 0.0350065418
v 0.00203276007 0.0280000009 0.0316210687
v 0.00468205009 0.0280000009 0.033752121
v 0.00253480999 0.0280000009 0.03057855
v -0.00871205982 0.0280000009 0.0255652498
v 0.00560670998 0.0280000009 0.0321365483
v 0.00599170988 0.0280000009 0.0303153396
v 0.00253480999 0.0280000009 0.0294214394
v 0.00579999993 0.0280000009 0.0284637697
v 0.00203276007 0.0280000009 0.0283789299
v 0.00544602983 0.0280000009 0.0258943699
v -0.00999999978 0.0280000009 0.0170000009
v -0.0096762199 0.0280000009 0.0213307701
v 0.0057233898 0.0280000009 0.0233155694
v 0.00661564013 0.0280000009 0.0208802
v 0.00806991011 0.0280000009 0.0187325906
v 0.00999999978 0.0280000009 0.0170000009
v 0.00579999993 0.0260000005 0.0284637697
v 0.00599170988 0.0260000005 0.0303153396
v 0.00560670998 0.0260000005 0.0321365483
v 0.00468205009 0.0260000005 0.033752121
v 0.00330673996 0.0260000005 0.0350065418
v 0.00161316001 0.0260000005 0.0357790813
v -0.000235700005 0.0260000005 0.0359953716
v -0.00206186995 0.0260000005 0.0356345996
v -0.0036895799 0.0260000005 0.0347314887
v -0.00496215979 0.0260000005 0.0333729684
v 0.00999999978 0.0260000005 0.0170000009
v 0.00806991011 0.0260000005 0.0187325906
v 0.00661564013 0.0260000005 0.0208802
v 0.0057233898 0.0260000005 0.0233155694
v 0.00544602983 0.0260000005 0.0258943699
v -0.00712898001 0.0260000005 0.0296092909
v -0.00871205982 0.0260000005 0.0255652498
v -0.0096762199 0.0260000005 0.0213307701
v -0.00999999978 0.0260000005 0.0170000009
v 0.00112809998 0.0260000005 0.0323425196
v 0.00253480999 0.0260000005 0.0294214394
v 0.00253480999 0.0260000005 0.03057855
v 0.00203276007 0.0260000005 0.0316210687
v 0.00112809998 0.0260000005 0.0276574809
v 0.00203276007 0.0260000005 0.0283789299
v 0.00703275995 -0.0146210697 0.00200000009
v 0.00612810021 -0.0153425196 0.00200000009
v 0.00999999978 -0.0240000002 0.00200000009
v 0.00612810021 0.0153425196 0.00200000009
v 0.00703275995 0.0146210697 0.00200000009
v 0.00703275995 -0.01137893 0.00200000009
v 0.00753480988 -0.0124214496 0.00200000009
v -0.00999999978 -0.0240000002 0.00200000009
v -0.00387190003 -0.0153425196 0.00200000009
v 0.00753480988 -0.01357855 0.00200000009
v -0.00499999989 -0.0155999996 0.00200000009
v -0.00612810021 -0.0153425196 0.00200000009
v -0.00703275995 -0.0146210697 0.00200000009
v -0.0024651899 0.01357855 0.00200000009
v -0.0024651899 0.0124214403 0.00200000009
v -0.00296724006 0.01137893 0.00200000009
v -0.00499999989 -0.0104 0.00200000009
v 0.00753480988 0.01357855 0.00200000009
v 0.00753480988 0.0124214403 0.00200000009
v 0.00703275995 0.01137893 0.00200000009
v 0.00612810021 -0.01065748 0.00200000009
v 0.00612810021 0.01065748 0.00200000009
v 0.00499999989 -0.0104 0.00200000009
v 0.00387190003 -0.01065748 0.00200000009
v 0.00296724006 -0.01137893 0.00200000009
v -0.00753480988 -0.01357855 0.00200000009
v -0.00753480988 -0.0124214496 0.00200000009
v -0.00703275995 -0.01137893 0.00200000009
v -0.00387190003 0.0153425196 0.00200000009
v -0.00296724006 0.0146210697 0.00200000009
v -0.00387190003 0.01065748 0.00200000009
v -0.00612810021 -0.01065748 0.00200000009
v -0.00387190003 -0.01065748 0.00200000009
v -0.00296724006 -0.01137893 0.00200000009
v -0.0024651899 -0.0124214496 0.00200000009
v 0.0024651899 -0.0124214496 0.00200000009
v 0.0024651899 -0.01357855 0.00200000009
v 0.00499999989 -0.0155999996 0.00200000009
v 0.00387190003 -0.0153425196 0.00200000009
v 0.00296724006 -0.0146210697 0.00200000009
v -0.00296724006 -0.0146210697 0.00200000009
v -0.0024651899 -0.01357855 0.00200000009
v 0.00999999978 -0.0260000005 0.0170000009
v 0.00999999978 -0.0280000009 0.0170000009
v 0.00999999978 -0.0260000005 0.00400000019
v 0.00999999978 -0.0280000009 0.00400000019
v 0.00999999978 -0.0257320497 0.00300000003
v 0.00999999978 -0.0276955198 0.00246927002
v 0.00999999978 -0.0268284306 0.00117157004
v 0.00999999978 -0.0250000004 0.00226794998
v 0.00999999978 -0.0255307294 0.000304479996
v 0.00999999978 -0.0240000002 0
v -0.00753480988 -0.01357855 0
v -0.00703275995 -0.0146210697 0
v -0.00999999978 -0.0240000002 0
v 0.00703275995 -0.0146210697 0
v 0.00612810021 -0.0153425196 0
v 0.00499999989 -0.0155999996 0
v -0.00753480988 -0.0124214496 0
v -0.00703275995 -0.01137893 0
v -0.00612810021 -0.0153425196 0
v -0.00499999989 -0.0155999996 0
v -0.00387190003 -0.0153425196 0
v 0.00387190003 -0.0153425196 0
v 0.00296724006 -0.0146210697 0
v 0.0024651899 -0.01357855 0
v 0.00753480988 0.0124214403 0
v 0.00753480988 0.01357855 0
v 0.00703275995 0.0146210697 0
v -0.0024651899 -0.01357855 0
v 0.00387190003 -0.01065748 0
v -0.00296724006 -0.0146210697 0
v 0.00296724006 -0.01137893 0
v 0.0024651899 -0.0124214496 0
v 0.00703275995 0.01137893 0
v 0.00703275995 -0.01137893 0
v 0.00612810021 0.01065748 0
v 0.00612810021 -0.01065748 0
v 0.00499999989 -0.0104 0
v 0.00753480988 -0.0124214496 0
v 0.00753480988 -0.01357855 0
v 0.00612810021 0.0153425196 0
v -0.0024651899 0.01357855 0
v -0.00296724006 0.0146210697 0
v -0.00387190003 0.0153425196 0
v -0.00612810021 -0.01065748 0
v -0.00499999989 -0.0104 0
v -0.0024651899 -0.0124214496 0
v -0.00296724006 -0.01137893 0
v -0.00387190003 -0.01065748 0
v -0.00387190003 0.01065748 0
v -0.00296724006 0.01137893 0
v -0.0024651899 0.0124214403 0
v -0.00999999978 -0.0280000009 0.0170000009
v -0.00999999978 -0.0260000005 0.0170000009
v -0.00999999978 -0.0280000009 0.00400000019
v -0.00999999978 -0.0260000005 0.00400000019
v -0.00999999978 -0.0276955198 0.00246927002
v -0.00999999978 -0.0257320497 0.00300000003
v -0.00999999978 -0.0268284306 0.00117157004
v -0.00999999978 -0.0250000004 0.00226794998
v -0.00999999978 -0.0255307294 0.000304479996
v 0 -0.0260000005 0.0326000005
v 0 -0.0280000009 0.0326000005
v -0.00112809998 -0.0260000005 0.0323425196
v -0.00112809998 -0.0280000009 0.0323425196
v -0.00203276007 -0.0260000005 0.0316210687
v -0.00203276007 -0.0280000009 0.0316210687
v -0.00253480999 -0.0260000005 0.03057855
v -0.00253480999 -0.0280000009 0.03057855
v -0.00253480999 -0.0260000005 0.0294214394
v -0.00253480999 -0.0280000009 0.0294214394
v -0.00203276007 -0.0260000005 0.0283789299
v -0.00203276007 -0.0280000009 0.0283789299
v -0.00112809998 -0.0260000005 0.0276574809
v -0.00112809998 -0.0280000009 0.0276574809
v 0 -0.0260000005 0.0274
v 0 -0.0280000009 0.0274
v 0.00253480999 -0.0280000009 0.0294214394
v 0.00599170988 -0.0280000009 0.0303153396
v 0.00253480999 -0.0280000009 0.03057855
v 0.00560670998 -0.0280000009 0.0321365483
v 0.00203276007 -0.0280000009 0.0316210687
v 0.00468205009 -0.0280000009 0.033752121
v 0.00112809998 -0.0280000009 0.0323425196
v -0.0036895799 -0.0280000009 0.0347314887
v -0.00496215979 -0.0280000009 0.0333729684
v -0.00712898001 -0.0280000009 0.0296092909
v -0.00871205982 -0.0280000009 0.0255652498
v -0.0096762199 -0.0280000009 0.0213307701
v 0.00330673996 -0.0280000009 0.0350065418
v 0.00161316001 -0.0280000009 0.0357790813
v -0.000235700005 -0.0280000009 0.0359953716
v -0.00206186995 -0.0280000009 0.0356345996
v 0.00112809998 -0.0280000009 0.0276574809
v 0.00806991011 -0.0280000009 0.0187325906
v 0.00661564013 -0.0280000009 0.0208802
v 0.0057233898 -0.0280000009 0.0233155694
v 0.00203276007 -0.0280000009 0.0283789299
v 0.00544602983 -0.0280000009 0.0258943699
v 0.00579999993 -0.0280000009 0.0284637697
v -0.00496215979 -0.0260000005 0.0333729684
v -0.0036895799 -0.0260000005 0.0347314887
v -0.00206186995 -0.0260000005 0.0356345996
v -0.000235700005 -0.0260000005 0.0359953716
v 0.00161316001 -0.0260000005 0.0357790813
v 0.00330673996 -0.0260000005 0.0350065418
v 0.00468205009 -0.0260000005 0.033752121
v 0.00560670998 -0.0260000005 0.0321365483
v 0.00599170988 -0.0260000005 0.0303153396
v 0.00579999993 -0.0260000005 0.0284637697
v 0.00544602983 -0.0260000005 0.0258943699
v 0.0057233898 -0.0260000005 0.0233155694
v 0.00661564013 -0.0260000005 0.0208802
v 0.00806991011 -0.0260000005 0.0187325906
v -0.0096762199 -0.0260000005 0.0213307701
v -0.00871205982 -0.0260000005 0.0255652498
v -0.00712898001 -0.0260000005 0.0296092909
v 0.00112809998 -0.0260000005 0.0323425196
v 0.00203276007 -0.0260000005 0.0316210687
v 0.00253480999 -0.0260000005 0.03057855
v 0.00112809998 -0.0260000005 0.0276574809
v 0.00253480999 -0.0260000005 0.0294214394
v 0.00203276007 -0.0260000005 0.0283789299
f 1 2 3
f 3 2 4
f 3 4 5
f 5 4 6
f 5 6 7
f 7 6 8
f 7 8 9
f 9 8 10
f 9 10 11
f 11 10 12
f 11 12 13
f 13 12 14
f 13 14 15
f 15 14 16
f 17 18 19
f 19 18 20
f 19 20 21
f 21 20 22
f 21 22 23
f 23 22 24
f 23 24 25
f 25 24 26
f 25 26 27
f 27 26 28
f 27 28 29
f 29 28 30
f 29 30 31
f 31 30 32
f 33 34 35
f 35 34 36
f 35 36 37
f 37 36 38
f 37 38 39
f 39 38 40
f 39 40 41
f 41 40 42
f 41 42 43
f 43 42 44
f 43 44 45
f 45 44 46
f 45 46 47
f 47 46 48
f 49 50 51
f 49 51 52
f 52 51 53
f 52 53 54
f 54 53 55
f 54 55 56
f 56 55 57
f 56 57 58
f 59 60 61
f 61 60 62
f 61 62 63
f 63 62 64
f 63 64 65
f 65 64 66
f 67 68 44
f 44 68 69
f 44 69 46
f 46 69 70
f 46 70 48
f 36 34 58
f 58 34 71
f 70 72 48
f 48 72 73
f 48 73 74
f 74 73 75
f 74 75 76
f 76 75 77
f 76 77 78
f 44 42 67
f 67 42 40
f 67 40 79
f 79 40 38
f 77 80 78
f 78 80 81
f 78 81 82
f 82 81 83
f 82 83 84
f 84 83 85
f 84 85 71
f 58 57 36
f 36 57 86
f 36 86 38
f 38 86 87
f 38 87 79
f 85 88 71
f 71 88 89
f 71 89 58
f 58 89 90
f 58 90 91
f 92 83 81
f 92 81 93
f 93 81 80
f 93 80 94
f 94 80 77
f 94 77 95
f 95 77 75
f 95 75 96
f 96 75 73
f 96 73 97
f 97 73 72
f 97 72 98
f 98 72 70
f 98 70 99
f 99 70 69
f 99 69 100
f 100 69 68
f 100 68 101
f 102 91 103
f 103 91 90
f 103 90 104
f 104 90 89
f 104 89 105
f 105 89 88
f 105 88 106
f 106 88 85
f 106 85 92
f 92 85 83
f 101 68 67
f 101 67 107
f 107 67 79
f 107 79 108
f 108 79 87
f 108 87 109
f 109 87 86
f 109 86 110
f 111 97 47
f 47 97 98
f 47 98 45
f 112 93 113
f 113 93 94
f 113 94 114
f 114 94 95
f 114 95 111
f 111 95 96
f 111 96 97
f 98 99 45
f 45 99 100
f 45 100 43
f 43 100 101
f 43 101 41
f 41 101 107
f 41 107 39
f 39 107 108
f 39 108 37
f 37 108 109
f 37 109 35
f 35 109 110
f 35 110 65
f 66 115 65
f 65 115 33
f 65 33 35
f 102 103 66
f 66 103 104
f 66 104 115
f 115 104 105
f 115 105 116
f 116 105 106
f 116 106 112
f 112 106 92
f 112 92 93
f 60 59 13
f 117 118 119
f 27 29 59
f 13 15 60
f 60 15 120
f 60 120 121
f 60 122 123
f 124 119 125
f 60 123 119
f 119 123 126
f 119 126 117
f 125 127 124
f 124 127 128
f 124 128 129
f 130 131 7
f 7 131 132
f 7 132 133
f 121 134 60
f 60 134 135
f 60 135 122
f 122 135 136
f 122 136 137
f 137 136 138
f 137 138 139
f 139 138 1
f 139 1 140
f 140 1 141
f 129 142 124
f 124 142 143
f 124 143 59
f 59 143 144
f 29 31 59
f 59 31 145
f 59 145 13
f 13 145 146
f 13 146 11
f 11 146 130
f 11 130 9
f 9 130 7
f 1 3 133
f 133 3 5
f 133 5 7
f 132 147 133
f 133 147 17
f 133 17 148
f 133 149 1
f 1 149 150
f 1 150 141
f 141 150 151
f 141 151 152
f 152 151 153
f 17 19 148
f 148 19 21
f 148 21 144
f 144 21 23
f 144 23 59
f 59 23 25
f 59 25 27
f 118 154 119
f 119 154 155
f 119 155 125
f 125 155 156
f 125 156 157
f 157 156 153
f 157 153 158
f 158 153 151
f 159 160 161
f 161 160 162
f 161 162 163
f 91 102 58
f 58 102 66
f 58 66 56
f 56 66 64
f 56 64 54
f 54 64 62
f 162 164 163
f 163 164 165
f 163 165 166
f 166 165 167
f 166 167 119
f 119 167 168
f 119 168 60
f 60 168 49
f 60 49 62
f 62 49 52
f 62 52 54
f 169 170 171
f 172 168 173
f 173 168 174
f 169 171 175
f 175 171 50
f 175 50 176
f 170 177 171
f 171 177 178
f 171 178 179
f 174 168 180
f 180 168 171
f 180 171 181
f 181 171 179
f 181 179 182
f 183 184 49
f 49 184 185
f 186 187 188
f 188 187 189
f 188 189 179
f 179 189 190
f 179 190 182
f 191 192 193
f 193 192 194
f 193 194 2
f 2 194 195
f 2 195 187
f 191 183 192
f 192 183 49
f 192 49 196
f 196 49 168
f 196 168 197
f 197 168 172
f 50 30 28
f 14 50 16
f 16 50 49
f 16 49 198
f 198 49 185
f 199 200 14
f 14 200 201
f 14 201 50
f 50 201 32
f 50 32 30
f 28 26 50
f 50 26 24
f 50 24 176
f 176 24 22
f 176 22 202
f 202 22 20
f 202 20 203
f 186 204 187
f 187 204 205
f 187 205 2
f 2 205 206
f 2 206 4
f 4 206 203
f 4 203 6
f 20 18 203
f 203 18 207
f 203 207 6
f 6 207 208
f 6 208 8
f 8 208 209
f 8 209 10
f 10 209 199
f 10 199 12
f 12 199 14
f 210 211 212
f 212 211 213
f 212 213 214
f 214 213 215
f 214 215 216
f 216 215 217
f 63 53 61
f 61 53 51
f 61 51 59
f 59 51 50
f 59 50 124
f 124 50 171
f 124 171 217
f 217 171 218
f 217 218 216
f 110 86 65
f 65 86 57
f 65 57 63
f 63 57 55
f 63 55 53
f 47 48 111
f 111 48 74
f 111 74 114
f 114 74 76
f 114 76 113
f 113 76 78
f 113 78 112
f 112 78 82
f 112 82 116
f 116 82 84
f 116 84 115
f 115 84 71
f 115 71 33
f 33 71 34
f 31 32 145
f 145 32 201
f 145 201 146
f 146 201 200
f 146 200 130
f 130 200 199
f 130 199 131
f 131 199 209
f 131 209 132
f 132 209 208
f 132 208 147
f 147 208 207
f 147 207 17
f 17 207 18
f 15 16 120
f 120 16 198
f 120 198 121
f 121 198 185
f 121 185 134
f 134 185 184
f 134 184 135
f 135 184 183
f 135 183 136
f 136 183 191
f 136 191 138
f 138 191 193
f 138 193 1
f 1 193 2
f 154 174 155
f 155 174 180
f 155 180 156
f 156 180 181
f 156 181 153
f 153 181 182
f 153 182 152
f 152 182 190
f 152 190 141
f 141 190 189
f 141 189 140
f 140 189 187
f 140 187 139
f 139 187 195
f 127 178 128
f 128 178 177
f 128 177 129
f 129 177 170
f 129 170 142
f 142 170 169
f 142 169 143
f 143 169 175
f 143 175 144
f 144 175 176
f 144 176 148
f 148 176 202
f 148 202 133
f 133 202 203
f 219 220 221
f 221 220 222
f 221 222 223
f 223 222 224
f 223 224 225
f 225 224 226
f 225 226 227
f 227 226 228
f 227 228 229
f 229 228 230
f 229 230 231
f 231 230 232
f 231 232 233
f 233 232 234
f 162 212 214
f 162 214 164
f 164 214 216
f 164 216 165
f 165 216 218
f 165 218 167
f 167 218 171
f 167 171 168
f 213 161 215
f 215 161 163
f 215 163 217
f 217 163 166
f 217 166 124
f 124 166 119
f 235 236 237
f 237 236 238
f 237 238 239
f 239 238 240
f 239 240 241
f 222 242 224
f 224 242 243
f 224 243 226
f 226 243 244
f 226 244 228
f 228 244 245
f 228 245 230
f 230 245 246
f 230 246 232
f 232 246 210
f 232 210 212
f 240 247 241
f 241 247 248
f 241 248 220
f 220 248 249
f 220 249 222
f 222 249 250
f 222 250 242
f 162 251 212
f 212 251 234
f 212 234 232
f 160 252 162
f 162 252 253
f 162 253 251
f 251 253 254
f 251 254 255
f 255 254 256
f 255 256 235
f 235 256 257
f 235 257 236
f 258 243 242
f 258 242 259
f 259 242 250
f 259 250 260
f 260 250 249
f 260 249 261
f 261 249 248
f 261 248 262
f 262 248 247
f 262 247 263
f 263 247 240
f 263 240 264
f 264 240 238
f 264 238 265
f 265 238 236
f 265 236 266
f 266 236 257
f 266 257 267
f 267 257 268
f 268 257 256
f 268 256 269
f 269 256 254
f 269 254 270
f 270 254 253
f 270 253 271
f 271 253 252
f 271 252 159
f 159 252 160
f 211 210 246
f 211 246 272
f 272 246 245
f 272 245 273
f 273 245 244
f 273 244 274
f 274 244 243
f 274 243 258
f 274 258 223
f 223 258 259
f 223 259 221
f 221 259 260
f 221 260 219
f 260 261 219
f 219 261 262
f 219 262 275
f 275 262 263
f 275 263 276
f 276 263 264
f 276 264 277
f 223 225 274
f 274 225 227
f 274 227 273
f 273 227 229
f 271 159 161
f 161 213 231
f 231 213 211
f 231 211 229
f 229 211 272
f 229 272 273
f 271 161 270
f 231 233 161
f 161 233 278
f 161 278 270
f 264 265 277
f 277 265 266
f 277 266 279
f 279 266 267
f 279 267 280
f 280 267 268
f 280 268 278
f 278 268 269
f 278 269 270
f 233 234 278
f 278 234 251
f 278 251 280
f 280 251 255
f 280 255 279
f 279 255 235
f 279 235 277
f 277 235 237
f 277 237 276
f 276 237 239
f 276 239 275
f 275 239 241
f 275 241 219
f 219 241 220
f 133 203 149
f 149 203 206
f 149 206 150
f 150 206 205
f 150 205 151
f 151 205 204
f 151 204 158
f 158 204 186
f 158 186 157
f 157 186 188
f 157 188 125
f 125 188 179
f 125 179 127
f 127 179 178
f 139 195 137
f 137 195 194
f 137 194 122
f 122 194 192
f 122 192 123
f 123 192 196
f 123 196 126
f 126 196 197
f 126 197 117
f 117 197 172
f 117 172 118
f 118 172 173
f 118 173 154
f 154 173 174
